G04 #@! TF.GenerationSoftware,KiCad,Pcbnew,(5.1.5)-3*
G04 #@! TF.CreationDate,2020-07-25T14:56:31+02:00*
G04 #@! TF.ProjectId,pcb_ruler,7063625f-7275-46c6-9572-2e6b69636164,rev?*
G04 #@! TF.SameCoordinates,Original*
G04 #@! TF.FileFunction,Soldermask,Bot*
G04 #@! TF.FilePolarity,Negative*
%FSLAX46Y46*%
G04 Gerber Fmt 4.6, Leading zero omitted, Abs format (unit mm)*
G04 Created by KiCad (PCBNEW (5.1.5)-3) date 2020-07-25 14:56:31*
%MOMM*%
%LPD*%
G04 APERTURE LIST*
%ADD10C,0.200000*%
%ADD11C,0.250000*%
%ADD12C,0.100000*%
%ADD13C,0.010000*%
G04 APERTURE END LIST*
D10*
X249335714Y-129135714D02*
X249011904Y-130269047D01*
X248688095Y-129459523D01*
X248364285Y-130269047D01*
X248040476Y-129135714D01*
X247554761Y-129135714D02*
X247230952Y-130269047D01*
X246907142Y-129459523D01*
X246583333Y-130269047D01*
X246259523Y-129135714D01*
X245773809Y-129135714D02*
X245450000Y-130269047D01*
X245126190Y-129459523D01*
X244802380Y-130269047D01*
X244478571Y-129135714D01*
X243830952Y-130107142D02*
X243750000Y-130188095D01*
X243830952Y-130269047D01*
X243911904Y-130188095D01*
X243830952Y-130107142D01*
X243830952Y-130269047D01*
X242292857Y-130188095D02*
X242454761Y-130269047D01*
X242778571Y-130269047D01*
X242940476Y-130188095D01*
X243021428Y-130107142D01*
X243102380Y-129945238D01*
X243102380Y-129459523D01*
X243021428Y-129297619D01*
X242940476Y-129216666D01*
X242778571Y-129135714D01*
X242454761Y-129135714D01*
X242292857Y-129216666D01*
X240835714Y-130269047D02*
X240835714Y-129378571D01*
X240916666Y-129216666D01*
X241078571Y-129135714D01*
X241402380Y-129135714D01*
X241564285Y-129216666D01*
X240835714Y-130188095D02*
X240997619Y-130269047D01*
X241402380Y-130269047D01*
X241564285Y-130188095D01*
X241645238Y-130026190D01*
X241645238Y-129864285D01*
X241564285Y-129702380D01*
X241402380Y-129621428D01*
X240997619Y-129621428D01*
X240835714Y-129540476D01*
X240107142Y-130188095D02*
X239945238Y-130269047D01*
X239621428Y-130269047D01*
X239459523Y-130188095D01*
X239378571Y-130026190D01*
X239378571Y-129945238D01*
X239459523Y-129783333D01*
X239621428Y-129702380D01*
X239864285Y-129702380D01*
X240026190Y-129621428D01*
X240107142Y-129459523D01*
X240107142Y-129378571D01*
X240026190Y-129216666D01*
X239864285Y-129135714D01*
X239621428Y-129135714D01*
X239459523Y-129216666D01*
X238002380Y-130188095D02*
X238164285Y-130269047D01*
X238488095Y-130269047D01*
X238650000Y-130188095D01*
X238730952Y-130026190D01*
X238730952Y-129378571D01*
X238650000Y-129216666D01*
X238488095Y-129135714D01*
X238164285Y-129135714D01*
X238002380Y-129216666D01*
X237921428Y-129378571D01*
X237921428Y-129540476D01*
X238730952Y-129702380D01*
X236950000Y-130269047D02*
X237111904Y-130188095D01*
X237192857Y-130026190D01*
X237192857Y-128569047D01*
X235573809Y-130269047D02*
X235573809Y-129378571D01*
X235654761Y-129216666D01*
X235816666Y-129135714D01*
X236140476Y-129135714D01*
X236302380Y-129216666D01*
X235573809Y-130188095D02*
X235735714Y-130269047D01*
X236140476Y-130269047D01*
X236302380Y-130188095D01*
X236383333Y-130026190D01*
X236383333Y-129864285D01*
X236302380Y-129702380D01*
X236140476Y-129621428D01*
X235735714Y-129621428D01*
X235573809Y-129540476D01*
X234764285Y-130269047D02*
X234764285Y-128569047D01*
X234764285Y-129216666D02*
X234602380Y-129135714D01*
X234278571Y-129135714D01*
X234116666Y-129216666D01*
X234035714Y-129297619D01*
X233954761Y-129459523D01*
X233954761Y-129945238D01*
X234035714Y-130107142D01*
X234116666Y-130188095D01*
X234278571Y-130269047D01*
X234602380Y-130269047D01*
X234764285Y-130188095D01*
X233226190Y-130269047D02*
X233226190Y-128569047D01*
X233226190Y-129216666D02*
X233064285Y-129135714D01*
X232740476Y-129135714D01*
X232578571Y-129216666D01*
X232497619Y-129297619D01*
X232416666Y-129459523D01*
X232416666Y-129945238D01*
X232497619Y-130107142D01*
X232578571Y-130188095D01*
X232740476Y-130269047D01*
X233064285Y-130269047D01*
X233226190Y-130188095D01*
X231040476Y-130188095D02*
X231202380Y-130269047D01*
X231526190Y-130269047D01*
X231688095Y-130188095D01*
X231769047Y-130026190D01*
X231769047Y-129378571D01*
X231688095Y-129216666D01*
X231526190Y-129135714D01*
X231202380Y-129135714D01*
X231040476Y-129216666D01*
X230959523Y-129378571D01*
X230959523Y-129540476D01*
X231769047Y-129702380D01*
X230473809Y-129135714D02*
X229826190Y-129135714D01*
X230230952Y-128569047D02*
X230230952Y-130026190D01*
X230150000Y-130188095D01*
X229988095Y-130269047D01*
X229826190Y-130269047D01*
X229259523Y-130107142D02*
X229178571Y-130188095D01*
X229259523Y-130269047D01*
X229340476Y-130188095D01*
X229259523Y-130107142D01*
X229259523Y-130269047D01*
X228530952Y-130188095D02*
X228369047Y-130269047D01*
X228045238Y-130269047D01*
X227883333Y-130188095D01*
X227802380Y-130026190D01*
X227802380Y-129945238D01*
X227883333Y-129783333D01*
X228045238Y-129702380D01*
X228288095Y-129702380D01*
X228450000Y-129621428D01*
X228530952Y-129459523D01*
X228530952Y-129378571D01*
X228450000Y-129216666D01*
X228288095Y-129135714D01*
X228045238Y-129135714D01*
X227883333Y-129216666D01*
X226426190Y-130188095D02*
X226588095Y-130269047D01*
X226911904Y-130269047D01*
X227073809Y-130188095D01*
X227154761Y-130026190D01*
X227154761Y-129378571D01*
X227073809Y-129216666D01*
X226911904Y-129135714D01*
X226588095Y-129135714D01*
X226426190Y-129216666D01*
X226345238Y-129378571D01*
X226345238Y-129540476D01*
X227154761Y-129702380D01*
D11*
X249208928Y-117921428D02*
X248608928Y-117921428D01*
X248351785Y-118864285D02*
X249208928Y-118864285D01*
X249208928Y-117064285D01*
X248351785Y-117064285D01*
X247323214Y-118864285D02*
X247494642Y-118778571D01*
X247580357Y-118607142D01*
X247580357Y-117064285D01*
X245951785Y-118778571D02*
X246123214Y-118864285D01*
X246466071Y-118864285D01*
X246637500Y-118778571D01*
X246723214Y-118607142D01*
X246723214Y-117921428D01*
X246637500Y-117750000D01*
X246466071Y-117664285D01*
X246123214Y-117664285D01*
X245951785Y-117750000D01*
X245866071Y-117921428D01*
X245866071Y-118092857D01*
X246723214Y-118264285D01*
X245094642Y-118864285D02*
X245094642Y-117064285D01*
X244923214Y-118178571D02*
X244408928Y-118864285D01*
X244408928Y-117664285D02*
X245094642Y-118350000D01*
X243894642Y-117664285D02*
X243208928Y-117664285D01*
X243637500Y-117064285D02*
X243637500Y-118607142D01*
X243551785Y-118778571D01*
X243380357Y-118864285D01*
X243208928Y-118864285D01*
X242608928Y-118864285D02*
X242608928Y-117664285D01*
X242608928Y-118007142D02*
X242523214Y-117835714D01*
X242437500Y-117750000D01*
X242266071Y-117664285D01*
X242094642Y-117664285D01*
X241237500Y-118864285D02*
X241408928Y-118778571D01*
X241494642Y-118692857D01*
X241580357Y-118521428D01*
X241580357Y-118007142D01*
X241494642Y-117835714D01*
X241408928Y-117750000D01*
X241237500Y-117664285D01*
X240980357Y-117664285D01*
X240808928Y-117750000D01*
X240723214Y-117835714D01*
X240637500Y-118007142D01*
X240637500Y-118521428D01*
X240723214Y-118692857D01*
X240808928Y-118778571D01*
X240980357Y-118864285D01*
X241237500Y-118864285D01*
X240037500Y-117664285D02*
X239608928Y-118864285D01*
X239180357Y-117664285D01*
X237723214Y-118864285D02*
X237723214Y-117921428D01*
X237808928Y-117750000D01*
X237980357Y-117664285D01*
X238323214Y-117664285D01*
X238494642Y-117750000D01*
X237723214Y-118778571D02*
X237894642Y-118864285D01*
X238323214Y-118864285D01*
X238494642Y-118778571D01*
X238580357Y-118607142D01*
X238580357Y-118435714D01*
X238494642Y-118264285D01*
X238323214Y-118178571D01*
X237894642Y-118178571D01*
X237723214Y-118092857D01*
X238494642Y-117064285D02*
X238408928Y-117150000D01*
X238494642Y-117235714D01*
X238580357Y-117150000D01*
X238494642Y-117064285D01*
X238494642Y-117235714D01*
X237808928Y-117064285D02*
X237723214Y-117150000D01*
X237808928Y-117235714D01*
X237894642Y-117150000D01*
X237808928Y-117064285D01*
X237808928Y-117235714D01*
X236094642Y-117664285D02*
X236094642Y-119121428D01*
X236180357Y-119292857D01*
X236266071Y-119378571D01*
X236437500Y-119464285D01*
X236694642Y-119464285D01*
X236866071Y-119378571D01*
X236094642Y-118778571D02*
X236266071Y-118864285D01*
X236608928Y-118864285D01*
X236780357Y-118778571D01*
X236866071Y-118692857D01*
X236951785Y-118521428D01*
X236951785Y-118007142D01*
X236866071Y-117835714D01*
X236780357Y-117750000D01*
X236608928Y-117664285D01*
X236266071Y-117664285D01*
X236094642Y-117750000D01*
X234551785Y-118778571D02*
X234723214Y-118864285D01*
X235066071Y-118864285D01*
X235237500Y-118778571D01*
X235323214Y-118607142D01*
X235323214Y-117921428D01*
X235237500Y-117750000D01*
X235066071Y-117664285D01*
X234723214Y-117664285D01*
X234551785Y-117750000D01*
X234466071Y-117921428D01*
X234466071Y-118092857D01*
X235323214Y-118264285D01*
X233694642Y-117664285D02*
X233694642Y-118864285D01*
X233694642Y-117835714D02*
X233608928Y-117750000D01*
X233437500Y-117664285D01*
X233180357Y-117664285D01*
X233008928Y-117750000D01*
X232923214Y-117921428D01*
X232923214Y-118864285D01*
X230866071Y-117064285D02*
X229751785Y-117064285D01*
X230351785Y-117750000D01*
X230094642Y-117750000D01*
X229923214Y-117835714D01*
X229837500Y-117921428D01*
X229751785Y-118092857D01*
X229751785Y-118521428D01*
X229837500Y-118692857D01*
X229923214Y-118778571D01*
X230094642Y-118864285D01*
X230608928Y-118864285D01*
X230780357Y-118778571D01*
X230866071Y-118692857D01*
X248437500Y-120614285D02*
X248437500Y-121814285D01*
X248866071Y-119928571D02*
X249294642Y-121214285D01*
X248180357Y-121214285D01*
X246551785Y-121814285D02*
X247580357Y-121814285D01*
X247066071Y-121814285D02*
X247066071Y-120014285D01*
X247237500Y-120271428D01*
X247408928Y-120442857D01*
X247580357Y-120528571D01*
X245866071Y-120185714D02*
X245780357Y-120100000D01*
X245608928Y-120014285D01*
X245180357Y-120014285D01*
X245008928Y-120100000D01*
X244923214Y-120185714D01*
X244837500Y-120357142D01*
X244837500Y-120528571D01*
X244923214Y-120785714D01*
X245951785Y-121814285D01*
X244837500Y-121814285D01*
X241837500Y-120014285D02*
X242694642Y-120014285D01*
X242780357Y-120871428D01*
X242694642Y-120785714D01*
X242523214Y-120700000D01*
X242094642Y-120700000D01*
X241923214Y-120785714D01*
X241837500Y-120871428D01*
X241751785Y-121042857D01*
X241751785Y-121471428D01*
X241837500Y-121642857D01*
X241923214Y-121728571D01*
X242094642Y-121814285D01*
X242523214Y-121814285D01*
X242694642Y-121728571D01*
X242780357Y-121642857D01*
X240723214Y-120785714D02*
X240894642Y-120700000D01*
X240980357Y-120614285D01*
X241066071Y-120442857D01*
X241066071Y-120357142D01*
X240980357Y-120185714D01*
X240894642Y-120100000D01*
X240723214Y-120014285D01*
X240380357Y-120014285D01*
X240208928Y-120100000D01*
X240123214Y-120185714D01*
X240037500Y-120357142D01*
X240037500Y-120442857D01*
X240123214Y-120614285D01*
X240208928Y-120700000D01*
X240380357Y-120785714D01*
X240723214Y-120785714D01*
X240894642Y-120871428D01*
X240980357Y-120957142D01*
X241066071Y-121128571D01*
X241066071Y-121471428D01*
X240980357Y-121642857D01*
X240894642Y-121728571D01*
X240723214Y-121814285D01*
X240380357Y-121814285D01*
X240208928Y-121728571D01*
X240123214Y-121642857D01*
X240037500Y-121471428D01*
X240037500Y-121128571D01*
X240123214Y-120957142D01*
X240208928Y-120871428D01*
X240380357Y-120785714D01*
X236951785Y-120100000D02*
X237123214Y-120014285D01*
X237380357Y-120014285D01*
X237637500Y-120100000D01*
X237808928Y-120271428D01*
X237894642Y-120442857D01*
X237980357Y-120785714D01*
X237980357Y-121042857D01*
X237894642Y-121385714D01*
X237808928Y-121557142D01*
X237637500Y-121728571D01*
X237380357Y-121814285D01*
X237208928Y-121814285D01*
X236951785Y-121728571D01*
X236866071Y-121642857D01*
X236866071Y-121042857D01*
X237208928Y-121042857D01*
X235837500Y-121814285D02*
X236008928Y-121728571D01*
X236094642Y-121642857D01*
X236180357Y-121471428D01*
X236180357Y-120957142D01*
X236094642Y-120785714D01*
X236008928Y-120700000D01*
X235837500Y-120614285D01*
X235580357Y-120614285D01*
X235408928Y-120700000D01*
X235323214Y-120785714D01*
X235237500Y-120957142D01*
X235237500Y-121471428D01*
X235323214Y-121642857D01*
X235408928Y-121728571D01*
X235580357Y-121814285D01*
X235837500Y-121814285D01*
X236008928Y-120014285D02*
X235923214Y-120100000D01*
X236008928Y-120185714D01*
X236094642Y-120100000D01*
X236008928Y-120014285D01*
X236008928Y-120185714D01*
X235323214Y-120014285D02*
X235237500Y-120100000D01*
X235323214Y-120185714D01*
X235408928Y-120100000D01*
X235323214Y-120014285D01*
X235323214Y-120185714D01*
X234723214Y-120614285D02*
X234037500Y-120614285D01*
X234466071Y-120014285D02*
X234466071Y-121557142D01*
X234380357Y-121728571D01*
X234208928Y-121814285D01*
X234037500Y-121814285D01*
X232751785Y-121728571D02*
X232923214Y-121814285D01*
X233266071Y-121814285D01*
X233437500Y-121728571D01*
X233523214Y-121557142D01*
X233523214Y-120871428D01*
X233437500Y-120700000D01*
X233266071Y-120614285D01*
X232923214Y-120614285D01*
X232751785Y-120700000D01*
X232666071Y-120871428D01*
X232666071Y-121042857D01*
X233523214Y-121214285D01*
X231894642Y-121814285D02*
X231894642Y-120014285D01*
X231894642Y-120700000D02*
X231723214Y-120614285D01*
X231380357Y-120614285D01*
X231208928Y-120700000D01*
X231123214Y-120785714D01*
X231037500Y-120957142D01*
X231037500Y-121471428D01*
X231123214Y-121642857D01*
X231208928Y-121728571D01*
X231380357Y-121814285D01*
X231723214Y-121814285D01*
X231894642Y-121728571D01*
X230008928Y-121814285D02*
X230180357Y-121728571D01*
X230266071Y-121642857D01*
X230351785Y-121471428D01*
X230351785Y-120957142D01*
X230266071Y-120785714D01*
X230180357Y-120700000D01*
X230008928Y-120614285D01*
X229751785Y-120614285D01*
X229580357Y-120700000D01*
X229494642Y-120785714D01*
X229408928Y-120957142D01*
X229408928Y-121471428D01*
X229494642Y-121642857D01*
X229580357Y-121728571D01*
X229751785Y-121814285D01*
X230008928Y-121814285D01*
X228637500Y-121814285D02*
X228637500Y-120614285D01*
X228637500Y-120957142D02*
X228551785Y-120785714D01*
X228466071Y-120700000D01*
X228294642Y-120614285D01*
X228123214Y-120614285D01*
X226751785Y-120614285D02*
X226751785Y-122071428D01*
X226837500Y-122242857D01*
X226923214Y-122328571D01*
X227094642Y-122414285D01*
X227351785Y-122414285D01*
X227523214Y-122328571D01*
X226751785Y-121728571D02*
X226923214Y-121814285D01*
X227266071Y-121814285D01*
X227437500Y-121728571D01*
X227523214Y-121642857D01*
X227608928Y-121471428D01*
X227608928Y-120957142D01*
X227523214Y-120785714D01*
X227437500Y-120700000D01*
X227266071Y-120614285D01*
X226923214Y-120614285D01*
X226751785Y-120700000D01*
X249294642Y-124678571D02*
X249037500Y-124764285D01*
X248608928Y-124764285D01*
X248437500Y-124678571D01*
X248351785Y-124592857D01*
X248266071Y-124421428D01*
X248266071Y-124250000D01*
X248351785Y-124078571D01*
X248437500Y-123992857D01*
X248608928Y-123907142D01*
X248951785Y-123821428D01*
X249123214Y-123735714D01*
X249208928Y-123650000D01*
X249294642Y-123478571D01*
X249294642Y-123307142D01*
X249208928Y-123135714D01*
X249123214Y-123050000D01*
X248951785Y-122964285D01*
X248523214Y-122964285D01*
X248266071Y-123050000D01*
X247666071Y-123564285D02*
X247323214Y-124764285D01*
X246980357Y-123907142D01*
X246637500Y-124764285D01*
X246294642Y-123564285D01*
X244923214Y-124678571D02*
X245094642Y-124764285D01*
X245437500Y-124764285D01*
X245608928Y-124678571D01*
X245694642Y-124507142D01*
X245694642Y-123821428D01*
X245608928Y-123650000D01*
X245437500Y-123564285D01*
X245094642Y-123564285D01*
X244923214Y-123650000D01*
X244837500Y-123821428D01*
X244837500Y-123992857D01*
X245694642Y-124164285D01*
X243294642Y-124764285D02*
X243294642Y-122964285D01*
X243294642Y-124678571D02*
X243466071Y-124764285D01*
X243808928Y-124764285D01*
X243980357Y-124678571D01*
X244066071Y-124592857D01*
X244151785Y-124421428D01*
X244151785Y-123907142D01*
X244066071Y-123735714D01*
X243980357Y-123650000D01*
X243808928Y-123564285D01*
X243466071Y-123564285D01*
X243294642Y-123650000D01*
X241751785Y-124678571D02*
X241923214Y-124764285D01*
X242266071Y-124764285D01*
X242437500Y-124678571D01*
X242523214Y-124507142D01*
X242523214Y-123821428D01*
X242437500Y-123650000D01*
X242266071Y-123564285D01*
X241923214Y-123564285D01*
X241751785Y-123650000D01*
X241666071Y-123821428D01*
X241666071Y-123992857D01*
X242523214Y-124164285D01*
X240894642Y-123564285D02*
X240894642Y-124764285D01*
X240894642Y-123735714D02*
X240808928Y-123650000D01*
X240637500Y-123564285D01*
X240380357Y-123564285D01*
X240208928Y-123650000D01*
X240123214Y-123821428D01*
X240123214Y-124764285D01*
D12*
X258818688Y-124550826D02*
X258535177Y-125884663D01*
X256660292Y-123589863D02*
X255858768Y-124693069D01*
X256198081Y-123215585D02*
X255285655Y-124228959D01*
X259400000Y-124800000D02*
X259263516Y-126000043D01*
X257159065Y-123913783D02*
X256249973Y-125488359D01*
X258244227Y-124396910D02*
X257822812Y-125693788D01*
X257688946Y-124183784D02*
X257134370Y-125429527D01*
X255777564Y-122795047D02*
X254764176Y-123707500D01*
X254442309Y-117811842D02*
X253108472Y-117528333D01*
X255079379Y-116152283D02*
X253504776Y-115243191D01*
X254596251Y-120748953D02*
X253299348Y-121170344D01*
X258244227Y-113589405D02*
X257822812Y-112292572D01*
X254349283Y-118399259D02*
X252993118Y-118256735D01*
X259400000Y-113100000D02*
X259263516Y-111986293D01*
X254809377Y-116682165D02*
X253563634Y-116127524D01*
X255079379Y-121834090D02*
X253504776Y-122743182D01*
X258818688Y-113435527D02*
X258535177Y-112101684D01*
X254442309Y-120174467D02*
X253108472Y-120457977D01*
X255403292Y-115653511D02*
X254300099Y-114851923D01*
X256660292Y-114396446D02*
X255858768Y-113293260D01*
X254349283Y-119587050D02*
X252993118Y-119729639D01*
X257159065Y-114072591D02*
X256249973Y-112497957D01*
X255777564Y-115191300D02*
X254764176Y-114278809D01*
X254318161Y-118993154D02*
X252499972Y-118993154D01*
X255403292Y-122332875D02*
X254300099Y-123134381D01*
X256198081Y-114770718D02*
X255285655Y-113757395D01*
X257688946Y-113802552D02*
X257134370Y-112556839D01*
X254809377Y-121304190D02*
X253563634Y-121858817D01*
X254596251Y-117237382D02*
X253299348Y-116816031D01*
D13*
G36*
X226388286Y-105746571D02*
G01*
X226365762Y-106018714D01*
X226343239Y-106290857D01*
X229479497Y-106290857D01*
X229457892Y-106744428D01*
X229436286Y-107198000D01*
X227962230Y-107217659D01*
X226488173Y-107237319D01*
X226510801Y-107471659D01*
X226533429Y-107706000D01*
X228003000Y-107725645D01*
X229472572Y-107745291D01*
X229472572Y-108903428D01*
X226352000Y-108903428D01*
X226352000Y-109411428D01*
X230125714Y-109411428D01*
X230125714Y-105707835D01*
X226388286Y-105746571D01*
G37*
X226388286Y-105746571D02*
X226365762Y-106018714D01*
X226343239Y-106290857D01*
X229479497Y-106290857D01*
X229457892Y-106744428D01*
X229436286Y-107198000D01*
X227962230Y-107217659D01*
X226488173Y-107237319D01*
X226510801Y-107471659D01*
X226533429Y-107706000D01*
X228003000Y-107725645D01*
X229472572Y-107745291D01*
X229472572Y-108903428D01*
X226352000Y-108903428D01*
X226352000Y-109411428D01*
X230125714Y-109411428D01*
X230125714Y-105707835D01*
X226388286Y-105746571D01*
G36*
X230851429Y-109411428D02*
G01*
X231649714Y-109411428D01*
X231649714Y-108758285D01*
X230851429Y-108758285D01*
X230851429Y-109411428D01*
G37*
X230851429Y-109411428D02*
X231649714Y-109411428D01*
X231649714Y-108758285D01*
X230851429Y-108758285D01*
X230851429Y-109411428D01*
G36*
X232302857Y-106290857D02*
G01*
X233966817Y-106290857D01*
X234513052Y-106292121D01*
X234932128Y-106296681D01*
X235242014Y-106305689D01*
X235460678Y-106320298D01*
X235606087Y-106341661D01*
X235696211Y-106370930D01*
X235744817Y-106404898D01*
X235841284Y-106593213D01*
X235846443Y-106834772D01*
X235783733Y-107021342D01*
X235747240Y-107072181D01*
X235686302Y-107109047D01*
X235579693Y-107134165D01*
X235406189Y-107149761D01*
X235144563Y-107158058D01*
X234773592Y-107161283D01*
X234444733Y-107161714D01*
X233842844Y-107166879D01*
X233367363Y-107184486D01*
X232999855Y-107217703D01*
X232721882Y-107269701D01*
X232515006Y-107343647D01*
X232360792Y-107442710D01*
X232268269Y-107535789D01*
X232167035Y-107677733D01*
X232111307Y-107831878D01*
X232088416Y-108047801D01*
X232085143Y-108252439D01*
X232106211Y-108646881D01*
X232176756Y-108929266D01*
X232307788Y-109127490D01*
X232480272Y-109253585D01*
X232568894Y-109291897D01*
X232690779Y-109322151D01*
X232863909Y-109345589D01*
X233106266Y-109363450D01*
X233435833Y-109376974D01*
X233870591Y-109387401D01*
X234428522Y-109395972D01*
X234570715Y-109397745D01*
X236439429Y-109420348D01*
X236439429Y-108903428D01*
X234788429Y-108902358D01*
X234197715Y-108900894D01*
X233735937Y-108894413D01*
X233386888Y-108878501D01*
X233134362Y-108848744D01*
X232962152Y-108800727D01*
X232854052Y-108730036D01*
X232793855Y-108632257D01*
X232765357Y-108502975D01*
X232752937Y-108347912D01*
X232745747Y-108143681D01*
X232763435Y-107991433D01*
X232824122Y-107883536D01*
X232945926Y-107812362D01*
X233146968Y-107770282D01*
X233445366Y-107749667D01*
X233859242Y-107742887D01*
X234191326Y-107742285D01*
X234788150Y-107736830D01*
X235258772Y-107718293D01*
X235621802Y-107683418D01*
X235895846Y-107628949D01*
X236099515Y-107551628D01*
X236251416Y-107448200D01*
X236328874Y-107368211D01*
X236439369Y-107207410D01*
X236494860Y-107027367D01*
X236511775Y-106770102D01*
X236512000Y-106721862D01*
X236501309Y-106457541D01*
X236457407Y-106279938D01*
X236362553Y-106131454D01*
X236312429Y-106073940D01*
X236194185Y-105966485D01*
X236045840Y-105881797D01*
X235850102Y-105817355D01*
X235589679Y-105770639D01*
X235247280Y-105739130D01*
X234805610Y-105720308D01*
X234247380Y-105711653D01*
X233816952Y-105710285D01*
X232302857Y-105710285D01*
X232302857Y-106290857D01*
G37*
X232302857Y-106290857D02*
X233966817Y-106290857D01*
X234513052Y-106292121D01*
X234932128Y-106296681D01*
X235242014Y-106305689D01*
X235460678Y-106320298D01*
X235606087Y-106341661D01*
X235696211Y-106370930D01*
X235744817Y-106404898D01*
X235841284Y-106593213D01*
X235846443Y-106834772D01*
X235783733Y-107021342D01*
X235747240Y-107072181D01*
X235686302Y-107109047D01*
X235579693Y-107134165D01*
X235406189Y-107149761D01*
X235144563Y-107158058D01*
X234773592Y-107161283D01*
X234444733Y-107161714D01*
X233842844Y-107166879D01*
X233367363Y-107184486D01*
X232999855Y-107217703D01*
X232721882Y-107269701D01*
X232515006Y-107343647D01*
X232360792Y-107442710D01*
X232268269Y-107535789D01*
X232167035Y-107677733D01*
X232111307Y-107831878D01*
X232088416Y-108047801D01*
X232085143Y-108252439D01*
X232106211Y-108646881D01*
X232176756Y-108929266D01*
X232307788Y-109127490D01*
X232480272Y-109253585D01*
X232568894Y-109291897D01*
X232690779Y-109322151D01*
X232863909Y-109345589D01*
X233106266Y-109363450D01*
X233435833Y-109376974D01*
X233870591Y-109387401D01*
X234428522Y-109395972D01*
X234570715Y-109397745D01*
X236439429Y-109420348D01*
X236439429Y-108903428D01*
X234788429Y-108902358D01*
X234197715Y-108900894D01*
X233735937Y-108894413D01*
X233386888Y-108878501D01*
X233134362Y-108848744D01*
X232962152Y-108800727D01*
X232854052Y-108730036D01*
X232793855Y-108632257D01*
X232765357Y-108502975D01*
X232752937Y-108347912D01*
X232745747Y-108143681D01*
X232763435Y-107991433D01*
X232824122Y-107883536D01*
X232945926Y-107812362D01*
X233146968Y-107770282D01*
X233445366Y-107749667D01*
X233859242Y-107742887D01*
X234191326Y-107742285D01*
X234788150Y-107736830D01*
X235258772Y-107718293D01*
X235621802Y-107683418D01*
X235895846Y-107628949D01*
X236099515Y-107551628D01*
X236251416Y-107448200D01*
X236328874Y-107368211D01*
X236439369Y-107207410D01*
X236494860Y-107027367D01*
X236511775Y-106770102D01*
X236512000Y-106721862D01*
X236501309Y-106457541D01*
X236457407Y-106279938D01*
X236362553Y-106131454D01*
X236312429Y-106073940D01*
X236194185Y-105966485D01*
X236045840Y-105881797D01*
X235850102Y-105817355D01*
X235589679Y-105770639D01*
X235247280Y-105739130D01*
X234805610Y-105720308D01*
X234247380Y-105711653D01*
X233816952Y-105710285D01*
X232302857Y-105710285D01*
X232302857Y-106290857D01*
G36*
X237092572Y-109411428D02*
G01*
X237890857Y-109411428D01*
X237890857Y-108758285D01*
X237092572Y-108758285D01*
X237092572Y-109411428D01*
G37*
X237092572Y-109411428D02*
X237890857Y-109411428D01*
X237890857Y-108758285D01*
X237092572Y-108758285D01*
X237092572Y-109411428D01*
G36*
X240756599Y-105753584D02*
G01*
X240631080Y-105837285D01*
X240563053Y-105929419D01*
X240427041Y-106126306D01*
X240234343Y-106411124D01*
X239996260Y-106767054D01*
X239724093Y-107177273D01*
X239429141Y-107624961D01*
X239387863Y-107687857D01*
X238257204Y-109411428D01*
X239015714Y-109411146D01*
X239946907Y-107959858D01*
X240210058Y-107552794D01*
X240448450Y-107189857D01*
X240650701Y-106887902D01*
X240805429Y-106663783D01*
X240901253Y-106534356D01*
X240926621Y-106508990D01*
X240978021Y-106567408D01*
X241096311Y-106731223D01*
X241270045Y-106983646D01*
X241487776Y-107307888D01*
X241738058Y-107687157D01*
X241916134Y-107960419D01*
X242857125Y-109411428D01*
X243625397Y-109411428D01*
X242390286Y-107560857D01*
X242039421Y-107036535D01*
X241758441Y-106621070D01*
X241537611Y-106301961D01*
X241367198Y-106066707D01*
X241237470Y-105902807D01*
X241138694Y-105797761D01*
X241061135Y-105739068D01*
X240995061Y-105714227D01*
X240949407Y-105710285D01*
X240756599Y-105753584D01*
G37*
X240756599Y-105753584D02*
X240631080Y-105837285D01*
X240563053Y-105929419D01*
X240427041Y-106126306D01*
X240234343Y-106411124D01*
X239996260Y-106767054D01*
X239724093Y-107177273D01*
X239429141Y-107624961D01*
X239387863Y-107687857D01*
X238257204Y-109411428D01*
X239015714Y-109411146D01*
X239946907Y-107959858D01*
X240210058Y-107552794D01*
X240448450Y-107189857D01*
X240650701Y-106887902D01*
X240805429Y-106663783D01*
X240901253Y-106534356D01*
X240926621Y-106508990D01*
X240978021Y-106567408D01*
X241096311Y-106731223D01*
X241270045Y-106983646D01*
X241487776Y-107307888D01*
X241738058Y-107687157D01*
X241916134Y-107960419D01*
X242857125Y-109411428D01*
X243625397Y-109411428D01*
X242390286Y-107560857D01*
X242039421Y-107036535D01*
X241758441Y-106621070D01*
X241537611Y-106301961D01*
X241367198Y-106066707D01*
X241237470Y-105902807D01*
X241138694Y-105797761D01*
X241061135Y-105739068D01*
X240995061Y-105714227D01*
X240949407Y-105710285D01*
X240756599Y-105753584D01*
G36*
X243986857Y-109411428D02*
G01*
X244785143Y-109411428D01*
X244785143Y-108758285D01*
X243986857Y-108758285D01*
X243986857Y-109411428D01*
G37*
X243986857Y-109411428D02*
X244785143Y-109411428D01*
X244785143Y-108758285D01*
X243986857Y-108758285D01*
X243986857Y-109411428D01*
G36*
X245293143Y-106290857D02*
G01*
X246917114Y-106290857D01*
X247467467Y-106292574D01*
X247889053Y-106298368D01*
X248198212Y-106309200D01*
X248411288Y-106326032D01*
X248544621Y-106349826D01*
X248614553Y-106381542D01*
X248624478Y-106391339D01*
X248660764Y-106505983D01*
X248683104Y-106749090D01*
X248691784Y-107126141D01*
X248687793Y-107604862D01*
X248679494Y-108028541D01*
X248669779Y-108330271D01*
X248654771Y-108533226D01*
X248630594Y-108660577D01*
X248593372Y-108735498D01*
X248539229Y-108781163D01*
X248486286Y-108809596D01*
X248359746Y-108844855D01*
X248130855Y-108871158D01*
X247788626Y-108889108D01*
X247322073Y-108899310D01*
X246799000Y-108902358D01*
X245293143Y-108903428D01*
X245293143Y-109411428D01*
X246944143Y-109409834D01*
X247487967Y-109408149D01*
X247907669Y-109403281D01*
X248224261Y-109393736D01*
X248458754Y-109378017D01*
X248632161Y-109354632D01*
X248765492Y-109322084D01*
X248879760Y-109278880D01*
X248897716Y-109270861D01*
X249065351Y-109186977D01*
X249190308Y-109094472D01*
X249278825Y-108971834D01*
X249337136Y-108797552D01*
X249371479Y-108550113D01*
X249388088Y-108208007D01*
X249393201Y-107749720D01*
X249393429Y-107560857D01*
X249393049Y-107069450D01*
X249382172Y-106676583D01*
X249346186Y-106370961D01*
X249270484Y-106141289D01*
X249140455Y-105976271D01*
X248941491Y-105864614D01*
X248658981Y-105795021D01*
X248278317Y-105756198D01*
X247784889Y-105736850D01*
X247164088Y-105725681D01*
X247016714Y-105723326D01*
X245293143Y-105695190D01*
X245293143Y-106290857D01*
G37*
X245293143Y-106290857D02*
X246917114Y-106290857D01*
X247467467Y-106292574D01*
X247889053Y-106298368D01*
X248198212Y-106309200D01*
X248411288Y-106326032D01*
X248544621Y-106349826D01*
X248614553Y-106381542D01*
X248624478Y-106391339D01*
X248660764Y-106505983D01*
X248683104Y-106749090D01*
X248691784Y-107126141D01*
X248687793Y-107604862D01*
X248679494Y-108028541D01*
X248669779Y-108330271D01*
X248654771Y-108533226D01*
X248630594Y-108660577D01*
X248593372Y-108735498D01*
X248539229Y-108781163D01*
X248486286Y-108809596D01*
X248359746Y-108844855D01*
X248130855Y-108871158D01*
X247788626Y-108889108D01*
X247322073Y-108899310D01*
X246799000Y-108902358D01*
X245293143Y-108903428D01*
X245293143Y-109411428D01*
X246944143Y-109409834D01*
X247487967Y-109408149D01*
X247907669Y-109403281D01*
X248224261Y-109393736D01*
X248458754Y-109378017D01*
X248632161Y-109354632D01*
X248765492Y-109322084D01*
X248879760Y-109278880D01*
X248897716Y-109270861D01*
X249065351Y-109186977D01*
X249190308Y-109094472D01*
X249278825Y-108971834D01*
X249337136Y-108797552D01*
X249371479Y-108550113D01*
X249388088Y-108208007D01*
X249393201Y-107749720D01*
X249393429Y-107560857D01*
X249393049Y-107069450D01*
X249382172Y-106676583D01*
X249346186Y-106370961D01*
X249270484Y-106141289D01*
X249140455Y-105976271D01*
X248941491Y-105864614D01*
X248658981Y-105795021D01*
X248278317Y-105756198D01*
X247784889Y-105736850D01*
X247164088Y-105725681D01*
X247016714Y-105723326D01*
X245293143Y-105695190D01*
X245293143Y-106290857D01*
G36*
X195472848Y-111270020D02*
G01*
X194662583Y-111624200D01*
X193928855Y-112173581D01*
X193328460Y-112862207D01*
X192918196Y-113634120D01*
X192844621Y-113859369D01*
X192766344Y-114309373D01*
X192737278Y-114862226D01*
X192753526Y-115437447D01*
X192811191Y-115954554D01*
X192906376Y-116333064D01*
X192970022Y-116449143D01*
X193104571Y-116549642D01*
X193340615Y-116614093D01*
X193727515Y-116649327D01*
X194314637Y-116662177D01*
X194513005Y-116662695D01*
X195878756Y-116662695D01*
X195878756Y-111153607D01*
X195472848Y-111270020D01*
G37*
X195472848Y-111270020D02*
X194662583Y-111624200D01*
X193928855Y-112173581D01*
X193328460Y-112862207D01*
X192918196Y-113634120D01*
X192844621Y-113859369D01*
X192766344Y-114309373D01*
X192737278Y-114862226D01*
X192753526Y-115437447D01*
X192811191Y-115954554D01*
X192906376Y-116333064D01*
X192970022Y-116449143D01*
X193104571Y-116549642D01*
X193340615Y-116614093D01*
X193727515Y-116649327D01*
X194314637Y-116662177D01*
X194513005Y-116662695D01*
X195878756Y-116662695D01*
X195878756Y-111153607D01*
X195472848Y-111270020D01*
G36*
X181665285Y-137588083D02*
G01*
X211803108Y-137588083D01*
X211803108Y-119728262D01*
X208334171Y-119728262D01*
X208267367Y-120060480D01*
X208135058Y-120378512D01*
X207902276Y-120754270D01*
X207565523Y-121084208D01*
X207056434Y-121433981D01*
X206999969Y-121468590D01*
X206626759Y-121701479D01*
X206360645Y-121904677D01*
X206174820Y-122130578D01*
X206042478Y-122431577D01*
X205936812Y-122860067D01*
X205831017Y-123468443D01*
X205765896Y-123880657D01*
X205546893Y-124883336D01*
X205222527Y-125693253D01*
X204764983Y-126369175D01*
X204415014Y-126734809D01*
X203797364Y-127230813D01*
X203091405Y-127630316D01*
X202255988Y-127948350D01*
X201249964Y-128199951D01*
X200032185Y-128400152D01*
X199761140Y-128435156D01*
X198576684Y-128582373D01*
X198540940Y-131111135D01*
X198505197Y-133639897D01*
X197458031Y-133639897D01*
X197458031Y-127623776D01*
X198675388Y-127532645D01*
X200215864Y-127358899D01*
X201515576Y-127085735D01*
X202577936Y-126712018D01*
X203406356Y-126236611D01*
X203891233Y-125795704D01*
X204189756Y-125410128D01*
X204419988Y-124986629D01*
X204602113Y-124468327D01*
X204756313Y-123798342D01*
X204896255Y-122963333D01*
X205028812Y-122238026D01*
X205195596Y-121713612D01*
X205431869Y-121327774D01*
X205772894Y-121018193D01*
X206122409Y-120796384D01*
X206770975Y-120379790D01*
X207174143Y-120017448D01*
X207327139Y-119713753D01*
X207328497Y-119685944D01*
X207274142Y-119487740D01*
X207125748Y-119106308D01*
X206905319Y-118594669D01*
X206634863Y-118005846D01*
X206605462Y-117943811D01*
X206253692Y-117173387D01*
X205983024Y-116491836D01*
X205779123Y-115837525D01*
X205627659Y-115148818D01*
X205514299Y-114364085D01*
X205424711Y-113421689D01*
X205367474Y-112619996D01*
X205258723Y-111264494D01*
X205117397Y-110132758D01*
X204930390Y-109186063D01*
X204684596Y-108385685D01*
X204366910Y-107692899D01*
X203964226Y-107068979D01*
X203463437Y-106475200D01*
X203194609Y-106199630D01*
X202182201Y-105366350D01*
X201020114Y-104696077D01*
X199768439Y-104213995D01*
X198487267Y-103945288D01*
X197700191Y-103896892D01*
X196931606Y-103896892D01*
X196931606Y-117583938D01*
X187324352Y-117583938D01*
X187324352Y-133639897D01*
X186271502Y-133639897D01*
X186271502Y-116662695D01*
X187095138Y-116662695D01*
X187007741Y-115890207D01*
X186920344Y-115117720D01*
X187681674Y-114816237D01*
X188270708Y-114558158D01*
X188643627Y-114323158D01*
X188840965Y-114075909D01*
X188903259Y-113781080D01*
X188903627Y-113751224D01*
X188857015Y-113507397D01*
X188687545Y-113264564D01*
X188350762Y-112966431D01*
X188179792Y-112834566D01*
X187815870Y-112530253D01*
X187556660Y-112257068D01*
X187458094Y-112073989D01*
X187458097Y-112073567D01*
X187515304Y-111861322D01*
X187665510Y-111486181D01*
X187879807Y-111018526D01*
X187951621Y-110872021D01*
X188175437Y-110420423D01*
X188348457Y-110131530D01*
X188533237Y-109976743D01*
X188792333Y-109927460D01*
X189188301Y-109955081D01*
X189783698Y-110031005D01*
X189789506Y-110031740D01*
X190334265Y-110053979D01*
X190685170Y-109944721D01*
X190852088Y-109684401D01*
X190844888Y-109253453D01*
X190673439Y-108632311D01*
X190599168Y-108426517D01*
X190320616Y-107682019D01*
X190697872Y-107378695D01*
X191023845Y-107139394D01*
X191461669Y-106846014D01*
X191768012Y-106653341D01*
X192460895Y-106231311D01*
X193174901Y-106906589D01*
X193712305Y-107348850D01*
X194146084Y-107551151D01*
X194487812Y-107509479D01*
X194749059Y-107219821D01*
X194941398Y-106678164D01*
X195022912Y-106265804D01*
X195142928Y-105750920D01*
X195313322Y-105458339D01*
X195560398Y-105348252D01*
X195631658Y-105344560D01*
X195746089Y-105321940D01*
X195818652Y-105222032D01*
X195858705Y-104996769D01*
X195875605Y-104598081D01*
X195878756Y-104075154D01*
X195878756Y-102805748D01*
X197490932Y-102884678D01*
X198208422Y-102934556D01*
X198915805Y-103009167D01*
X199523965Y-103097739D01*
X199892746Y-103174995D01*
X200949966Y-103541573D01*
X202022993Y-104061535D01*
X203012712Y-104681401D01*
X203688925Y-105223360D01*
X204346889Y-105879490D01*
X204888614Y-106551452D01*
X205326960Y-107274859D01*
X205674782Y-108085326D01*
X205944939Y-109018466D01*
X206150287Y-110109895D01*
X206303683Y-111395226D01*
X206408540Y-112756681D01*
X206480469Y-113757013D01*
X206566299Y-114560863D01*
X206682337Y-115234951D01*
X206844894Y-115845997D01*
X207070276Y-116460720D01*
X207374794Y-117145839D01*
X207591608Y-117596657D01*
X207948068Y-118349029D01*
X208184198Y-118922067D01*
X208309674Y-119365302D01*
X208334171Y-119728262D01*
X211803108Y-119728262D01*
X211803108Y-100211918D01*
X181665285Y-100211918D01*
X181665285Y-137588083D01*
G37*
X181665285Y-137588083D02*
X211803108Y-137588083D01*
X211803108Y-119728262D01*
X208334171Y-119728262D01*
X208267367Y-120060480D01*
X208135058Y-120378512D01*
X207902276Y-120754270D01*
X207565523Y-121084208D01*
X207056434Y-121433981D01*
X206999969Y-121468590D01*
X206626759Y-121701479D01*
X206360645Y-121904677D01*
X206174820Y-122130578D01*
X206042478Y-122431577D01*
X205936812Y-122860067D01*
X205831017Y-123468443D01*
X205765896Y-123880657D01*
X205546893Y-124883336D01*
X205222527Y-125693253D01*
X204764983Y-126369175D01*
X204415014Y-126734809D01*
X203797364Y-127230813D01*
X203091405Y-127630316D01*
X202255988Y-127948350D01*
X201249964Y-128199951D01*
X200032185Y-128400152D01*
X199761140Y-128435156D01*
X198576684Y-128582373D01*
X198540940Y-131111135D01*
X198505197Y-133639897D01*
X197458031Y-133639897D01*
X197458031Y-127623776D01*
X198675388Y-127532645D01*
X200215864Y-127358899D01*
X201515576Y-127085735D01*
X202577936Y-126712018D01*
X203406356Y-126236611D01*
X203891233Y-125795704D01*
X204189756Y-125410128D01*
X204419988Y-124986629D01*
X204602113Y-124468327D01*
X204756313Y-123798342D01*
X204896255Y-122963333D01*
X205028812Y-122238026D01*
X205195596Y-121713612D01*
X205431869Y-121327774D01*
X205772894Y-121018193D01*
X206122409Y-120796384D01*
X206770975Y-120379790D01*
X207174143Y-120017448D01*
X207327139Y-119713753D01*
X207328497Y-119685944D01*
X207274142Y-119487740D01*
X207125748Y-119106308D01*
X206905319Y-118594669D01*
X206634863Y-118005846D01*
X206605462Y-117943811D01*
X206253692Y-117173387D01*
X205983024Y-116491836D01*
X205779123Y-115837525D01*
X205627659Y-115148818D01*
X205514299Y-114364085D01*
X205424711Y-113421689D01*
X205367474Y-112619996D01*
X205258723Y-111264494D01*
X205117397Y-110132758D01*
X204930390Y-109186063D01*
X204684596Y-108385685D01*
X204366910Y-107692899D01*
X203964226Y-107068979D01*
X203463437Y-106475200D01*
X203194609Y-106199630D01*
X202182201Y-105366350D01*
X201020114Y-104696077D01*
X199768439Y-104213995D01*
X198487267Y-103945288D01*
X197700191Y-103896892D01*
X196931606Y-103896892D01*
X196931606Y-117583938D01*
X187324352Y-117583938D01*
X187324352Y-133639897D01*
X186271502Y-133639897D01*
X186271502Y-116662695D01*
X187095138Y-116662695D01*
X187007741Y-115890207D01*
X186920344Y-115117720D01*
X187681674Y-114816237D01*
X188270708Y-114558158D01*
X188643627Y-114323158D01*
X188840965Y-114075909D01*
X188903259Y-113781080D01*
X188903627Y-113751224D01*
X188857015Y-113507397D01*
X188687545Y-113264564D01*
X188350762Y-112966431D01*
X188179792Y-112834566D01*
X187815870Y-112530253D01*
X187556660Y-112257068D01*
X187458094Y-112073989D01*
X187458097Y-112073567D01*
X187515304Y-111861322D01*
X187665510Y-111486181D01*
X187879807Y-111018526D01*
X187951621Y-110872021D01*
X188175437Y-110420423D01*
X188348457Y-110131530D01*
X188533237Y-109976743D01*
X188792333Y-109927460D01*
X189188301Y-109955081D01*
X189783698Y-110031005D01*
X189789506Y-110031740D01*
X190334265Y-110053979D01*
X190685170Y-109944721D01*
X190852088Y-109684401D01*
X190844888Y-109253453D01*
X190673439Y-108632311D01*
X190599168Y-108426517D01*
X190320616Y-107682019D01*
X190697872Y-107378695D01*
X191023845Y-107139394D01*
X191461669Y-106846014D01*
X191768012Y-106653341D01*
X192460895Y-106231311D01*
X193174901Y-106906589D01*
X193712305Y-107348850D01*
X194146084Y-107551151D01*
X194487812Y-107509479D01*
X194749059Y-107219821D01*
X194941398Y-106678164D01*
X195022912Y-106265804D01*
X195142928Y-105750920D01*
X195313322Y-105458339D01*
X195560398Y-105348252D01*
X195631658Y-105344560D01*
X195746089Y-105321940D01*
X195818652Y-105222032D01*
X195858705Y-104996769D01*
X195875605Y-104598081D01*
X195878756Y-104075154D01*
X195878756Y-102805748D01*
X197490932Y-102884678D01*
X198208422Y-102934556D01*
X198915805Y-103009167D01*
X199523965Y-103097739D01*
X199892746Y-103174995D01*
X200949966Y-103541573D01*
X202022993Y-104061535D01*
X203012712Y-104681401D01*
X203688925Y-105223360D01*
X204346889Y-105879490D01*
X204888614Y-106551452D01*
X205326960Y-107274859D01*
X205674782Y-108085326D01*
X205944939Y-109018466D01*
X206150287Y-110109895D01*
X206303683Y-111395226D01*
X206408540Y-112756681D01*
X206480469Y-113757013D01*
X206566299Y-114560863D01*
X206682337Y-115234951D01*
X206844894Y-115845997D01*
X207070276Y-116460720D01*
X207374794Y-117145839D01*
X207591608Y-117596657D01*
X207948068Y-118349029D01*
X208184198Y-118922067D01*
X208309674Y-119365302D01*
X208334171Y-119728262D01*
X211803108Y-119728262D01*
X211803108Y-100211918D01*
X181665285Y-100211918D01*
X181665285Y-137588083D01*
D12*
G36*
X220208710Y-125945070D02*
G01*
X220900447Y-126231597D01*
X220900448Y-126231598D01*
X221522996Y-126647571D01*
X222052429Y-127177004D01*
X222267993Y-127499619D01*
X222468403Y-127799553D01*
X222754930Y-128491290D01*
X222901000Y-129225633D01*
X222901000Y-129974367D01*
X222754930Y-130708710D01*
X222468403Y-131400447D01*
X222468402Y-131400448D01*
X222052429Y-132022996D01*
X221522996Y-132552429D01*
X221263728Y-132725666D01*
X220900447Y-132968403D01*
X220208710Y-133254930D01*
X219474367Y-133401000D01*
X218725633Y-133401000D01*
X217991290Y-133254930D01*
X217299553Y-132968403D01*
X216936272Y-132725666D01*
X216677004Y-132552429D01*
X216147571Y-132022996D01*
X215731598Y-131400448D01*
X215731597Y-131400447D01*
X215445070Y-130708710D01*
X215299000Y-129974367D01*
X215299000Y-129225633D01*
X215445070Y-128491290D01*
X215731597Y-127799553D01*
X215932007Y-127499619D01*
X216147571Y-127177004D01*
X216677004Y-126647571D01*
X217299552Y-126231598D01*
X217299553Y-126231597D01*
X217991290Y-125945070D01*
X218725633Y-125799000D01*
X219474367Y-125799000D01*
X220208710Y-125945070D01*
G37*
G36*
X176270997Y-131610341D02*
G01*
X176355666Y-131627183D01*
X176421738Y-131654551D01*
X176515177Y-131693255D01*
X176658736Y-131789178D01*
X176780822Y-131911264D01*
X176876745Y-132054823D01*
X176942817Y-132214335D01*
X176976500Y-132383671D01*
X176976500Y-132556329D01*
X176942817Y-132725665D01*
X176876745Y-132885177D01*
X176780822Y-133028736D01*
X176658736Y-133150822D01*
X176515177Y-133246745D01*
X176421738Y-133285449D01*
X176355666Y-133312817D01*
X176270997Y-133329659D01*
X176186329Y-133346500D01*
X176013671Y-133346500D01*
X175929003Y-133329659D01*
X175844334Y-133312817D01*
X175778262Y-133285449D01*
X175684823Y-133246745D01*
X175541264Y-133150822D01*
X175419178Y-133028736D01*
X175323255Y-132885177D01*
X175257183Y-132725665D01*
X175223500Y-132556329D01*
X175223500Y-132383671D01*
X175257183Y-132214335D01*
X175323255Y-132054823D01*
X175419178Y-131911264D01*
X175541264Y-131789178D01*
X175684823Y-131693255D01*
X175778262Y-131654551D01*
X175844334Y-131627183D01*
X175929003Y-131610341D01*
X176013671Y-131593500D01*
X176186329Y-131593500D01*
X176270997Y-131610341D01*
G37*
G36*
X108196115Y-110500380D02*
G01*
X108530800Y-110601906D01*
X108865483Y-110703431D01*
X108865485Y-110703432D01*
X109482370Y-111033163D01*
X109482373Y-111033165D01*
X109482374Y-111033166D01*
X110023085Y-111476915D01*
X110023087Y-111476918D01*
X110466835Y-112017625D01*
X110796568Y-112634514D01*
X110796569Y-112634516D01*
X110839444Y-112775857D01*
X110999620Y-113303884D01*
X111051000Y-113825556D01*
X111051000Y-124174444D01*
X110999620Y-124696116D01*
X110796568Y-125365486D01*
X110466835Y-125982375D01*
X110023085Y-126523085D01*
X109482375Y-126966835D01*
X109089173Y-127177005D01*
X108865484Y-127296569D01*
X108530801Y-127398094D01*
X108196116Y-127499620D01*
X107500000Y-127568181D01*
X106803885Y-127499620D01*
X106469200Y-127398094D01*
X106134517Y-127296569D01*
X105910828Y-127177005D01*
X105517626Y-126966835D01*
X104976916Y-126523085D01*
X104533166Y-125982375D01*
X104203433Y-125365486D01*
X104000381Y-124696116D01*
X103949001Y-124174444D01*
X103949000Y-113825557D01*
X104000380Y-113303885D01*
X104203432Y-112634515D01*
X104533163Y-112017630D01*
X104564133Y-111979893D01*
X104976915Y-111476915D01*
X105147793Y-111336679D01*
X105517625Y-111033165D01*
X106134514Y-110703432D01*
X106134516Y-110703431D01*
X106469199Y-110601906D01*
X106803884Y-110500380D01*
X107500000Y-110431819D01*
X108196115Y-110500380D01*
G37*
G36*
X127551000Y-125801000D02*
G01*
X117649000Y-125801000D01*
X117649000Y-124199000D01*
X127551000Y-124199000D01*
X127551000Y-125801000D01*
G37*
G36*
X176976500Y-125726500D02*
G01*
X175223500Y-125726500D01*
X175223500Y-123973500D01*
X176976500Y-123973500D01*
X176976500Y-125726500D01*
G37*
G36*
X136020295Y-123250323D02*
G01*
X136027309Y-123252451D01*
X136041077Y-123259810D01*
X136063716Y-123269187D01*
X136087749Y-123273967D01*
X136112253Y-123273967D01*
X136136286Y-123269186D01*
X136158923Y-123259810D01*
X136172691Y-123252451D01*
X136179705Y-123250323D01*
X136193140Y-123249000D01*
X136506860Y-123249000D01*
X136520295Y-123250323D01*
X136527309Y-123252451D01*
X136541077Y-123259810D01*
X136563716Y-123269187D01*
X136587749Y-123273967D01*
X136612253Y-123273967D01*
X136636286Y-123269186D01*
X136658923Y-123259810D01*
X136672691Y-123252451D01*
X136679705Y-123250323D01*
X136693140Y-123249000D01*
X137006860Y-123249000D01*
X137020295Y-123250323D01*
X137027309Y-123252451D01*
X137041077Y-123259810D01*
X137063716Y-123269187D01*
X137087749Y-123273967D01*
X137112253Y-123273967D01*
X137136286Y-123269186D01*
X137158923Y-123259810D01*
X137172691Y-123252451D01*
X137179705Y-123250323D01*
X137193140Y-123249000D01*
X137506860Y-123249000D01*
X137520295Y-123250323D01*
X137527309Y-123252451D01*
X137541077Y-123259810D01*
X137563716Y-123269187D01*
X137587749Y-123273967D01*
X137612253Y-123273967D01*
X137636286Y-123269186D01*
X137658923Y-123259810D01*
X137672691Y-123252451D01*
X137679705Y-123250323D01*
X137693140Y-123249000D01*
X138006860Y-123249000D01*
X138020295Y-123250323D01*
X138027309Y-123252451D01*
X138041077Y-123259810D01*
X138063716Y-123269187D01*
X138087749Y-123273967D01*
X138112253Y-123273967D01*
X138136286Y-123269186D01*
X138158923Y-123259810D01*
X138172691Y-123252451D01*
X138179705Y-123250323D01*
X138193140Y-123249000D01*
X138506860Y-123249000D01*
X138520295Y-123250323D01*
X138527309Y-123252451D01*
X138541077Y-123259810D01*
X138563716Y-123269187D01*
X138587749Y-123273967D01*
X138612253Y-123273967D01*
X138636286Y-123269186D01*
X138658923Y-123259810D01*
X138672691Y-123252451D01*
X138679705Y-123250323D01*
X138693140Y-123249000D01*
X139006860Y-123249000D01*
X139020295Y-123250323D01*
X139027309Y-123252451D01*
X139041077Y-123259810D01*
X139063716Y-123269187D01*
X139087749Y-123273967D01*
X139112253Y-123273967D01*
X139136286Y-123269186D01*
X139158923Y-123259810D01*
X139172691Y-123252451D01*
X139179705Y-123250323D01*
X139193140Y-123249000D01*
X139506860Y-123249000D01*
X139520295Y-123250323D01*
X139527309Y-123252451D01*
X139541077Y-123259810D01*
X139563716Y-123269187D01*
X139587749Y-123273967D01*
X139612253Y-123273967D01*
X139636286Y-123269186D01*
X139658923Y-123259810D01*
X139672691Y-123252451D01*
X139679705Y-123250323D01*
X139693140Y-123249000D01*
X140006860Y-123249000D01*
X140020295Y-123250323D01*
X140027309Y-123252451D01*
X140041077Y-123259810D01*
X140063716Y-123269187D01*
X140087749Y-123273967D01*
X140112253Y-123273967D01*
X140136286Y-123269186D01*
X140158923Y-123259810D01*
X140172691Y-123252451D01*
X140179705Y-123250323D01*
X140193140Y-123249000D01*
X140506860Y-123249000D01*
X140520295Y-123250323D01*
X140527309Y-123252451D01*
X140541077Y-123259810D01*
X140563716Y-123269187D01*
X140587749Y-123273967D01*
X140612253Y-123273967D01*
X140636286Y-123269186D01*
X140658923Y-123259810D01*
X140672691Y-123252451D01*
X140679705Y-123250323D01*
X140693140Y-123249000D01*
X141006860Y-123249000D01*
X141020295Y-123250323D01*
X141027309Y-123252451D01*
X141041077Y-123259810D01*
X141063716Y-123269187D01*
X141087749Y-123273967D01*
X141112253Y-123273967D01*
X141136286Y-123269186D01*
X141158923Y-123259810D01*
X141172691Y-123252451D01*
X141179705Y-123250323D01*
X141193140Y-123249000D01*
X141506860Y-123249000D01*
X141520295Y-123250323D01*
X141527309Y-123252451D01*
X141541077Y-123259810D01*
X141563716Y-123269187D01*
X141587749Y-123273967D01*
X141612253Y-123273967D01*
X141636286Y-123269186D01*
X141658923Y-123259810D01*
X141672691Y-123252451D01*
X141679705Y-123250323D01*
X141693140Y-123249000D01*
X142006860Y-123249000D01*
X142020295Y-123250323D01*
X142027309Y-123252451D01*
X142041077Y-123259810D01*
X142063716Y-123269187D01*
X142087749Y-123273967D01*
X142112253Y-123273967D01*
X142136286Y-123269186D01*
X142158923Y-123259810D01*
X142172691Y-123252451D01*
X142179705Y-123250323D01*
X142193140Y-123249000D01*
X142506860Y-123249000D01*
X142520295Y-123250323D01*
X142527309Y-123252451D01*
X142541077Y-123259810D01*
X142563716Y-123269187D01*
X142587749Y-123273967D01*
X142612253Y-123273967D01*
X142636286Y-123269186D01*
X142658923Y-123259810D01*
X142672691Y-123252451D01*
X142679705Y-123250323D01*
X142693140Y-123249000D01*
X143006860Y-123249000D01*
X143020295Y-123250323D01*
X143027309Y-123252451D01*
X143041077Y-123259810D01*
X143063716Y-123269187D01*
X143087749Y-123273967D01*
X143112253Y-123273967D01*
X143136286Y-123269186D01*
X143158923Y-123259810D01*
X143172691Y-123252451D01*
X143179705Y-123250323D01*
X143193140Y-123249000D01*
X143506860Y-123249000D01*
X143520295Y-123250323D01*
X143527310Y-123252451D01*
X143533776Y-123255908D01*
X143539442Y-123260558D01*
X143544092Y-123266224D01*
X143547549Y-123272690D01*
X143549677Y-123279705D01*
X143551000Y-123293140D01*
X143551000Y-124856860D01*
X143549677Y-124870295D01*
X143547549Y-124877310D01*
X143544092Y-124883776D01*
X143539442Y-124889442D01*
X143533776Y-124894092D01*
X143527310Y-124897549D01*
X143520295Y-124899677D01*
X143506860Y-124901000D01*
X143193140Y-124901000D01*
X143179705Y-124899677D01*
X143172691Y-124897549D01*
X143158923Y-124890190D01*
X143136284Y-124880813D01*
X143112251Y-124876033D01*
X143087747Y-124876033D01*
X143063714Y-124880814D01*
X143041077Y-124890190D01*
X143027309Y-124897549D01*
X143020295Y-124899677D01*
X143006860Y-124901000D01*
X142693140Y-124901000D01*
X142679705Y-124899677D01*
X142672691Y-124897549D01*
X142658923Y-124890190D01*
X142636284Y-124880813D01*
X142612251Y-124876033D01*
X142587747Y-124876033D01*
X142563714Y-124880814D01*
X142541077Y-124890190D01*
X142527309Y-124897549D01*
X142520295Y-124899677D01*
X142506860Y-124901000D01*
X142193140Y-124901000D01*
X142179705Y-124899677D01*
X142172691Y-124897549D01*
X142158923Y-124890190D01*
X142136284Y-124880813D01*
X142112251Y-124876033D01*
X142087747Y-124876033D01*
X142063714Y-124880814D01*
X142041077Y-124890190D01*
X142027309Y-124897549D01*
X142020295Y-124899677D01*
X142006860Y-124901000D01*
X141693140Y-124901000D01*
X141679705Y-124899677D01*
X141672691Y-124897549D01*
X141658923Y-124890190D01*
X141636284Y-124880813D01*
X141612251Y-124876033D01*
X141587747Y-124876033D01*
X141563714Y-124880814D01*
X141541077Y-124890190D01*
X141527309Y-124897549D01*
X141520295Y-124899677D01*
X141506860Y-124901000D01*
X141193140Y-124901000D01*
X141179705Y-124899677D01*
X141172691Y-124897549D01*
X141158923Y-124890190D01*
X141136284Y-124880813D01*
X141112251Y-124876033D01*
X141087747Y-124876033D01*
X141063714Y-124880814D01*
X141041077Y-124890190D01*
X141027309Y-124897549D01*
X141020295Y-124899677D01*
X141006860Y-124901000D01*
X140693140Y-124901000D01*
X140679705Y-124899677D01*
X140672691Y-124897549D01*
X140658923Y-124890190D01*
X140636284Y-124880813D01*
X140612251Y-124876033D01*
X140587747Y-124876033D01*
X140563714Y-124880814D01*
X140541077Y-124890190D01*
X140527309Y-124897549D01*
X140520295Y-124899677D01*
X140506860Y-124901000D01*
X140193140Y-124901000D01*
X140179705Y-124899677D01*
X140172691Y-124897549D01*
X140158923Y-124890190D01*
X140136284Y-124880813D01*
X140112251Y-124876033D01*
X140087747Y-124876033D01*
X140063714Y-124880814D01*
X140041077Y-124890190D01*
X140027309Y-124897549D01*
X140020295Y-124899677D01*
X140006860Y-124901000D01*
X139693140Y-124901000D01*
X139679705Y-124899677D01*
X139672691Y-124897549D01*
X139658923Y-124890190D01*
X139636284Y-124880813D01*
X139612251Y-124876033D01*
X139587747Y-124876033D01*
X139563714Y-124880814D01*
X139541077Y-124890190D01*
X139527309Y-124897549D01*
X139520295Y-124899677D01*
X139506860Y-124901000D01*
X139193140Y-124901000D01*
X139179705Y-124899677D01*
X139172691Y-124897549D01*
X139158923Y-124890190D01*
X139136284Y-124880813D01*
X139112251Y-124876033D01*
X139087747Y-124876033D01*
X139063714Y-124880814D01*
X139041077Y-124890190D01*
X139027309Y-124897549D01*
X139020295Y-124899677D01*
X139006860Y-124901000D01*
X138693140Y-124901000D01*
X138679705Y-124899677D01*
X138672691Y-124897549D01*
X138658923Y-124890190D01*
X138636284Y-124880813D01*
X138612251Y-124876033D01*
X138587747Y-124876033D01*
X138563714Y-124880814D01*
X138541077Y-124890190D01*
X138527309Y-124897549D01*
X138520295Y-124899677D01*
X138506860Y-124901000D01*
X138193140Y-124901000D01*
X138179705Y-124899677D01*
X138172691Y-124897549D01*
X138158923Y-124890190D01*
X138136284Y-124880813D01*
X138112251Y-124876033D01*
X138087747Y-124876033D01*
X138063714Y-124880814D01*
X138041077Y-124890190D01*
X138027309Y-124897549D01*
X138020295Y-124899677D01*
X138006860Y-124901000D01*
X137693140Y-124901000D01*
X137679705Y-124899677D01*
X137672691Y-124897549D01*
X137658923Y-124890190D01*
X137636284Y-124880813D01*
X137612251Y-124876033D01*
X137587747Y-124876033D01*
X137563714Y-124880814D01*
X137541077Y-124890190D01*
X137527309Y-124897549D01*
X137520295Y-124899677D01*
X137506860Y-124901000D01*
X137193140Y-124901000D01*
X137179705Y-124899677D01*
X137172691Y-124897549D01*
X137158923Y-124890190D01*
X137136284Y-124880813D01*
X137112251Y-124876033D01*
X137087747Y-124876033D01*
X137063714Y-124880814D01*
X137041077Y-124890190D01*
X137027309Y-124897549D01*
X137020295Y-124899677D01*
X137006860Y-124901000D01*
X136693140Y-124901000D01*
X136679705Y-124899677D01*
X136672691Y-124897549D01*
X136658923Y-124890190D01*
X136636284Y-124880813D01*
X136612251Y-124876033D01*
X136587747Y-124876033D01*
X136563714Y-124880814D01*
X136541077Y-124890190D01*
X136527309Y-124897549D01*
X136520295Y-124899677D01*
X136506860Y-124901000D01*
X136193140Y-124901000D01*
X136179705Y-124899677D01*
X136172691Y-124897549D01*
X136158923Y-124890190D01*
X136136284Y-124880813D01*
X136112251Y-124876033D01*
X136087747Y-124876033D01*
X136063714Y-124880814D01*
X136041077Y-124890190D01*
X136027309Y-124897549D01*
X136020295Y-124899677D01*
X136006860Y-124901000D01*
X135693140Y-124901000D01*
X135679705Y-124899677D01*
X135672690Y-124897549D01*
X135666224Y-124894092D01*
X135660558Y-124889442D01*
X135655908Y-124883776D01*
X135652451Y-124877310D01*
X135650323Y-124870295D01*
X135649000Y-124856860D01*
X135649000Y-123293140D01*
X135650323Y-123279705D01*
X135652451Y-123272690D01*
X135655908Y-123266224D01*
X135660558Y-123260558D01*
X135666224Y-123255908D01*
X135672690Y-123252451D01*
X135679705Y-123250323D01*
X135693140Y-123249000D01*
X136006860Y-123249000D01*
X136020295Y-123250323D01*
G37*
G36*
X219605346Y-118093665D02*
G01*
X219931606Y-118158562D01*
X220450455Y-118373476D01*
X220779990Y-118593665D01*
X220917406Y-118685483D01*
X221314517Y-119082594D01*
X221321914Y-119093665D01*
X221626524Y-119549545D01*
X221841438Y-120068394D01*
X221858993Y-120156650D01*
X221951000Y-120619200D01*
X221951000Y-121180800D01*
X221904961Y-121412253D01*
X221841438Y-121731606D01*
X221626524Y-122250455D01*
X221314516Y-122717407D01*
X220917407Y-123114516D01*
X220450455Y-123426524D01*
X219931606Y-123641438D01*
X219656202Y-123696219D01*
X219380800Y-123751000D01*
X218819200Y-123751000D01*
X218543798Y-123696219D01*
X218268394Y-123641438D01*
X217749545Y-123426524D01*
X217282593Y-123114516D01*
X216885484Y-122717407D01*
X216573476Y-122250455D01*
X216358562Y-121731606D01*
X216295039Y-121412253D01*
X216249000Y-121180800D01*
X216249000Y-120619200D01*
X216341007Y-120156650D01*
X216358562Y-120068394D01*
X216573476Y-119549545D01*
X216878086Y-119093665D01*
X216885483Y-119082594D01*
X217282594Y-118685483D01*
X217420010Y-118593665D01*
X217749545Y-118373476D01*
X218268394Y-118158562D01*
X218594654Y-118093665D01*
X218819200Y-118049000D01*
X219380800Y-118049000D01*
X219605346Y-118093665D01*
G37*
G36*
X151420295Y-121875323D02*
G01*
X151427309Y-121877451D01*
X151441077Y-121884810D01*
X151463716Y-121894187D01*
X151487749Y-121898967D01*
X151512253Y-121898967D01*
X151536286Y-121894186D01*
X151558923Y-121884810D01*
X151572691Y-121877451D01*
X151579705Y-121875323D01*
X151593140Y-121874000D01*
X151906860Y-121874000D01*
X151920295Y-121875323D01*
X151927309Y-121877451D01*
X151941077Y-121884810D01*
X151963716Y-121894187D01*
X151987749Y-121898967D01*
X152012253Y-121898967D01*
X152036286Y-121894186D01*
X152058923Y-121884810D01*
X152072691Y-121877451D01*
X152079705Y-121875323D01*
X152093140Y-121874000D01*
X152406860Y-121874000D01*
X152420295Y-121875323D01*
X152427309Y-121877451D01*
X152441077Y-121884810D01*
X152463716Y-121894187D01*
X152487749Y-121898967D01*
X152512253Y-121898967D01*
X152536286Y-121894186D01*
X152558923Y-121884810D01*
X152572691Y-121877451D01*
X152579705Y-121875323D01*
X152593140Y-121874000D01*
X152906860Y-121874000D01*
X152920295Y-121875323D01*
X152927309Y-121877451D01*
X152941077Y-121884810D01*
X152963716Y-121894187D01*
X152987749Y-121898967D01*
X153012253Y-121898967D01*
X153036286Y-121894186D01*
X153058923Y-121884810D01*
X153072691Y-121877451D01*
X153079705Y-121875323D01*
X153093140Y-121874000D01*
X153406860Y-121874000D01*
X153420295Y-121875323D01*
X153427309Y-121877451D01*
X153441077Y-121884810D01*
X153463716Y-121894187D01*
X153487749Y-121898967D01*
X153512253Y-121898967D01*
X153536286Y-121894186D01*
X153558923Y-121884810D01*
X153572691Y-121877451D01*
X153579705Y-121875323D01*
X153593140Y-121874000D01*
X153906860Y-121874000D01*
X153920295Y-121875323D01*
X153927309Y-121877451D01*
X153941077Y-121884810D01*
X153963716Y-121894187D01*
X153987749Y-121898967D01*
X154012253Y-121898967D01*
X154036286Y-121894186D01*
X154058923Y-121884810D01*
X154072691Y-121877451D01*
X154079705Y-121875323D01*
X154093140Y-121874000D01*
X154406860Y-121874000D01*
X154420295Y-121875323D01*
X154427309Y-121877451D01*
X154441077Y-121884810D01*
X154463716Y-121894187D01*
X154487749Y-121898967D01*
X154512253Y-121898967D01*
X154536286Y-121894186D01*
X154558923Y-121884810D01*
X154572691Y-121877451D01*
X154579705Y-121875323D01*
X154593140Y-121874000D01*
X154906860Y-121874000D01*
X154920295Y-121875323D01*
X154927309Y-121877451D01*
X154941077Y-121884810D01*
X154963716Y-121894187D01*
X154987749Y-121898967D01*
X155012253Y-121898967D01*
X155036286Y-121894186D01*
X155058923Y-121884810D01*
X155072691Y-121877451D01*
X155079705Y-121875323D01*
X155093140Y-121874000D01*
X155406860Y-121874000D01*
X155420295Y-121875323D01*
X155427309Y-121877451D01*
X155441077Y-121884810D01*
X155463716Y-121894187D01*
X155487749Y-121898967D01*
X155512253Y-121898967D01*
X155536286Y-121894186D01*
X155558923Y-121884810D01*
X155572691Y-121877451D01*
X155579705Y-121875323D01*
X155593140Y-121874000D01*
X155906860Y-121874000D01*
X155920295Y-121875323D01*
X155927309Y-121877451D01*
X155941077Y-121884810D01*
X155963716Y-121894187D01*
X155987749Y-121898967D01*
X156012253Y-121898967D01*
X156036286Y-121894186D01*
X156058923Y-121884810D01*
X156072691Y-121877451D01*
X156079705Y-121875323D01*
X156093140Y-121874000D01*
X156406860Y-121874000D01*
X156420295Y-121875323D01*
X156427309Y-121877451D01*
X156441077Y-121884810D01*
X156463716Y-121894187D01*
X156487749Y-121898967D01*
X156512253Y-121898967D01*
X156536286Y-121894186D01*
X156558923Y-121884810D01*
X156572691Y-121877451D01*
X156579705Y-121875323D01*
X156593140Y-121874000D01*
X156906860Y-121874000D01*
X156920295Y-121875323D01*
X156927310Y-121877451D01*
X156933776Y-121880908D01*
X156939442Y-121885558D01*
X156944092Y-121891224D01*
X156947549Y-121897690D01*
X156949677Y-121904705D01*
X156951000Y-121918140D01*
X156951000Y-123406860D01*
X156949677Y-123420295D01*
X156947549Y-123427310D01*
X156944092Y-123433776D01*
X156939442Y-123439442D01*
X156933776Y-123444092D01*
X156927310Y-123447549D01*
X156920295Y-123449677D01*
X156906860Y-123451000D01*
X156593140Y-123451000D01*
X156579705Y-123449677D01*
X156572691Y-123447549D01*
X156558923Y-123440190D01*
X156536284Y-123430813D01*
X156512251Y-123426033D01*
X156487747Y-123426033D01*
X156463714Y-123430814D01*
X156441077Y-123440190D01*
X156427309Y-123447549D01*
X156420295Y-123449677D01*
X156406860Y-123451000D01*
X156093140Y-123451000D01*
X156079705Y-123449677D01*
X156072691Y-123447549D01*
X156058923Y-123440190D01*
X156036284Y-123430813D01*
X156012251Y-123426033D01*
X155987747Y-123426033D01*
X155963714Y-123430814D01*
X155941077Y-123440190D01*
X155927309Y-123447549D01*
X155920295Y-123449677D01*
X155906860Y-123451000D01*
X155593140Y-123451000D01*
X155579705Y-123449677D01*
X155572691Y-123447549D01*
X155558923Y-123440190D01*
X155536284Y-123430813D01*
X155512251Y-123426033D01*
X155487747Y-123426033D01*
X155463714Y-123430814D01*
X155441077Y-123440190D01*
X155427309Y-123447549D01*
X155420295Y-123449677D01*
X155406860Y-123451000D01*
X155093140Y-123451000D01*
X155079705Y-123449677D01*
X155072691Y-123447549D01*
X155058923Y-123440190D01*
X155036284Y-123430813D01*
X155012251Y-123426033D01*
X154987747Y-123426033D01*
X154963714Y-123430814D01*
X154941077Y-123440190D01*
X154927309Y-123447549D01*
X154920295Y-123449677D01*
X154906860Y-123451000D01*
X154593140Y-123451000D01*
X154579705Y-123449677D01*
X154572691Y-123447549D01*
X154558923Y-123440190D01*
X154536284Y-123430813D01*
X154512251Y-123426033D01*
X154487747Y-123426033D01*
X154463714Y-123430814D01*
X154441077Y-123440190D01*
X154427309Y-123447549D01*
X154420295Y-123449677D01*
X154406860Y-123451000D01*
X154093140Y-123451000D01*
X154079705Y-123449677D01*
X154072691Y-123447549D01*
X154058923Y-123440190D01*
X154036284Y-123430813D01*
X154012251Y-123426033D01*
X153987747Y-123426033D01*
X153963714Y-123430814D01*
X153941077Y-123440190D01*
X153927309Y-123447549D01*
X153920295Y-123449677D01*
X153906860Y-123451000D01*
X153593140Y-123451000D01*
X153579705Y-123449677D01*
X153572691Y-123447549D01*
X153558923Y-123440190D01*
X153536284Y-123430813D01*
X153512251Y-123426033D01*
X153487747Y-123426033D01*
X153463714Y-123430814D01*
X153441077Y-123440190D01*
X153427309Y-123447549D01*
X153420295Y-123449677D01*
X153406860Y-123451000D01*
X153093140Y-123451000D01*
X153079705Y-123449677D01*
X153072691Y-123447549D01*
X153058923Y-123440190D01*
X153036284Y-123430813D01*
X153012251Y-123426033D01*
X152987747Y-123426033D01*
X152963714Y-123430814D01*
X152941077Y-123440190D01*
X152927309Y-123447549D01*
X152920295Y-123449677D01*
X152906860Y-123451000D01*
X152593140Y-123451000D01*
X152579705Y-123449677D01*
X152572691Y-123447549D01*
X152558923Y-123440190D01*
X152536284Y-123430813D01*
X152512251Y-123426033D01*
X152487747Y-123426033D01*
X152463714Y-123430814D01*
X152441077Y-123440190D01*
X152427309Y-123447549D01*
X152420295Y-123449677D01*
X152406860Y-123451000D01*
X152093140Y-123451000D01*
X152079705Y-123449677D01*
X152072691Y-123447549D01*
X152058923Y-123440190D01*
X152036284Y-123430813D01*
X152012251Y-123426033D01*
X151987747Y-123426033D01*
X151963714Y-123430814D01*
X151941077Y-123440190D01*
X151927309Y-123447549D01*
X151920295Y-123449677D01*
X151906860Y-123451000D01*
X151593140Y-123451000D01*
X151579705Y-123449677D01*
X151572691Y-123447549D01*
X151558923Y-123440190D01*
X151536284Y-123430813D01*
X151512251Y-123426033D01*
X151487747Y-123426033D01*
X151463714Y-123430814D01*
X151441077Y-123440190D01*
X151427309Y-123447549D01*
X151420295Y-123449677D01*
X151406860Y-123451000D01*
X151093140Y-123451000D01*
X151079705Y-123449677D01*
X151072690Y-123447549D01*
X151066224Y-123444092D01*
X151060558Y-123439442D01*
X151055908Y-123433776D01*
X151052451Y-123427310D01*
X151050323Y-123420295D01*
X151049000Y-123406860D01*
X151049000Y-121918140D01*
X151050323Y-121904705D01*
X151052451Y-121897690D01*
X151055908Y-121891224D01*
X151060558Y-121885558D01*
X151066224Y-121880908D01*
X151072690Y-121877451D01*
X151079705Y-121875323D01*
X151093140Y-121874000D01*
X151406860Y-121874000D01*
X151420295Y-121875323D01*
G37*
G36*
X130101000Y-123251000D02*
G01*
X128499000Y-123251000D01*
X128499000Y-113349000D01*
X130101000Y-113349000D01*
X130101000Y-123251000D01*
G37*
G36*
X116701000Y-123251000D02*
G01*
X115099000Y-123251000D01*
X115099000Y-113349000D01*
X116701000Y-113349000D01*
X116701000Y-123251000D01*
G37*
G36*
X165420295Y-120975323D02*
G01*
X165427309Y-120977451D01*
X165441077Y-120984810D01*
X165463716Y-120994187D01*
X165487749Y-120998967D01*
X165512253Y-120998967D01*
X165536286Y-120994186D01*
X165558923Y-120984810D01*
X165572691Y-120977451D01*
X165579705Y-120975323D01*
X165593140Y-120974000D01*
X165906860Y-120974000D01*
X165920295Y-120975323D01*
X165927309Y-120977451D01*
X165941077Y-120984810D01*
X165963716Y-120994187D01*
X165987749Y-120998967D01*
X166012253Y-120998967D01*
X166036286Y-120994186D01*
X166058923Y-120984810D01*
X166072691Y-120977451D01*
X166079705Y-120975323D01*
X166093140Y-120974000D01*
X166406860Y-120974000D01*
X166420295Y-120975323D01*
X166427309Y-120977451D01*
X166441077Y-120984810D01*
X166463716Y-120994187D01*
X166487749Y-120998967D01*
X166512253Y-120998967D01*
X166536286Y-120994186D01*
X166558923Y-120984810D01*
X166572691Y-120977451D01*
X166579705Y-120975323D01*
X166593140Y-120974000D01*
X166906860Y-120974000D01*
X166920295Y-120975323D01*
X166927309Y-120977451D01*
X166941077Y-120984810D01*
X166963716Y-120994187D01*
X166987749Y-120998967D01*
X167012253Y-120998967D01*
X167036286Y-120994186D01*
X167058923Y-120984810D01*
X167072691Y-120977451D01*
X167079705Y-120975323D01*
X167093140Y-120974000D01*
X167406860Y-120974000D01*
X167420295Y-120975323D01*
X167427309Y-120977451D01*
X167441077Y-120984810D01*
X167463716Y-120994187D01*
X167487749Y-120998967D01*
X167512253Y-120998967D01*
X167536286Y-120994186D01*
X167558923Y-120984810D01*
X167572691Y-120977451D01*
X167579705Y-120975323D01*
X167593140Y-120974000D01*
X167906860Y-120974000D01*
X167920295Y-120975323D01*
X167927309Y-120977451D01*
X167941077Y-120984810D01*
X167963716Y-120994187D01*
X167987749Y-120998967D01*
X168012253Y-120998967D01*
X168036286Y-120994186D01*
X168058923Y-120984810D01*
X168072691Y-120977451D01*
X168079705Y-120975323D01*
X168093140Y-120974000D01*
X168406860Y-120974000D01*
X168420295Y-120975323D01*
X168427309Y-120977451D01*
X168441077Y-120984810D01*
X168463716Y-120994187D01*
X168487749Y-120998967D01*
X168512253Y-120998967D01*
X168536286Y-120994186D01*
X168558923Y-120984810D01*
X168572691Y-120977451D01*
X168579705Y-120975323D01*
X168593140Y-120974000D01*
X168906860Y-120974000D01*
X168920295Y-120975323D01*
X168927310Y-120977451D01*
X168933776Y-120980908D01*
X168939442Y-120985558D01*
X168944092Y-120991224D01*
X168947549Y-120997690D01*
X168949677Y-121004705D01*
X168951000Y-121018140D01*
X168951000Y-122531860D01*
X168949677Y-122545295D01*
X168947549Y-122552310D01*
X168944092Y-122558776D01*
X168939442Y-122564442D01*
X168933776Y-122569092D01*
X168927310Y-122572549D01*
X168920295Y-122574677D01*
X168906860Y-122576000D01*
X168593140Y-122576000D01*
X168579705Y-122574677D01*
X168572691Y-122572549D01*
X168558923Y-122565190D01*
X168536284Y-122555813D01*
X168512251Y-122551033D01*
X168487747Y-122551033D01*
X168463714Y-122555814D01*
X168441077Y-122565190D01*
X168427309Y-122572549D01*
X168420295Y-122574677D01*
X168406860Y-122576000D01*
X168093140Y-122576000D01*
X168079705Y-122574677D01*
X168072691Y-122572549D01*
X168058923Y-122565190D01*
X168036284Y-122555813D01*
X168012251Y-122551033D01*
X167987747Y-122551033D01*
X167963714Y-122555814D01*
X167941077Y-122565190D01*
X167927309Y-122572549D01*
X167920295Y-122574677D01*
X167906860Y-122576000D01*
X167593140Y-122576000D01*
X167579705Y-122574677D01*
X167572691Y-122572549D01*
X167558923Y-122565190D01*
X167536284Y-122555813D01*
X167512251Y-122551033D01*
X167487747Y-122551033D01*
X167463714Y-122555814D01*
X167441077Y-122565190D01*
X167427309Y-122572549D01*
X167420295Y-122574677D01*
X167406860Y-122576000D01*
X167093140Y-122576000D01*
X167079705Y-122574677D01*
X167072691Y-122572549D01*
X167058923Y-122565190D01*
X167036284Y-122555813D01*
X167012251Y-122551033D01*
X166987747Y-122551033D01*
X166963714Y-122555814D01*
X166941077Y-122565190D01*
X166927309Y-122572549D01*
X166920295Y-122574677D01*
X166906860Y-122576000D01*
X166593140Y-122576000D01*
X166579705Y-122574677D01*
X166572691Y-122572549D01*
X166558923Y-122565190D01*
X166536284Y-122555813D01*
X166512251Y-122551033D01*
X166487747Y-122551033D01*
X166463714Y-122555814D01*
X166441077Y-122565190D01*
X166427309Y-122572549D01*
X166420295Y-122574677D01*
X166406860Y-122576000D01*
X166093140Y-122576000D01*
X166079705Y-122574677D01*
X166072691Y-122572549D01*
X166058923Y-122565190D01*
X166036284Y-122555813D01*
X166012251Y-122551033D01*
X165987747Y-122551033D01*
X165963714Y-122555814D01*
X165941077Y-122565190D01*
X165927309Y-122572549D01*
X165920295Y-122574677D01*
X165906860Y-122576000D01*
X165593140Y-122576000D01*
X165579705Y-122574677D01*
X165572691Y-122572549D01*
X165558923Y-122565190D01*
X165536284Y-122555813D01*
X165512251Y-122551033D01*
X165487747Y-122551033D01*
X165463714Y-122555814D01*
X165441077Y-122565190D01*
X165427309Y-122572549D01*
X165420295Y-122574677D01*
X165406860Y-122576000D01*
X165093140Y-122576000D01*
X165079705Y-122574677D01*
X165072690Y-122572549D01*
X165066224Y-122569092D01*
X165060558Y-122564442D01*
X165055908Y-122558776D01*
X165052451Y-122552310D01*
X165050323Y-122545295D01*
X165049000Y-122531860D01*
X165049000Y-121018140D01*
X165050323Y-121004705D01*
X165052451Y-120997690D01*
X165055908Y-120991224D01*
X165060558Y-120985558D01*
X165066224Y-120980908D01*
X165072690Y-120977451D01*
X165079705Y-120975323D01*
X165093140Y-120974000D01*
X165406860Y-120974000D01*
X165420295Y-120975323D01*
G37*
G36*
X146070295Y-114450323D02*
G01*
X146077310Y-114452451D01*
X146083776Y-114455908D01*
X146089442Y-114460558D01*
X146094092Y-114466224D01*
X146097549Y-114472690D01*
X146099677Y-114479705D01*
X146101000Y-114493140D01*
X146101000Y-114806860D01*
X146099677Y-114820295D01*
X146097549Y-114827309D01*
X146090190Y-114841077D01*
X146080813Y-114863716D01*
X146076033Y-114887749D01*
X146076033Y-114912253D01*
X146080814Y-114936286D01*
X146090190Y-114958923D01*
X146097549Y-114972691D01*
X146099677Y-114979705D01*
X146101000Y-114993140D01*
X146101000Y-115306860D01*
X146099677Y-115320295D01*
X146097549Y-115327309D01*
X146090190Y-115341077D01*
X146080813Y-115363716D01*
X146076033Y-115387749D01*
X146076033Y-115412253D01*
X146080814Y-115436286D01*
X146090190Y-115458923D01*
X146097549Y-115472691D01*
X146099677Y-115479705D01*
X146101000Y-115493140D01*
X146101000Y-115806860D01*
X146099677Y-115820295D01*
X146097549Y-115827309D01*
X146090190Y-115841077D01*
X146080813Y-115863716D01*
X146076033Y-115887749D01*
X146076033Y-115912253D01*
X146080814Y-115936286D01*
X146090190Y-115958923D01*
X146097549Y-115972691D01*
X146099677Y-115979705D01*
X146101000Y-115993140D01*
X146101000Y-116306860D01*
X146099677Y-116320295D01*
X146097549Y-116327309D01*
X146090190Y-116341077D01*
X146080813Y-116363716D01*
X146076033Y-116387749D01*
X146076033Y-116412253D01*
X146080814Y-116436286D01*
X146090190Y-116458923D01*
X146097549Y-116472691D01*
X146099677Y-116479705D01*
X146101000Y-116493140D01*
X146101000Y-116806860D01*
X146099677Y-116820295D01*
X146097549Y-116827309D01*
X146090190Y-116841077D01*
X146080813Y-116863716D01*
X146076033Y-116887749D01*
X146076033Y-116912253D01*
X146080814Y-116936286D01*
X146090190Y-116958923D01*
X146097549Y-116972691D01*
X146099677Y-116979705D01*
X146101000Y-116993140D01*
X146101000Y-117306860D01*
X146099677Y-117320295D01*
X146097549Y-117327309D01*
X146090190Y-117341077D01*
X146080813Y-117363716D01*
X146076033Y-117387749D01*
X146076033Y-117412253D01*
X146080814Y-117436286D01*
X146090190Y-117458923D01*
X146097549Y-117472691D01*
X146099677Y-117479705D01*
X146101000Y-117493140D01*
X146101000Y-117806860D01*
X146099677Y-117820295D01*
X146097549Y-117827309D01*
X146090190Y-117841077D01*
X146080813Y-117863716D01*
X146076033Y-117887749D01*
X146076033Y-117912253D01*
X146080814Y-117936286D01*
X146090190Y-117958923D01*
X146097549Y-117972691D01*
X146099677Y-117979705D01*
X146101000Y-117993140D01*
X146101000Y-118306860D01*
X146099677Y-118320295D01*
X146097549Y-118327309D01*
X146090190Y-118341077D01*
X146080813Y-118363716D01*
X146076033Y-118387749D01*
X146076033Y-118412253D01*
X146080814Y-118436286D01*
X146090190Y-118458923D01*
X146097549Y-118472691D01*
X146099677Y-118479705D01*
X146101000Y-118493140D01*
X146101000Y-118806860D01*
X146099677Y-118820295D01*
X146097549Y-118827309D01*
X146090190Y-118841077D01*
X146080813Y-118863716D01*
X146076033Y-118887749D01*
X146076033Y-118912253D01*
X146080814Y-118936286D01*
X146090190Y-118958923D01*
X146097549Y-118972691D01*
X146099677Y-118979705D01*
X146101000Y-118993140D01*
X146101000Y-119306860D01*
X146099677Y-119320295D01*
X146097549Y-119327309D01*
X146090190Y-119341077D01*
X146080813Y-119363716D01*
X146076033Y-119387749D01*
X146076033Y-119412253D01*
X146080814Y-119436286D01*
X146090190Y-119458923D01*
X146097549Y-119472691D01*
X146099677Y-119479705D01*
X146101000Y-119493140D01*
X146101000Y-119806860D01*
X146099677Y-119820295D01*
X146097549Y-119827309D01*
X146090190Y-119841077D01*
X146080813Y-119863716D01*
X146076033Y-119887749D01*
X146076033Y-119912253D01*
X146080814Y-119936286D01*
X146090190Y-119958923D01*
X146097549Y-119972691D01*
X146099677Y-119979705D01*
X146101000Y-119993140D01*
X146101000Y-120306860D01*
X146099677Y-120320295D01*
X146097549Y-120327309D01*
X146090190Y-120341077D01*
X146080813Y-120363716D01*
X146076033Y-120387749D01*
X146076033Y-120412253D01*
X146080814Y-120436286D01*
X146090190Y-120458923D01*
X146097549Y-120472691D01*
X146099677Y-120479705D01*
X146101000Y-120493140D01*
X146101000Y-120806860D01*
X146099677Y-120820295D01*
X146097549Y-120827309D01*
X146090190Y-120841077D01*
X146080813Y-120863716D01*
X146076033Y-120887749D01*
X146076033Y-120912253D01*
X146080814Y-120936286D01*
X146090190Y-120958923D01*
X146097549Y-120972691D01*
X146099677Y-120979705D01*
X146101000Y-120993140D01*
X146101000Y-121306860D01*
X146099677Y-121320295D01*
X146097549Y-121327309D01*
X146090190Y-121341077D01*
X146080813Y-121363716D01*
X146076033Y-121387749D01*
X146076033Y-121412253D01*
X146080814Y-121436286D01*
X146090190Y-121458923D01*
X146097549Y-121472691D01*
X146099677Y-121479705D01*
X146101000Y-121493140D01*
X146101000Y-121806860D01*
X146099677Y-121820295D01*
X146097549Y-121827309D01*
X146090190Y-121841077D01*
X146080813Y-121863716D01*
X146076033Y-121887749D01*
X146076033Y-121912253D01*
X146080814Y-121936286D01*
X146090190Y-121958923D01*
X146097549Y-121972691D01*
X146099677Y-121979705D01*
X146101000Y-121993140D01*
X146101000Y-122306860D01*
X146099677Y-122320295D01*
X146097549Y-122327310D01*
X146094092Y-122333776D01*
X146089442Y-122339442D01*
X146083776Y-122344092D01*
X146077310Y-122347549D01*
X146070295Y-122349677D01*
X146056860Y-122351000D01*
X144493140Y-122351000D01*
X144479705Y-122349677D01*
X144472690Y-122347549D01*
X144466224Y-122344092D01*
X144460558Y-122339442D01*
X144455908Y-122333776D01*
X144452451Y-122327310D01*
X144450323Y-122320295D01*
X144449000Y-122306860D01*
X144449000Y-121993140D01*
X144450323Y-121979705D01*
X144452451Y-121972691D01*
X144459810Y-121958923D01*
X144469187Y-121936284D01*
X144473967Y-121912251D01*
X144473967Y-121887747D01*
X144469186Y-121863714D01*
X144459810Y-121841077D01*
X144452451Y-121827309D01*
X144450323Y-121820295D01*
X144449000Y-121806860D01*
X144449000Y-121493140D01*
X144450323Y-121479705D01*
X144452451Y-121472691D01*
X144459810Y-121458923D01*
X144469187Y-121436284D01*
X144473967Y-121412251D01*
X144473967Y-121387747D01*
X144469186Y-121363714D01*
X144459810Y-121341077D01*
X144452451Y-121327309D01*
X144450323Y-121320295D01*
X144449000Y-121306860D01*
X144449000Y-120993140D01*
X144450323Y-120979705D01*
X144452451Y-120972691D01*
X144459810Y-120958923D01*
X144469187Y-120936284D01*
X144473967Y-120912251D01*
X144473967Y-120887747D01*
X144469186Y-120863714D01*
X144459810Y-120841077D01*
X144452451Y-120827309D01*
X144450323Y-120820295D01*
X144449000Y-120806860D01*
X144449000Y-120493140D01*
X144450323Y-120479705D01*
X144452451Y-120472691D01*
X144459810Y-120458923D01*
X144469187Y-120436284D01*
X144473967Y-120412251D01*
X144473967Y-120387747D01*
X144469186Y-120363714D01*
X144459810Y-120341077D01*
X144452451Y-120327309D01*
X144450323Y-120320295D01*
X144449000Y-120306860D01*
X144449000Y-119993140D01*
X144450323Y-119979705D01*
X144452451Y-119972691D01*
X144459810Y-119958923D01*
X144469187Y-119936284D01*
X144473967Y-119912251D01*
X144473967Y-119887747D01*
X144469186Y-119863714D01*
X144459810Y-119841077D01*
X144452451Y-119827309D01*
X144450323Y-119820295D01*
X144449000Y-119806860D01*
X144449000Y-119493140D01*
X144450323Y-119479705D01*
X144452451Y-119472691D01*
X144459810Y-119458923D01*
X144469187Y-119436284D01*
X144473967Y-119412251D01*
X144473967Y-119387747D01*
X144469186Y-119363714D01*
X144459810Y-119341077D01*
X144452451Y-119327309D01*
X144450323Y-119320295D01*
X144449000Y-119306860D01*
X144449000Y-118993140D01*
X144450323Y-118979705D01*
X144452451Y-118972691D01*
X144459810Y-118958923D01*
X144469187Y-118936284D01*
X144473967Y-118912251D01*
X144473967Y-118887747D01*
X144469186Y-118863714D01*
X144459810Y-118841077D01*
X144452451Y-118827309D01*
X144450323Y-118820295D01*
X144449000Y-118806860D01*
X144449000Y-118493140D01*
X144450323Y-118479705D01*
X144452451Y-118472691D01*
X144459810Y-118458923D01*
X144469187Y-118436284D01*
X144473967Y-118412251D01*
X144473967Y-118387747D01*
X144469186Y-118363714D01*
X144459810Y-118341077D01*
X144452451Y-118327309D01*
X144450323Y-118320295D01*
X144449000Y-118306860D01*
X144449000Y-117993140D01*
X144450323Y-117979705D01*
X144452451Y-117972691D01*
X144459810Y-117958923D01*
X144469187Y-117936284D01*
X144473967Y-117912251D01*
X144473967Y-117887747D01*
X144469186Y-117863714D01*
X144459810Y-117841077D01*
X144452451Y-117827309D01*
X144450323Y-117820295D01*
X144449000Y-117806860D01*
X144449000Y-117493140D01*
X144450323Y-117479705D01*
X144452451Y-117472691D01*
X144459810Y-117458923D01*
X144469187Y-117436284D01*
X144473967Y-117412251D01*
X144473967Y-117387747D01*
X144469186Y-117363714D01*
X144459810Y-117341077D01*
X144452451Y-117327309D01*
X144450323Y-117320295D01*
X144449000Y-117306860D01*
X144449000Y-116993140D01*
X144450323Y-116979705D01*
X144452451Y-116972691D01*
X144459810Y-116958923D01*
X144469187Y-116936284D01*
X144473967Y-116912251D01*
X144473967Y-116887747D01*
X144469186Y-116863714D01*
X144459810Y-116841077D01*
X144452451Y-116827309D01*
X144450323Y-116820295D01*
X144449000Y-116806860D01*
X144449000Y-116493140D01*
X144450323Y-116479705D01*
X144452451Y-116472691D01*
X144459810Y-116458923D01*
X144469187Y-116436284D01*
X144473967Y-116412251D01*
X144473967Y-116387747D01*
X144469186Y-116363714D01*
X144459810Y-116341077D01*
X144452451Y-116327309D01*
X144450323Y-116320295D01*
X144449000Y-116306860D01*
X144449000Y-115993140D01*
X144450323Y-115979705D01*
X144452451Y-115972691D01*
X144459810Y-115958923D01*
X144469187Y-115936284D01*
X144473967Y-115912251D01*
X144473967Y-115887747D01*
X144469186Y-115863714D01*
X144459810Y-115841077D01*
X144452451Y-115827309D01*
X144450323Y-115820295D01*
X144449000Y-115806860D01*
X144449000Y-115493140D01*
X144450323Y-115479705D01*
X144452451Y-115472691D01*
X144459810Y-115458923D01*
X144469187Y-115436284D01*
X144473967Y-115412251D01*
X144473967Y-115387747D01*
X144469186Y-115363714D01*
X144459810Y-115341077D01*
X144452451Y-115327309D01*
X144450323Y-115320295D01*
X144449000Y-115306860D01*
X144449000Y-114993140D01*
X144450323Y-114979705D01*
X144452451Y-114972691D01*
X144459810Y-114958923D01*
X144469187Y-114936284D01*
X144473967Y-114912251D01*
X144473967Y-114887747D01*
X144469186Y-114863714D01*
X144459810Y-114841077D01*
X144452451Y-114827309D01*
X144450323Y-114820295D01*
X144449000Y-114806860D01*
X144449000Y-114493140D01*
X144450323Y-114479705D01*
X144452451Y-114472690D01*
X144455908Y-114466224D01*
X144460558Y-114460558D01*
X144466224Y-114455908D01*
X144472690Y-114452451D01*
X144479705Y-114450323D01*
X144493140Y-114449000D01*
X146056860Y-114449000D01*
X146070295Y-114450323D01*
G37*
G36*
X134720295Y-114450323D02*
G01*
X134727310Y-114452451D01*
X134733776Y-114455908D01*
X134739442Y-114460558D01*
X134744092Y-114466224D01*
X134747549Y-114472690D01*
X134749677Y-114479705D01*
X134751000Y-114493140D01*
X134751000Y-114806860D01*
X134749677Y-114820295D01*
X134747549Y-114827309D01*
X134740190Y-114841077D01*
X134730813Y-114863716D01*
X134726033Y-114887749D01*
X134726033Y-114912253D01*
X134730814Y-114936286D01*
X134740190Y-114958923D01*
X134747549Y-114972691D01*
X134749677Y-114979705D01*
X134751000Y-114993140D01*
X134751000Y-115306860D01*
X134749677Y-115320295D01*
X134747549Y-115327309D01*
X134740190Y-115341077D01*
X134730813Y-115363716D01*
X134726033Y-115387749D01*
X134726033Y-115412253D01*
X134730814Y-115436286D01*
X134740190Y-115458923D01*
X134747549Y-115472691D01*
X134749677Y-115479705D01*
X134751000Y-115493140D01*
X134751000Y-115806860D01*
X134749677Y-115820295D01*
X134747549Y-115827309D01*
X134740190Y-115841077D01*
X134730813Y-115863716D01*
X134726033Y-115887749D01*
X134726033Y-115912253D01*
X134730814Y-115936286D01*
X134740190Y-115958923D01*
X134747549Y-115972691D01*
X134749677Y-115979705D01*
X134751000Y-115993140D01*
X134751000Y-116306860D01*
X134749677Y-116320295D01*
X134747549Y-116327309D01*
X134740190Y-116341077D01*
X134730813Y-116363716D01*
X134726033Y-116387749D01*
X134726033Y-116412253D01*
X134730814Y-116436286D01*
X134740190Y-116458923D01*
X134747549Y-116472691D01*
X134749677Y-116479705D01*
X134751000Y-116493140D01*
X134751000Y-116806860D01*
X134749677Y-116820295D01*
X134747549Y-116827309D01*
X134740190Y-116841077D01*
X134730813Y-116863716D01*
X134726033Y-116887749D01*
X134726033Y-116912253D01*
X134730814Y-116936286D01*
X134740190Y-116958923D01*
X134747549Y-116972691D01*
X134749677Y-116979705D01*
X134751000Y-116993140D01*
X134751000Y-117306860D01*
X134749677Y-117320295D01*
X134747549Y-117327309D01*
X134740190Y-117341077D01*
X134730813Y-117363716D01*
X134726033Y-117387749D01*
X134726033Y-117412253D01*
X134730814Y-117436286D01*
X134740190Y-117458923D01*
X134747549Y-117472691D01*
X134749677Y-117479705D01*
X134751000Y-117493140D01*
X134751000Y-117806860D01*
X134749677Y-117820295D01*
X134747549Y-117827309D01*
X134740190Y-117841077D01*
X134730813Y-117863716D01*
X134726033Y-117887749D01*
X134726033Y-117912253D01*
X134730814Y-117936286D01*
X134740190Y-117958923D01*
X134747549Y-117972691D01*
X134749677Y-117979705D01*
X134751000Y-117993140D01*
X134751000Y-118306860D01*
X134749677Y-118320295D01*
X134747549Y-118327309D01*
X134740190Y-118341077D01*
X134730813Y-118363716D01*
X134726033Y-118387749D01*
X134726033Y-118412253D01*
X134730814Y-118436286D01*
X134740190Y-118458923D01*
X134747549Y-118472691D01*
X134749677Y-118479705D01*
X134751000Y-118493140D01*
X134751000Y-118806860D01*
X134749677Y-118820295D01*
X134747549Y-118827309D01*
X134740190Y-118841077D01*
X134730813Y-118863716D01*
X134726033Y-118887749D01*
X134726033Y-118912253D01*
X134730814Y-118936286D01*
X134740190Y-118958923D01*
X134747549Y-118972691D01*
X134749677Y-118979705D01*
X134751000Y-118993140D01*
X134751000Y-119306860D01*
X134749677Y-119320295D01*
X134747549Y-119327309D01*
X134740190Y-119341077D01*
X134730813Y-119363716D01*
X134726033Y-119387749D01*
X134726033Y-119412253D01*
X134730814Y-119436286D01*
X134740190Y-119458923D01*
X134747549Y-119472691D01*
X134749677Y-119479705D01*
X134751000Y-119493140D01*
X134751000Y-119806860D01*
X134749677Y-119820295D01*
X134747549Y-119827309D01*
X134740190Y-119841077D01*
X134730813Y-119863716D01*
X134726033Y-119887749D01*
X134726033Y-119912253D01*
X134730814Y-119936286D01*
X134740190Y-119958923D01*
X134747549Y-119972691D01*
X134749677Y-119979705D01*
X134751000Y-119993140D01*
X134751000Y-120306860D01*
X134749677Y-120320295D01*
X134747549Y-120327309D01*
X134740190Y-120341077D01*
X134730813Y-120363716D01*
X134726033Y-120387749D01*
X134726033Y-120412253D01*
X134730814Y-120436286D01*
X134740190Y-120458923D01*
X134747549Y-120472691D01*
X134749677Y-120479705D01*
X134751000Y-120493140D01*
X134751000Y-120806860D01*
X134749677Y-120820295D01*
X134747549Y-120827309D01*
X134740190Y-120841077D01*
X134730813Y-120863716D01*
X134726033Y-120887749D01*
X134726033Y-120912253D01*
X134730814Y-120936286D01*
X134740190Y-120958923D01*
X134747549Y-120972691D01*
X134749677Y-120979705D01*
X134751000Y-120993140D01*
X134751000Y-121306860D01*
X134749677Y-121320295D01*
X134747549Y-121327309D01*
X134740190Y-121341077D01*
X134730813Y-121363716D01*
X134726033Y-121387749D01*
X134726033Y-121412253D01*
X134730814Y-121436286D01*
X134740190Y-121458923D01*
X134747549Y-121472691D01*
X134749677Y-121479705D01*
X134751000Y-121493140D01*
X134751000Y-121806860D01*
X134749677Y-121820295D01*
X134747549Y-121827309D01*
X134740190Y-121841077D01*
X134730813Y-121863716D01*
X134726033Y-121887749D01*
X134726033Y-121912253D01*
X134730814Y-121936286D01*
X134740190Y-121958923D01*
X134747549Y-121972691D01*
X134749677Y-121979705D01*
X134751000Y-121993140D01*
X134751000Y-122306860D01*
X134749677Y-122320295D01*
X134747549Y-122327310D01*
X134744092Y-122333776D01*
X134739442Y-122339442D01*
X134733776Y-122344092D01*
X134727310Y-122347549D01*
X134720295Y-122349677D01*
X134706860Y-122351000D01*
X133143140Y-122351000D01*
X133129705Y-122349677D01*
X133122690Y-122347549D01*
X133116224Y-122344092D01*
X133110558Y-122339442D01*
X133105908Y-122333776D01*
X133102451Y-122327310D01*
X133100323Y-122320295D01*
X133099000Y-122306860D01*
X133099000Y-121993140D01*
X133100323Y-121979705D01*
X133102451Y-121972691D01*
X133109810Y-121958923D01*
X133119187Y-121936284D01*
X133123967Y-121912251D01*
X133123967Y-121887747D01*
X133119186Y-121863714D01*
X133109810Y-121841077D01*
X133102451Y-121827309D01*
X133100323Y-121820295D01*
X133099000Y-121806860D01*
X133099000Y-121493140D01*
X133100323Y-121479705D01*
X133102451Y-121472691D01*
X133109810Y-121458923D01*
X133119187Y-121436284D01*
X133123967Y-121412251D01*
X133123967Y-121387747D01*
X133119186Y-121363714D01*
X133109810Y-121341077D01*
X133102451Y-121327309D01*
X133100323Y-121320295D01*
X133099000Y-121306860D01*
X133099000Y-120993140D01*
X133100323Y-120979705D01*
X133102451Y-120972691D01*
X133109810Y-120958923D01*
X133119187Y-120936284D01*
X133123967Y-120912251D01*
X133123967Y-120887747D01*
X133119186Y-120863714D01*
X133109810Y-120841077D01*
X133102451Y-120827309D01*
X133100323Y-120820295D01*
X133099000Y-120806860D01*
X133099000Y-120493140D01*
X133100323Y-120479705D01*
X133102451Y-120472691D01*
X133109810Y-120458923D01*
X133119187Y-120436284D01*
X133123967Y-120412251D01*
X133123967Y-120387747D01*
X133119186Y-120363714D01*
X133109810Y-120341077D01*
X133102451Y-120327309D01*
X133100323Y-120320295D01*
X133099000Y-120306860D01*
X133099000Y-119993140D01*
X133100323Y-119979705D01*
X133102451Y-119972691D01*
X133109810Y-119958923D01*
X133119187Y-119936284D01*
X133123967Y-119912251D01*
X133123967Y-119887747D01*
X133119186Y-119863714D01*
X133109810Y-119841077D01*
X133102451Y-119827309D01*
X133100323Y-119820295D01*
X133099000Y-119806860D01*
X133099000Y-119493140D01*
X133100323Y-119479705D01*
X133102451Y-119472691D01*
X133109810Y-119458923D01*
X133119187Y-119436284D01*
X133123967Y-119412251D01*
X133123967Y-119387747D01*
X133119186Y-119363714D01*
X133109810Y-119341077D01*
X133102451Y-119327309D01*
X133100323Y-119320295D01*
X133099000Y-119306860D01*
X133099000Y-118993140D01*
X133100323Y-118979705D01*
X133102451Y-118972691D01*
X133109810Y-118958923D01*
X133119187Y-118936284D01*
X133123967Y-118912251D01*
X133123967Y-118887747D01*
X133119186Y-118863714D01*
X133109810Y-118841077D01*
X133102451Y-118827309D01*
X133100323Y-118820295D01*
X133099000Y-118806860D01*
X133099000Y-118493140D01*
X133100323Y-118479705D01*
X133102451Y-118472691D01*
X133109810Y-118458923D01*
X133119187Y-118436284D01*
X133123967Y-118412251D01*
X133123967Y-118387747D01*
X133119186Y-118363714D01*
X133109810Y-118341077D01*
X133102451Y-118327309D01*
X133100323Y-118320295D01*
X133099000Y-118306860D01*
X133099000Y-117993140D01*
X133100323Y-117979705D01*
X133102451Y-117972691D01*
X133109810Y-117958923D01*
X133119187Y-117936284D01*
X133123967Y-117912251D01*
X133123967Y-117887747D01*
X133119186Y-117863714D01*
X133109810Y-117841077D01*
X133102451Y-117827309D01*
X133100323Y-117820295D01*
X133099000Y-117806860D01*
X133099000Y-117493140D01*
X133100323Y-117479705D01*
X133102451Y-117472691D01*
X133109810Y-117458923D01*
X133119187Y-117436284D01*
X133123967Y-117412251D01*
X133123967Y-117387747D01*
X133119186Y-117363714D01*
X133109810Y-117341077D01*
X133102451Y-117327309D01*
X133100323Y-117320295D01*
X133099000Y-117306860D01*
X133099000Y-116993140D01*
X133100323Y-116979705D01*
X133102451Y-116972691D01*
X133109810Y-116958923D01*
X133119187Y-116936284D01*
X133123967Y-116912251D01*
X133123967Y-116887747D01*
X133119186Y-116863714D01*
X133109810Y-116841077D01*
X133102451Y-116827309D01*
X133100323Y-116820295D01*
X133099000Y-116806860D01*
X133099000Y-116493140D01*
X133100323Y-116479705D01*
X133102451Y-116472691D01*
X133109810Y-116458923D01*
X133119187Y-116436284D01*
X133123967Y-116412251D01*
X133123967Y-116387747D01*
X133119186Y-116363714D01*
X133109810Y-116341077D01*
X133102451Y-116327309D01*
X133100323Y-116320295D01*
X133099000Y-116306860D01*
X133099000Y-115993140D01*
X133100323Y-115979705D01*
X133102451Y-115972691D01*
X133109810Y-115958923D01*
X133119187Y-115936284D01*
X133123967Y-115912251D01*
X133123967Y-115887747D01*
X133119186Y-115863714D01*
X133109810Y-115841077D01*
X133102451Y-115827309D01*
X133100323Y-115820295D01*
X133099000Y-115806860D01*
X133099000Y-115493140D01*
X133100323Y-115479705D01*
X133102451Y-115472691D01*
X133109810Y-115458923D01*
X133119187Y-115436284D01*
X133123967Y-115412251D01*
X133123967Y-115387747D01*
X133119186Y-115363714D01*
X133109810Y-115341077D01*
X133102451Y-115327309D01*
X133100323Y-115320295D01*
X133099000Y-115306860D01*
X133099000Y-114993140D01*
X133100323Y-114979705D01*
X133102451Y-114972691D01*
X133109810Y-114958923D01*
X133119187Y-114936284D01*
X133123967Y-114912251D01*
X133123967Y-114887747D01*
X133119186Y-114863714D01*
X133109810Y-114841077D01*
X133102451Y-114827309D01*
X133100323Y-114820295D01*
X133099000Y-114806860D01*
X133099000Y-114493140D01*
X133100323Y-114479705D01*
X133102451Y-114472690D01*
X133105908Y-114466224D01*
X133110558Y-114460558D01*
X133116224Y-114455908D01*
X133122690Y-114452451D01*
X133129705Y-114450323D01*
X133143140Y-114449000D01*
X134706860Y-114449000D01*
X134720295Y-114450323D01*
G37*
G36*
X158920295Y-115550323D02*
G01*
X158927310Y-115552451D01*
X158933776Y-115555908D01*
X158939442Y-115560558D01*
X158944092Y-115566224D01*
X158947549Y-115572690D01*
X158949677Y-115579705D01*
X158951000Y-115593140D01*
X158951000Y-115906860D01*
X158949677Y-115920295D01*
X158947549Y-115927309D01*
X158940190Y-115941077D01*
X158930813Y-115963716D01*
X158926033Y-115987749D01*
X158926033Y-116012253D01*
X158930814Y-116036286D01*
X158940190Y-116058923D01*
X158947549Y-116072691D01*
X158949677Y-116079705D01*
X158951000Y-116093140D01*
X158951000Y-116406860D01*
X158949677Y-116420295D01*
X158947549Y-116427309D01*
X158940190Y-116441077D01*
X158930813Y-116463716D01*
X158926033Y-116487749D01*
X158926033Y-116512253D01*
X158930814Y-116536286D01*
X158940190Y-116558923D01*
X158947549Y-116572691D01*
X158949677Y-116579705D01*
X158951000Y-116593140D01*
X158951000Y-116906860D01*
X158949677Y-116920295D01*
X158947549Y-116927309D01*
X158940190Y-116941077D01*
X158930813Y-116963716D01*
X158926033Y-116987749D01*
X158926033Y-117012253D01*
X158930814Y-117036286D01*
X158940190Y-117058923D01*
X158947549Y-117072691D01*
X158949677Y-117079705D01*
X158951000Y-117093140D01*
X158951000Y-117406860D01*
X158949677Y-117420295D01*
X158947549Y-117427309D01*
X158940190Y-117441077D01*
X158930813Y-117463716D01*
X158926033Y-117487749D01*
X158926033Y-117512253D01*
X158930814Y-117536286D01*
X158940190Y-117558923D01*
X158947549Y-117572691D01*
X158949677Y-117579705D01*
X158951000Y-117593140D01*
X158951000Y-117906860D01*
X158949677Y-117920295D01*
X158947549Y-117927309D01*
X158940190Y-117941077D01*
X158930813Y-117963716D01*
X158926033Y-117987749D01*
X158926033Y-118012253D01*
X158930814Y-118036286D01*
X158940190Y-118058923D01*
X158947549Y-118072691D01*
X158949677Y-118079705D01*
X158951000Y-118093140D01*
X158951000Y-118406860D01*
X158949677Y-118420295D01*
X158947549Y-118427309D01*
X158940190Y-118441077D01*
X158930813Y-118463716D01*
X158926033Y-118487749D01*
X158926033Y-118512253D01*
X158930814Y-118536286D01*
X158940190Y-118558923D01*
X158947549Y-118572691D01*
X158949677Y-118579705D01*
X158951000Y-118593140D01*
X158951000Y-118906860D01*
X158949677Y-118920295D01*
X158947549Y-118927309D01*
X158940190Y-118941077D01*
X158930813Y-118963716D01*
X158926033Y-118987749D01*
X158926033Y-119012253D01*
X158930814Y-119036286D01*
X158940190Y-119058923D01*
X158947549Y-119072691D01*
X158949677Y-119079705D01*
X158951000Y-119093140D01*
X158951000Y-119406860D01*
X158949677Y-119420295D01*
X158947549Y-119427309D01*
X158940190Y-119441077D01*
X158930813Y-119463716D01*
X158926033Y-119487749D01*
X158926033Y-119512253D01*
X158930814Y-119536286D01*
X158940190Y-119558923D01*
X158947549Y-119572691D01*
X158949677Y-119579705D01*
X158951000Y-119593140D01*
X158951000Y-119906860D01*
X158949677Y-119920295D01*
X158947549Y-119927309D01*
X158940190Y-119941077D01*
X158930813Y-119963716D01*
X158926033Y-119987749D01*
X158926033Y-120012253D01*
X158930814Y-120036286D01*
X158940190Y-120058923D01*
X158947549Y-120072691D01*
X158949677Y-120079705D01*
X158951000Y-120093140D01*
X158951000Y-120406860D01*
X158949677Y-120420295D01*
X158947549Y-120427309D01*
X158940190Y-120441077D01*
X158930813Y-120463716D01*
X158926033Y-120487749D01*
X158926033Y-120512253D01*
X158930814Y-120536286D01*
X158940190Y-120558923D01*
X158947549Y-120572691D01*
X158949677Y-120579705D01*
X158951000Y-120593140D01*
X158951000Y-120906860D01*
X158949677Y-120920295D01*
X158947549Y-120927309D01*
X158940190Y-120941077D01*
X158930813Y-120963716D01*
X158926033Y-120987749D01*
X158926033Y-121012253D01*
X158930814Y-121036286D01*
X158940190Y-121058923D01*
X158947549Y-121072691D01*
X158949677Y-121079705D01*
X158951000Y-121093140D01*
X158951000Y-121406860D01*
X158949677Y-121420295D01*
X158947549Y-121427310D01*
X158944092Y-121433776D01*
X158939442Y-121439442D01*
X158933776Y-121444092D01*
X158927310Y-121447549D01*
X158920295Y-121449677D01*
X158906860Y-121451000D01*
X157418140Y-121451000D01*
X157404705Y-121449677D01*
X157397690Y-121447549D01*
X157391224Y-121444092D01*
X157385558Y-121439442D01*
X157380908Y-121433776D01*
X157377451Y-121427310D01*
X157375323Y-121420295D01*
X157374000Y-121406860D01*
X157374000Y-121093140D01*
X157375323Y-121079705D01*
X157377451Y-121072691D01*
X157384810Y-121058923D01*
X157394187Y-121036284D01*
X157398967Y-121012251D01*
X157398967Y-120987747D01*
X157394186Y-120963714D01*
X157384810Y-120941077D01*
X157377451Y-120927309D01*
X157375323Y-120920295D01*
X157374000Y-120906860D01*
X157374000Y-120593140D01*
X157375323Y-120579705D01*
X157377451Y-120572691D01*
X157384810Y-120558923D01*
X157394187Y-120536284D01*
X157398967Y-120512251D01*
X157398967Y-120487747D01*
X157394186Y-120463714D01*
X157384810Y-120441077D01*
X157377451Y-120427309D01*
X157375323Y-120420295D01*
X157374000Y-120406860D01*
X157374000Y-120093140D01*
X157375323Y-120079705D01*
X157377451Y-120072691D01*
X157384810Y-120058923D01*
X157394187Y-120036284D01*
X157398967Y-120012251D01*
X157398967Y-119987747D01*
X157394186Y-119963714D01*
X157384810Y-119941077D01*
X157377451Y-119927309D01*
X157375323Y-119920295D01*
X157374000Y-119906860D01*
X157374000Y-119593140D01*
X157375323Y-119579705D01*
X157377451Y-119572691D01*
X157384810Y-119558923D01*
X157394187Y-119536284D01*
X157398967Y-119512251D01*
X157398967Y-119487747D01*
X157394186Y-119463714D01*
X157384810Y-119441077D01*
X157377451Y-119427309D01*
X157375323Y-119420295D01*
X157374000Y-119406860D01*
X157374000Y-119093140D01*
X157375323Y-119079705D01*
X157377451Y-119072691D01*
X157384810Y-119058923D01*
X157394187Y-119036284D01*
X157398967Y-119012251D01*
X157398967Y-118987747D01*
X157394186Y-118963714D01*
X157384810Y-118941077D01*
X157377451Y-118927309D01*
X157375323Y-118920295D01*
X157374000Y-118906860D01*
X157374000Y-118593140D01*
X157375323Y-118579705D01*
X157377451Y-118572691D01*
X157384810Y-118558923D01*
X157394187Y-118536284D01*
X157398967Y-118512251D01*
X157398967Y-118487747D01*
X157394186Y-118463714D01*
X157384810Y-118441077D01*
X157377451Y-118427309D01*
X157375323Y-118420295D01*
X157374000Y-118406860D01*
X157374000Y-118093140D01*
X157375323Y-118079705D01*
X157377451Y-118072691D01*
X157384810Y-118058923D01*
X157394187Y-118036284D01*
X157398967Y-118012251D01*
X157398967Y-117987747D01*
X157394186Y-117963714D01*
X157384810Y-117941077D01*
X157377451Y-117927309D01*
X157375323Y-117920295D01*
X157374000Y-117906860D01*
X157374000Y-117593140D01*
X157375323Y-117579705D01*
X157377451Y-117572691D01*
X157384810Y-117558923D01*
X157394187Y-117536284D01*
X157398967Y-117512251D01*
X157398967Y-117487747D01*
X157394186Y-117463714D01*
X157384810Y-117441077D01*
X157377451Y-117427309D01*
X157375323Y-117420295D01*
X157374000Y-117406860D01*
X157374000Y-117093140D01*
X157375323Y-117079705D01*
X157377451Y-117072691D01*
X157384810Y-117058923D01*
X157394187Y-117036284D01*
X157398967Y-117012251D01*
X157398967Y-116987747D01*
X157394186Y-116963714D01*
X157384810Y-116941077D01*
X157377451Y-116927309D01*
X157375323Y-116920295D01*
X157374000Y-116906860D01*
X157374000Y-116593140D01*
X157375323Y-116579705D01*
X157377451Y-116572691D01*
X157384810Y-116558923D01*
X157394187Y-116536284D01*
X157398967Y-116512251D01*
X157398967Y-116487747D01*
X157394186Y-116463714D01*
X157384810Y-116441077D01*
X157377451Y-116427309D01*
X157375323Y-116420295D01*
X157374000Y-116406860D01*
X157374000Y-116093140D01*
X157375323Y-116079705D01*
X157377451Y-116072691D01*
X157384810Y-116058923D01*
X157394187Y-116036284D01*
X157398967Y-116012251D01*
X157398967Y-115987747D01*
X157394186Y-115963714D01*
X157384810Y-115941077D01*
X157377451Y-115927309D01*
X157375323Y-115920295D01*
X157374000Y-115906860D01*
X157374000Y-115593140D01*
X157375323Y-115579705D01*
X157377451Y-115572690D01*
X157380908Y-115566224D01*
X157385558Y-115560558D01*
X157391224Y-115555908D01*
X157397690Y-115552451D01*
X157404705Y-115550323D01*
X157418140Y-115549000D01*
X158906860Y-115549000D01*
X158920295Y-115550323D01*
G37*
G36*
X150595295Y-115550323D02*
G01*
X150602310Y-115552451D01*
X150608776Y-115555908D01*
X150614442Y-115560558D01*
X150619092Y-115566224D01*
X150622549Y-115572690D01*
X150624677Y-115579705D01*
X150626000Y-115593140D01*
X150626000Y-115906860D01*
X150624677Y-115920295D01*
X150622549Y-115927309D01*
X150615190Y-115941077D01*
X150605813Y-115963716D01*
X150601033Y-115987749D01*
X150601033Y-116012253D01*
X150605814Y-116036286D01*
X150615190Y-116058923D01*
X150622549Y-116072691D01*
X150624677Y-116079705D01*
X150626000Y-116093140D01*
X150626000Y-116406860D01*
X150624677Y-116420295D01*
X150622549Y-116427309D01*
X150615190Y-116441077D01*
X150605813Y-116463716D01*
X150601033Y-116487749D01*
X150601033Y-116512253D01*
X150605814Y-116536286D01*
X150615190Y-116558923D01*
X150622549Y-116572691D01*
X150624677Y-116579705D01*
X150626000Y-116593140D01*
X150626000Y-116906860D01*
X150624677Y-116920295D01*
X150622549Y-116927309D01*
X150615190Y-116941077D01*
X150605813Y-116963716D01*
X150601033Y-116987749D01*
X150601033Y-117012253D01*
X150605814Y-117036286D01*
X150615190Y-117058923D01*
X150622549Y-117072691D01*
X150624677Y-117079705D01*
X150626000Y-117093140D01*
X150626000Y-117406860D01*
X150624677Y-117420295D01*
X150622549Y-117427309D01*
X150615190Y-117441077D01*
X150605813Y-117463716D01*
X150601033Y-117487749D01*
X150601033Y-117512253D01*
X150605814Y-117536286D01*
X150615190Y-117558923D01*
X150622549Y-117572691D01*
X150624677Y-117579705D01*
X150626000Y-117593140D01*
X150626000Y-117906860D01*
X150624677Y-117920295D01*
X150622549Y-117927309D01*
X150615190Y-117941077D01*
X150605813Y-117963716D01*
X150601033Y-117987749D01*
X150601033Y-118012253D01*
X150605814Y-118036286D01*
X150615190Y-118058923D01*
X150622549Y-118072691D01*
X150624677Y-118079705D01*
X150626000Y-118093140D01*
X150626000Y-118406860D01*
X150624677Y-118420295D01*
X150622549Y-118427309D01*
X150615190Y-118441077D01*
X150605813Y-118463716D01*
X150601033Y-118487749D01*
X150601033Y-118512253D01*
X150605814Y-118536286D01*
X150615190Y-118558923D01*
X150622549Y-118572691D01*
X150624677Y-118579705D01*
X150626000Y-118593140D01*
X150626000Y-118906860D01*
X150624677Y-118920295D01*
X150622549Y-118927309D01*
X150615190Y-118941077D01*
X150605813Y-118963716D01*
X150601033Y-118987749D01*
X150601033Y-119012253D01*
X150605814Y-119036286D01*
X150615190Y-119058923D01*
X150622549Y-119072691D01*
X150624677Y-119079705D01*
X150626000Y-119093140D01*
X150626000Y-119406860D01*
X150624677Y-119420295D01*
X150622549Y-119427309D01*
X150615190Y-119441077D01*
X150605813Y-119463716D01*
X150601033Y-119487749D01*
X150601033Y-119512253D01*
X150605814Y-119536286D01*
X150615190Y-119558923D01*
X150622549Y-119572691D01*
X150624677Y-119579705D01*
X150626000Y-119593140D01*
X150626000Y-119906860D01*
X150624677Y-119920295D01*
X150622549Y-119927309D01*
X150615190Y-119941077D01*
X150605813Y-119963716D01*
X150601033Y-119987749D01*
X150601033Y-120012253D01*
X150605814Y-120036286D01*
X150615190Y-120058923D01*
X150622549Y-120072691D01*
X150624677Y-120079705D01*
X150626000Y-120093140D01*
X150626000Y-120406860D01*
X150624677Y-120420295D01*
X150622549Y-120427309D01*
X150615190Y-120441077D01*
X150605813Y-120463716D01*
X150601033Y-120487749D01*
X150601033Y-120512253D01*
X150605814Y-120536286D01*
X150615190Y-120558923D01*
X150622549Y-120572691D01*
X150624677Y-120579705D01*
X150626000Y-120593140D01*
X150626000Y-120906860D01*
X150624677Y-120920295D01*
X150622549Y-120927309D01*
X150615190Y-120941077D01*
X150605813Y-120963716D01*
X150601033Y-120987749D01*
X150601033Y-121012253D01*
X150605814Y-121036286D01*
X150615190Y-121058923D01*
X150622549Y-121072691D01*
X150624677Y-121079705D01*
X150626000Y-121093140D01*
X150626000Y-121406860D01*
X150624677Y-121420295D01*
X150622549Y-121427310D01*
X150619092Y-121433776D01*
X150614442Y-121439442D01*
X150608776Y-121444092D01*
X150602310Y-121447549D01*
X150595295Y-121449677D01*
X150581860Y-121451000D01*
X149093140Y-121451000D01*
X149079705Y-121449677D01*
X149072690Y-121447549D01*
X149066224Y-121444092D01*
X149060558Y-121439442D01*
X149055908Y-121433776D01*
X149052451Y-121427310D01*
X149050323Y-121420295D01*
X149049000Y-121406860D01*
X149049000Y-121093140D01*
X149050323Y-121079705D01*
X149052451Y-121072691D01*
X149059810Y-121058923D01*
X149069187Y-121036284D01*
X149073967Y-121012251D01*
X149073967Y-120987747D01*
X149069186Y-120963714D01*
X149059810Y-120941077D01*
X149052451Y-120927309D01*
X149050323Y-120920295D01*
X149049000Y-120906860D01*
X149049000Y-120593140D01*
X149050323Y-120579705D01*
X149052451Y-120572691D01*
X149059810Y-120558923D01*
X149069187Y-120536284D01*
X149073967Y-120512251D01*
X149073967Y-120487747D01*
X149069186Y-120463714D01*
X149059810Y-120441077D01*
X149052451Y-120427309D01*
X149050323Y-120420295D01*
X149049000Y-120406860D01*
X149049000Y-120093140D01*
X149050323Y-120079705D01*
X149052451Y-120072691D01*
X149059810Y-120058923D01*
X149069187Y-120036284D01*
X149073967Y-120012251D01*
X149073967Y-119987747D01*
X149069186Y-119963714D01*
X149059810Y-119941077D01*
X149052451Y-119927309D01*
X149050323Y-119920295D01*
X149049000Y-119906860D01*
X149049000Y-119593140D01*
X149050323Y-119579705D01*
X149052451Y-119572691D01*
X149059810Y-119558923D01*
X149069187Y-119536284D01*
X149073967Y-119512251D01*
X149073967Y-119487747D01*
X149069186Y-119463714D01*
X149059810Y-119441077D01*
X149052451Y-119427309D01*
X149050323Y-119420295D01*
X149049000Y-119406860D01*
X149049000Y-119093140D01*
X149050323Y-119079705D01*
X149052451Y-119072691D01*
X149059810Y-119058923D01*
X149069187Y-119036284D01*
X149073967Y-119012251D01*
X149073967Y-118987747D01*
X149069186Y-118963714D01*
X149059810Y-118941077D01*
X149052451Y-118927309D01*
X149050323Y-118920295D01*
X149049000Y-118906860D01*
X149049000Y-118593140D01*
X149050323Y-118579705D01*
X149052451Y-118572691D01*
X149059810Y-118558923D01*
X149069187Y-118536284D01*
X149073967Y-118512251D01*
X149073967Y-118487747D01*
X149069186Y-118463714D01*
X149059810Y-118441077D01*
X149052451Y-118427309D01*
X149050323Y-118420295D01*
X149049000Y-118406860D01*
X149049000Y-118093140D01*
X149050323Y-118079705D01*
X149052451Y-118072691D01*
X149059810Y-118058923D01*
X149069187Y-118036284D01*
X149073967Y-118012251D01*
X149073967Y-117987747D01*
X149069186Y-117963714D01*
X149059810Y-117941077D01*
X149052451Y-117927309D01*
X149050323Y-117920295D01*
X149049000Y-117906860D01*
X149049000Y-117593140D01*
X149050323Y-117579705D01*
X149052451Y-117572691D01*
X149059810Y-117558923D01*
X149069187Y-117536284D01*
X149073967Y-117512251D01*
X149073967Y-117487747D01*
X149069186Y-117463714D01*
X149059810Y-117441077D01*
X149052451Y-117427309D01*
X149050323Y-117420295D01*
X149049000Y-117406860D01*
X149049000Y-117093140D01*
X149050323Y-117079705D01*
X149052451Y-117072691D01*
X149059810Y-117058923D01*
X149069187Y-117036284D01*
X149073967Y-117012251D01*
X149073967Y-116987747D01*
X149069186Y-116963714D01*
X149059810Y-116941077D01*
X149052451Y-116927309D01*
X149050323Y-116920295D01*
X149049000Y-116906860D01*
X149049000Y-116593140D01*
X149050323Y-116579705D01*
X149052451Y-116572691D01*
X149059810Y-116558923D01*
X149069187Y-116536284D01*
X149073967Y-116512251D01*
X149073967Y-116487747D01*
X149069186Y-116463714D01*
X149059810Y-116441077D01*
X149052451Y-116427309D01*
X149050323Y-116420295D01*
X149049000Y-116406860D01*
X149049000Y-116093140D01*
X149050323Y-116079705D01*
X149052451Y-116072691D01*
X149059810Y-116058923D01*
X149069187Y-116036284D01*
X149073967Y-116012251D01*
X149073967Y-115987747D01*
X149069186Y-115963714D01*
X149059810Y-115941077D01*
X149052451Y-115927309D01*
X149050323Y-115920295D01*
X149049000Y-115906860D01*
X149049000Y-115593140D01*
X149050323Y-115579705D01*
X149052451Y-115572690D01*
X149055908Y-115566224D01*
X149060558Y-115560558D01*
X149066224Y-115555908D01*
X149072690Y-115552451D01*
X149079705Y-115550323D01*
X149093140Y-115549000D01*
X150581860Y-115549000D01*
X150595295Y-115550323D01*
G37*
G36*
X170945295Y-116650323D02*
G01*
X170952310Y-116652451D01*
X170958776Y-116655908D01*
X170964442Y-116660558D01*
X170969092Y-116666224D01*
X170972549Y-116672690D01*
X170974677Y-116679705D01*
X170976000Y-116693140D01*
X170976000Y-117006860D01*
X170974677Y-117020295D01*
X170972549Y-117027309D01*
X170965190Y-117041077D01*
X170955813Y-117063716D01*
X170951033Y-117087749D01*
X170951033Y-117112253D01*
X170955814Y-117136286D01*
X170965190Y-117158923D01*
X170972549Y-117172691D01*
X170974677Y-117179705D01*
X170976000Y-117193140D01*
X170976000Y-117506860D01*
X170974677Y-117520295D01*
X170972549Y-117527309D01*
X170965190Y-117541077D01*
X170955813Y-117563716D01*
X170951033Y-117587749D01*
X170951033Y-117612253D01*
X170955814Y-117636286D01*
X170965190Y-117658923D01*
X170972549Y-117672691D01*
X170974677Y-117679705D01*
X170976000Y-117693140D01*
X170976000Y-118006860D01*
X170974677Y-118020295D01*
X170972549Y-118027309D01*
X170965190Y-118041077D01*
X170955813Y-118063716D01*
X170951033Y-118087749D01*
X170951033Y-118112253D01*
X170955814Y-118136286D01*
X170965190Y-118158923D01*
X170972549Y-118172691D01*
X170974677Y-118179705D01*
X170976000Y-118193140D01*
X170976000Y-118506860D01*
X170974677Y-118520295D01*
X170972549Y-118527309D01*
X170965190Y-118541077D01*
X170955813Y-118563716D01*
X170951033Y-118587749D01*
X170951033Y-118612253D01*
X170955814Y-118636286D01*
X170965190Y-118658923D01*
X170972549Y-118672691D01*
X170974677Y-118679705D01*
X170976000Y-118693140D01*
X170976000Y-119006860D01*
X170974677Y-119020295D01*
X170972549Y-119027309D01*
X170965190Y-119041077D01*
X170955813Y-119063716D01*
X170951033Y-119087749D01*
X170951033Y-119112253D01*
X170955814Y-119136286D01*
X170965190Y-119158923D01*
X170972549Y-119172691D01*
X170974677Y-119179705D01*
X170976000Y-119193140D01*
X170976000Y-119506860D01*
X170974677Y-119520295D01*
X170972549Y-119527309D01*
X170965190Y-119541077D01*
X170955813Y-119563716D01*
X170951033Y-119587749D01*
X170951033Y-119612253D01*
X170955814Y-119636286D01*
X170965190Y-119658923D01*
X170972549Y-119672691D01*
X170974677Y-119679705D01*
X170976000Y-119693140D01*
X170976000Y-120006860D01*
X170974677Y-120020295D01*
X170972549Y-120027309D01*
X170965190Y-120041077D01*
X170955813Y-120063716D01*
X170951033Y-120087749D01*
X170951033Y-120112253D01*
X170955814Y-120136286D01*
X170965190Y-120158923D01*
X170972549Y-120172691D01*
X170974677Y-120179705D01*
X170976000Y-120193140D01*
X170976000Y-120506860D01*
X170974677Y-120520295D01*
X170972549Y-120527310D01*
X170969092Y-120533776D01*
X170964442Y-120539442D01*
X170958776Y-120544092D01*
X170952310Y-120547549D01*
X170945295Y-120549677D01*
X170931860Y-120551000D01*
X169418140Y-120551000D01*
X169404705Y-120549677D01*
X169397690Y-120547549D01*
X169391224Y-120544092D01*
X169385558Y-120539442D01*
X169380908Y-120533776D01*
X169377451Y-120527310D01*
X169375323Y-120520295D01*
X169374000Y-120506860D01*
X169374000Y-120193140D01*
X169375323Y-120179705D01*
X169377451Y-120172691D01*
X169384810Y-120158923D01*
X169394187Y-120136284D01*
X169398967Y-120112251D01*
X169398967Y-120087747D01*
X169394186Y-120063714D01*
X169384810Y-120041077D01*
X169377451Y-120027309D01*
X169375323Y-120020295D01*
X169374000Y-120006860D01*
X169374000Y-119693140D01*
X169375323Y-119679705D01*
X169377451Y-119672691D01*
X169384810Y-119658923D01*
X169394187Y-119636284D01*
X169398967Y-119612251D01*
X169398967Y-119587747D01*
X169394186Y-119563714D01*
X169384810Y-119541077D01*
X169377451Y-119527309D01*
X169375323Y-119520295D01*
X169374000Y-119506860D01*
X169374000Y-119193140D01*
X169375323Y-119179705D01*
X169377451Y-119172691D01*
X169384810Y-119158923D01*
X169394187Y-119136284D01*
X169398967Y-119112251D01*
X169398967Y-119087747D01*
X169394186Y-119063714D01*
X169384810Y-119041077D01*
X169377451Y-119027309D01*
X169375323Y-119020295D01*
X169374000Y-119006860D01*
X169374000Y-118693140D01*
X169375323Y-118679705D01*
X169377451Y-118672691D01*
X169384810Y-118658923D01*
X169394187Y-118636284D01*
X169398967Y-118612251D01*
X169398967Y-118587747D01*
X169394186Y-118563714D01*
X169384810Y-118541077D01*
X169377451Y-118527309D01*
X169375323Y-118520295D01*
X169374000Y-118506860D01*
X169374000Y-118193140D01*
X169375323Y-118179705D01*
X169377451Y-118172691D01*
X169384810Y-118158923D01*
X169394187Y-118136284D01*
X169398967Y-118112251D01*
X169398967Y-118087747D01*
X169394186Y-118063714D01*
X169384810Y-118041077D01*
X169377451Y-118027309D01*
X169375323Y-118020295D01*
X169374000Y-118006860D01*
X169374000Y-117693140D01*
X169375323Y-117679705D01*
X169377451Y-117672691D01*
X169384810Y-117658923D01*
X169394187Y-117636284D01*
X169398967Y-117612251D01*
X169398967Y-117587747D01*
X169394186Y-117563714D01*
X169384810Y-117541077D01*
X169377451Y-117527309D01*
X169375323Y-117520295D01*
X169374000Y-117506860D01*
X169374000Y-117193140D01*
X169375323Y-117179705D01*
X169377451Y-117172691D01*
X169384810Y-117158923D01*
X169394187Y-117136284D01*
X169398967Y-117112251D01*
X169398967Y-117087747D01*
X169394186Y-117063714D01*
X169384810Y-117041077D01*
X169377451Y-117027309D01*
X169375323Y-117020295D01*
X169374000Y-117006860D01*
X169374000Y-116693140D01*
X169375323Y-116679705D01*
X169377451Y-116672690D01*
X169380908Y-116666224D01*
X169385558Y-116660558D01*
X169391224Y-116655908D01*
X169397690Y-116652451D01*
X169404705Y-116650323D01*
X169418140Y-116649000D01*
X170931860Y-116649000D01*
X170945295Y-116650323D01*
G37*
G36*
X164595295Y-116650323D02*
G01*
X164602310Y-116652451D01*
X164608776Y-116655908D01*
X164614442Y-116660558D01*
X164619092Y-116666224D01*
X164622549Y-116672690D01*
X164624677Y-116679705D01*
X164626000Y-116693140D01*
X164626000Y-117006860D01*
X164624677Y-117020295D01*
X164622549Y-117027309D01*
X164615190Y-117041077D01*
X164605813Y-117063716D01*
X164601033Y-117087749D01*
X164601033Y-117112253D01*
X164605814Y-117136286D01*
X164615190Y-117158923D01*
X164622549Y-117172691D01*
X164624677Y-117179705D01*
X164626000Y-117193140D01*
X164626000Y-117506860D01*
X164624677Y-117520295D01*
X164622549Y-117527309D01*
X164615190Y-117541077D01*
X164605813Y-117563716D01*
X164601033Y-117587749D01*
X164601033Y-117612253D01*
X164605814Y-117636286D01*
X164615190Y-117658923D01*
X164622549Y-117672691D01*
X164624677Y-117679705D01*
X164626000Y-117693140D01*
X164626000Y-118006860D01*
X164624677Y-118020295D01*
X164622549Y-118027309D01*
X164615190Y-118041077D01*
X164605813Y-118063716D01*
X164601033Y-118087749D01*
X164601033Y-118112253D01*
X164605814Y-118136286D01*
X164615190Y-118158923D01*
X164622549Y-118172691D01*
X164624677Y-118179705D01*
X164626000Y-118193140D01*
X164626000Y-118506860D01*
X164624677Y-118520295D01*
X164622549Y-118527309D01*
X164615190Y-118541077D01*
X164605813Y-118563716D01*
X164601033Y-118587749D01*
X164601033Y-118612253D01*
X164605814Y-118636286D01*
X164615190Y-118658923D01*
X164622549Y-118672691D01*
X164624677Y-118679705D01*
X164626000Y-118693140D01*
X164626000Y-119006860D01*
X164624677Y-119020295D01*
X164622549Y-119027309D01*
X164615190Y-119041077D01*
X164605813Y-119063716D01*
X164601033Y-119087749D01*
X164601033Y-119112253D01*
X164605814Y-119136286D01*
X164615190Y-119158923D01*
X164622549Y-119172691D01*
X164624677Y-119179705D01*
X164626000Y-119193140D01*
X164626000Y-119506860D01*
X164624677Y-119520295D01*
X164622549Y-119527309D01*
X164615190Y-119541077D01*
X164605813Y-119563716D01*
X164601033Y-119587749D01*
X164601033Y-119612253D01*
X164605814Y-119636286D01*
X164615190Y-119658923D01*
X164622549Y-119672691D01*
X164624677Y-119679705D01*
X164626000Y-119693140D01*
X164626000Y-120006860D01*
X164624677Y-120020295D01*
X164622549Y-120027309D01*
X164615190Y-120041077D01*
X164605813Y-120063716D01*
X164601033Y-120087749D01*
X164601033Y-120112253D01*
X164605814Y-120136286D01*
X164615190Y-120158923D01*
X164622549Y-120172691D01*
X164624677Y-120179705D01*
X164626000Y-120193140D01*
X164626000Y-120506860D01*
X164624677Y-120520295D01*
X164622549Y-120527310D01*
X164619092Y-120533776D01*
X164614442Y-120539442D01*
X164608776Y-120544092D01*
X164602310Y-120547549D01*
X164595295Y-120549677D01*
X164581860Y-120551000D01*
X163068140Y-120551000D01*
X163054705Y-120549677D01*
X163047690Y-120547549D01*
X163041224Y-120544092D01*
X163035558Y-120539442D01*
X163030908Y-120533776D01*
X163027451Y-120527310D01*
X163025323Y-120520295D01*
X163024000Y-120506860D01*
X163024000Y-120193140D01*
X163025323Y-120179705D01*
X163027451Y-120172691D01*
X163034810Y-120158923D01*
X163044187Y-120136284D01*
X163048967Y-120112251D01*
X163048967Y-120087747D01*
X163044186Y-120063714D01*
X163034810Y-120041077D01*
X163027451Y-120027309D01*
X163025323Y-120020295D01*
X163024000Y-120006860D01*
X163024000Y-119693140D01*
X163025323Y-119679705D01*
X163027451Y-119672691D01*
X163034810Y-119658923D01*
X163044187Y-119636284D01*
X163048967Y-119612251D01*
X163048967Y-119587747D01*
X163044186Y-119563714D01*
X163034810Y-119541077D01*
X163027451Y-119527309D01*
X163025323Y-119520295D01*
X163024000Y-119506860D01*
X163024000Y-119193140D01*
X163025323Y-119179705D01*
X163027451Y-119172691D01*
X163034810Y-119158923D01*
X163044187Y-119136284D01*
X163048967Y-119112251D01*
X163048967Y-119087747D01*
X163044186Y-119063714D01*
X163034810Y-119041077D01*
X163027451Y-119027309D01*
X163025323Y-119020295D01*
X163024000Y-119006860D01*
X163024000Y-118693140D01*
X163025323Y-118679705D01*
X163027451Y-118672691D01*
X163034810Y-118658923D01*
X163044187Y-118636284D01*
X163048967Y-118612251D01*
X163048967Y-118587747D01*
X163044186Y-118563714D01*
X163034810Y-118541077D01*
X163027451Y-118527309D01*
X163025323Y-118520295D01*
X163024000Y-118506860D01*
X163024000Y-118193140D01*
X163025323Y-118179705D01*
X163027451Y-118172691D01*
X163034810Y-118158923D01*
X163044187Y-118136284D01*
X163048967Y-118112251D01*
X163048967Y-118087747D01*
X163044186Y-118063714D01*
X163034810Y-118041077D01*
X163027451Y-118027309D01*
X163025323Y-118020295D01*
X163024000Y-118006860D01*
X163024000Y-117693140D01*
X163025323Y-117679705D01*
X163027451Y-117672691D01*
X163034810Y-117658923D01*
X163044187Y-117636284D01*
X163048967Y-117612251D01*
X163048967Y-117587747D01*
X163044186Y-117563714D01*
X163034810Y-117541077D01*
X163027451Y-117527309D01*
X163025323Y-117520295D01*
X163024000Y-117506860D01*
X163024000Y-117193140D01*
X163025323Y-117179705D01*
X163027451Y-117172691D01*
X163034810Y-117158923D01*
X163044187Y-117136284D01*
X163048967Y-117112251D01*
X163048967Y-117087747D01*
X163044186Y-117063714D01*
X163034810Y-117041077D01*
X163027451Y-117027309D01*
X163025323Y-117020295D01*
X163024000Y-117006860D01*
X163024000Y-116693140D01*
X163025323Y-116679705D01*
X163027451Y-116672690D01*
X163030908Y-116666224D01*
X163035558Y-116660558D01*
X163041224Y-116655908D01*
X163047690Y-116652451D01*
X163054705Y-116650323D01*
X163068140Y-116649000D01*
X164581860Y-116649000D01*
X164595295Y-116650323D01*
G37*
G36*
X165420295Y-114625323D02*
G01*
X165427309Y-114627451D01*
X165441077Y-114634810D01*
X165463716Y-114644187D01*
X165487749Y-114648967D01*
X165512253Y-114648967D01*
X165536286Y-114644186D01*
X165558923Y-114634810D01*
X165572691Y-114627451D01*
X165579705Y-114625323D01*
X165593140Y-114624000D01*
X165906860Y-114624000D01*
X165920295Y-114625323D01*
X165927309Y-114627451D01*
X165941077Y-114634810D01*
X165963716Y-114644187D01*
X165987749Y-114648967D01*
X166012253Y-114648967D01*
X166036286Y-114644186D01*
X166058923Y-114634810D01*
X166072691Y-114627451D01*
X166079705Y-114625323D01*
X166093140Y-114624000D01*
X166406860Y-114624000D01*
X166420295Y-114625323D01*
X166427309Y-114627451D01*
X166441077Y-114634810D01*
X166463716Y-114644187D01*
X166487749Y-114648967D01*
X166512253Y-114648967D01*
X166536286Y-114644186D01*
X166558923Y-114634810D01*
X166572691Y-114627451D01*
X166579705Y-114625323D01*
X166593140Y-114624000D01*
X166906860Y-114624000D01*
X166920295Y-114625323D01*
X166927309Y-114627451D01*
X166941077Y-114634810D01*
X166963716Y-114644187D01*
X166987749Y-114648967D01*
X167012253Y-114648967D01*
X167036286Y-114644186D01*
X167058923Y-114634810D01*
X167072691Y-114627451D01*
X167079705Y-114625323D01*
X167093140Y-114624000D01*
X167406860Y-114624000D01*
X167420295Y-114625323D01*
X167427309Y-114627451D01*
X167441077Y-114634810D01*
X167463716Y-114644187D01*
X167487749Y-114648967D01*
X167512253Y-114648967D01*
X167536286Y-114644186D01*
X167558923Y-114634810D01*
X167572691Y-114627451D01*
X167579705Y-114625323D01*
X167593140Y-114624000D01*
X167906860Y-114624000D01*
X167920295Y-114625323D01*
X167927309Y-114627451D01*
X167941077Y-114634810D01*
X167963716Y-114644187D01*
X167987749Y-114648967D01*
X168012253Y-114648967D01*
X168036286Y-114644186D01*
X168058923Y-114634810D01*
X168072691Y-114627451D01*
X168079705Y-114625323D01*
X168093140Y-114624000D01*
X168406860Y-114624000D01*
X168420295Y-114625323D01*
X168427309Y-114627451D01*
X168441077Y-114634810D01*
X168463716Y-114644187D01*
X168487749Y-114648967D01*
X168512253Y-114648967D01*
X168536286Y-114644186D01*
X168558923Y-114634810D01*
X168572691Y-114627451D01*
X168579705Y-114625323D01*
X168593140Y-114624000D01*
X168906860Y-114624000D01*
X168920295Y-114625323D01*
X168927310Y-114627451D01*
X168933776Y-114630908D01*
X168939442Y-114635558D01*
X168944092Y-114641224D01*
X168947549Y-114647690D01*
X168949677Y-114654705D01*
X168951000Y-114668140D01*
X168951000Y-116181860D01*
X168949677Y-116195295D01*
X168947549Y-116202310D01*
X168944092Y-116208776D01*
X168939442Y-116214442D01*
X168933776Y-116219092D01*
X168927310Y-116222549D01*
X168920295Y-116224677D01*
X168906860Y-116226000D01*
X168593140Y-116226000D01*
X168579705Y-116224677D01*
X168572691Y-116222549D01*
X168558923Y-116215190D01*
X168536284Y-116205813D01*
X168512251Y-116201033D01*
X168487747Y-116201033D01*
X168463714Y-116205814D01*
X168441077Y-116215190D01*
X168427309Y-116222549D01*
X168420295Y-116224677D01*
X168406860Y-116226000D01*
X168093140Y-116226000D01*
X168079705Y-116224677D01*
X168072691Y-116222549D01*
X168058923Y-116215190D01*
X168036284Y-116205813D01*
X168012251Y-116201033D01*
X167987747Y-116201033D01*
X167963714Y-116205814D01*
X167941077Y-116215190D01*
X167927309Y-116222549D01*
X167920295Y-116224677D01*
X167906860Y-116226000D01*
X167593140Y-116226000D01*
X167579705Y-116224677D01*
X167572691Y-116222549D01*
X167558923Y-116215190D01*
X167536284Y-116205813D01*
X167512251Y-116201033D01*
X167487747Y-116201033D01*
X167463714Y-116205814D01*
X167441077Y-116215190D01*
X167427309Y-116222549D01*
X167420295Y-116224677D01*
X167406860Y-116226000D01*
X167093140Y-116226000D01*
X167079705Y-116224677D01*
X167072691Y-116222549D01*
X167058923Y-116215190D01*
X167036284Y-116205813D01*
X167012251Y-116201033D01*
X166987747Y-116201033D01*
X166963714Y-116205814D01*
X166941077Y-116215190D01*
X166927309Y-116222549D01*
X166920295Y-116224677D01*
X166906860Y-116226000D01*
X166593140Y-116226000D01*
X166579705Y-116224677D01*
X166572691Y-116222549D01*
X166558923Y-116215190D01*
X166536284Y-116205813D01*
X166512251Y-116201033D01*
X166487747Y-116201033D01*
X166463714Y-116205814D01*
X166441077Y-116215190D01*
X166427309Y-116222549D01*
X166420295Y-116224677D01*
X166406860Y-116226000D01*
X166093140Y-116226000D01*
X166079705Y-116224677D01*
X166072691Y-116222549D01*
X166058923Y-116215190D01*
X166036284Y-116205813D01*
X166012251Y-116201033D01*
X165987747Y-116201033D01*
X165963714Y-116205814D01*
X165941077Y-116215190D01*
X165927309Y-116222549D01*
X165920295Y-116224677D01*
X165906860Y-116226000D01*
X165593140Y-116226000D01*
X165579705Y-116224677D01*
X165572691Y-116222549D01*
X165558923Y-116215190D01*
X165536284Y-116205813D01*
X165512251Y-116201033D01*
X165487747Y-116201033D01*
X165463714Y-116205814D01*
X165441077Y-116215190D01*
X165427309Y-116222549D01*
X165420295Y-116224677D01*
X165406860Y-116226000D01*
X165093140Y-116226000D01*
X165079705Y-116224677D01*
X165072690Y-116222549D01*
X165066224Y-116219092D01*
X165060558Y-116214442D01*
X165055908Y-116208776D01*
X165052451Y-116202310D01*
X165050323Y-116195295D01*
X165049000Y-116181860D01*
X165049000Y-114668140D01*
X165050323Y-114654705D01*
X165052451Y-114647690D01*
X165055908Y-114641224D01*
X165060558Y-114635558D01*
X165066224Y-114630908D01*
X165072690Y-114627451D01*
X165079705Y-114625323D01*
X165093140Y-114624000D01*
X165406860Y-114624000D01*
X165420295Y-114625323D01*
G37*
G36*
X219669085Y-111823975D02*
G01*
X220024143Y-111971045D01*
X220024145Y-111971046D01*
X220343690Y-112184559D01*
X220615441Y-112456310D01*
X220734514Y-112634516D01*
X220828955Y-112775857D01*
X220976025Y-113130915D01*
X221051000Y-113507842D01*
X221051000Y-113892158D01*
X220976025Y-114269085D01*
X220860080Y-114549000D01*
X220828954Y-114624145D01*
X220615441Y-114943690D01*
X220343690Y-115215441D01*
X220024145Y-115428954D01*
X220024144Y-115428955D01*
X220024143Y-115428955D01*
X219669085Y-115576025D01*
X219292158Y-115651000D01*
X218907842Y-115651000D01*
X218530915Y-115576025D01*
X218175857Y-115428955D01*
X218175856Y-115428955D01*
X218175855Y-115428954D01*
X217856310Y-115215441D01*
X217584559Y-114943690D01*
X217371046Y-114624145D01*
X217339920Y-114549000D01*
X217223975Y-114269085D01*
X217149000Y-113892158D01*
X217149000Y-113507842D01*
X217223975Y-113130915D01*
X217371045Y-112775857D01*
X217465486Y-112634516D01*
X217584559Y-112456310D01*
X217856310Y-112184559D01*
X218175855Y-111971046D01*
X218175857Y-111971045D01*
X218530915Y-111823975D01*
X218907842Y-111749000D01*
X219292158Y-111749000D01*
X219669085Y-111823975D01*
G37*
G36*
X151420295Y-113550323D02*
G01*
X151427309Y-113552451D01*
X151441077Y-113559810D01*
X151463716Y-113569187D01*
X151487749Y-113573967D01*
X151512253Y-113573967D01*
X151536286Y-113569186D01*
X151558923Y-113559810D01*
X151572691Y-113552451D01*
X151579705Y-113550323D01*
X151593140Y-113549000D01*
X151906860Y-113549000D01*
X151920295Y-113550323D01*
X151927309Y-113552451D01*
X151941077Y-113559810D01*
X151963716Y-113569187D01*
X151987749Y-113573967D01*
X152012253Y-113573967D01*
X152036286Y-113569186D01*
X152058923Y-113559810D01*
X152072691Y-113552451D01*
X152079705Y-113550323D01*
X152093140Y-113549000D01*
X152406860Y-113549000D01*
X152420295Y-113550323D01*
X152427309Y-113552451D01*
X152441077Y-113559810D01*
X152463716Y-113569187D01*
X152487749Y-113573967D01*
X152512253Y-113573967D01*
X152536286Y-113569186D01*
X152558923Y-113559810D01*
X152572691Y-113552451D01*
X152579705Y-113550323D01*
X152593140Y-113549000D01*
X152906860Y-113549000D01*
X152920295Y-113550323D01*
X152927309Y-113552451D01*
X152941077Y-113559810D01*
X152963716Y-113569187D01*
X152987749Y-113573967D01*
X153012253Y-113573967D01*
X153036286Y-113569186D01*
X153058923Y-113559810D01*
X153072691Y-113552451D01*
X153079705Y-113550323D01*
X153093140Y-113549000D01*
X153406860Y-113549000D01*
X153420295Y-113550323D01*
X153427309Y-113552451D01*
X153441077Y-113559810D01*
X153463716Y-113569187D01*
X153487749Y-113573967D01*
X153512253Y-113573967D01*
X153536286Y-113569186D01*
X153558923Y-113559810D01*
X153572691Y-113552451D01*
X153579705Y-113550323D01*
X153593140Y-113549000D01*
X153906860Y-113549000D01*
X153920295Y-113550323D01*
X153927309Y-113552451D01*
X153941077Y-113559810D01*
X153963716Y-113569187D01*
X153987749Y-113573967D01*
X154012253Y-113573967D01*
X154036286Y-113569186D01*
X154058923Y-113559810D01*
X154072691Y-113552451D01*
X154079705Y-113550323D01*
X154093140Y-113549000D01*
X154406860Y-113549000D01*
X154420295Y-113550323D01*
X154427309Y-113552451D01*
X154441077Y-113559810D01*
X154463716Y-113569187D01*
X154487749Y-113573967D01*
X154512253Y-113573967D01*
X154536286Y-113569186D01*
X154558923Y-113559810D01*
X154572691Y-113552451D01*
X154579705Y-113550323D01*
X154593140Y-113549000D01*
X154906860Y-113549000D01*
X154920295Y-113550323D01*
X154927309Y-113552451D01*
X154941077Y-113559810D01*
X154963716Y-113569187D01*
X154987749Y-113573967D01*
X155012253Y-113573967D01*
X155036286Y-113569186D01*
X155058923Y-113559810D01*
X155072691Y-113552451D01*
X155079705Y-113550323D01*
X155093140Y-113549000D01*
X155406860Y-113549000D01*
X155420295Y-113550323D01*
X155427309Y-113552451D01*
X155441077Y-113559810D01*
X155463716Y-113569187D01*
X155487749Y-113573967D01*
X155512253Y-113573967D01*
X155536286Y-113569186D01*
X155558923Y-113559810D01*
X155572691Y-113552451D01*
X155579705Y-113550323D01*
X155593140Y-113549000D01*
X155906860Y-113549000D01*
X155920295Y-113550323D01*
X155927309Y-113552451D01*
X155941077Y-113559810D01*
X155963716Y-113569187D01*
X155987749Y-113573967D01*
X156012253Y-113573967D01*
X156036286Y-113569186D01*
X156058923Y-113559810D01*
X156072691Y-113552451D01*
X156079705Y-113550323D01*
X156093140Y-113549000D01*
X156406860Y-113549000D01*
X156420295Y-113550323D01*
X156427309Y-113552451D01*
X156441077Y-113559810D01*
X156463716Y-113569187D01*
X156487749Y-113573967D01*
X156512253Y-113573967D01*
X156536286Y-113569186D01*
X156558923Y-113559810D01*
X156572691Y-113552451D01*
X156579705Y-113550323D01*
X156593140Y-113549000D01*
X156906860Y-113549000D01*
X156920295Y-113550323D01*
X156927310Y-113552451D01*
X156933776Y-113555908D01*
X156939442Y-113560558D01*
X156944092Y-113566224D01*
X156947549Y-113572690D01*
X156949677Y-113579705D01*
X156951000Y-113593140D01*
X156951000Y-115081860D01*
X156949677Y-115095295D01*
X156947549Y-115102310D01*
X156944092Y-115108776D01*
X156939442Y-115114442D01*
X156933776Y-115119092D01*
X156927310Y-115122549D01*
X156920295Y-115124677D01*
X156906860Y-115126000D01*
X156593140Y-115126000D01*
X156579705Y-115124677D01*
X156572691Y-115122549D01*
X156558923Y-115115190D01*
X156536284Y-115105813D01*
X156512251Y-115101033D01*
X156487747Y-115101033D01*
X156463714Y-115105814D01*
X156441077Y-115115190D01*
X156427309Y-115122549D01*
X156420295Y-115124677D01*
X156406860Y-115126000D01*
X156093140Y-115126000D01*
X156079705Y-115124677D01*
X156072691Y-115122549D01*
X156058923Y-115115190D01*
X156036284Y-115105813D01*
X156012251Y-115101033D01*
X155987747Y-115101033D01*
X155963714Y-115105814D01*
X155941077Y-115115190D01*
X155927309Y-115122549D01*
X155920295Y-115124677D01*
X155906860Y-115126000D01*
X155593140Y-115126000D01*
X155579705Y-115124677D01*
X155572691Y-115122549D01*
X155558923Y-115115190D01*
X155536284Y-115105813D01*
X155512251Y-115101033D01*
X155487747Y-115101033D01*
X155463714Y-115105814D01*
X155441077Y-115115190D01*
X155427309Y-115122549D01*
X155420295Y-115124677D01*
X155406860Y-115126000D01*
X155093140Y-115126000D01*
X155079705Y-115124677D01*
X155072691Y-115122549D01*
X155058923Y-115115190D01*
X155036284Y-115105813D01*
X155012251Y-115101033D01*
X154987747Y-115101033D01*
X154963714Y-115105814D01*
X154941077Y-115115190D01*
X154927309Y-115122549D01*
X154920295Y-115124677D01*
X154906860Y-115126000D01*
X154593140Y-115126000D01*
X154579705Y-115124677D01*
X154572691Y-115122549D01*
X154558923Y-115115190D01*
X154536284Y-115105813D01*
X154512251Y-115101033D01*
X154487747Y-115101033D01*
X154463714Y-115105814D01*
X154441077Y-115115190D01*
X154427309Y-115122549D01*
X154420295Y-115124677D01*
X154406860Y-115126000D01*
X154093140Y-115126000D01*
X154079705Y-115124677D01*
X154072691Y-115122549D01*
X154058923Y-115115190D01*
X154036284Y-115105813D01*
X154012251Y-115101033D01*
X153987747Y-115101033D01*
X153963714Y-115105814D01*
X153941077Y-115115190D01*
X153927309Y-115122549D01*
X153920295Y-115124677D01*
X153906860Y-115126000D01*
X153593140Y-115126000D01*
X153579705Y-115124677D01*
X153572691Y-115122549D01*
X153558923Y-115115190D01*
X153536284Y-115105813D01*
X153512251Y-115101033D01*
X153487747Y-115101033D01*
X153463714Y-115105814D01*
X153441077Y-115115190D01*
X153427309Y-115122549D01*
X153420295Y-115124677D01*
X153406860Y-115126000D01*
X153093140Y-115126000D01*
X153079705Y-115124677D01*
X153072691Y-115122549D01*
X153058923Y-115115190D01*
X153036284Y-115105813D01*
X153012251Y-115101033D01*
X152987747Y-115101033D01*
X152963714Y-115105814D01*
X152941077Y-115115190D01*
X152927309Y-115122549D01*
X152920295Y-115124677D01*
X152906860Y-115126000D01*
X152593140Y-115126000D01*
X152579705Y-115124677D01*
X152572691Y-115122549D01*
X152558923Y-115115190D01*
X152536284Y-115105813D01*
X152512251Y-115101033D01*
X152487747Y-115101033D01*
X152463714Y-115105814D01*
X152441077Y-115115190D01*
X152427309Y-115122549D01*
X152420295Y-115124677D01*
X152406860Y-115126000D01*
X152093140Y-115126000D01*
X152079705Y-115124677D01*
X152072691Y-115122549D01*
X152058923Y-115115190D01*
X152036284Y-115105813D01*
X152012251Y-115101033D01*
X151987747Y-115101033D01*
X151963714Y-115105814D01*
X151941077Y-115115190D01*
X151927309Y-115122549D01*
X151920295Y-115124677D01*
X151906860Y-115126000D01*
X151593140Y-115126000D01*
X151579705Y-115124677D01*
X151572691Y-115122549D01*
X151558923Y-115115190D01*
X151536284Y-115105813D01*
X151512251Y-115101033D01*
X151487747Y-115101033D01*
X151463714Y-115105814D01*
X151441077Y-115115190D01*
X151427309Y-115122549D01*
X151420295Y-115124677D01*
X151406860Y-115126000D01*
X151093140Y-115126000D01*
X151079705Y-115124677D01*
X151072690Y-115122549D01*
X151066224Y-115119092D01*
X151060558Y-115114442D01*
X151055908Y-115108776D01*
X151052451Y-115102310D01*
X151050323Y-115095295D01*
X151049000Y-115081860D01*
X151049000Y-113593140D01*
X151050323Y-113579705D01*
X151052451Y-113572690D01*
X151055908Y-113566224D01*
X151060558Y-113560558D01*
X151066224Y-113555908D01*
X151072690Y-113552451D01*
X151079705Y-113550323D01*
X151093140Y-113549000D01*
X151406860Y-113549000D01*
X151420295Y-113550323D01*
G37*
G36*
X136020295Y-111900323D02*
G01*
X136027309Y-111902451D01*
X136041077Y-111909810D01*
X136063716Y-111919187D01*
X136087749Y-111923967D01*
X136112253Y-111923967D01*
X136136286Y-111919186D01*
X136158923Y-111909810D01*
X136172691Y-111902451D01*
X136179705Y-111900323D01*
X136193140Y-111899000D01*
X136506860Y-111899000D01*
X136520295Y-111900323D01*
X136527309Y-111902451D01*
X136541077Y-111909810D01*
X136563716Y-111919187D01*
X136587749Y-111923967D01*
X136612253Y-111923967D01*
X136636286Y-111919186D01*
X136658923Y-111909810D01*
X136672691Y-111902451D01*
X136679705Y-111900323D01*
X136693140Y-111899000D01*
X137006860Y-111899000D01*
X137020295Y-111900323D01*
X137027309Y-111902451D01*
X137041077Y-111909810D01*
X137063716Y-111919187D01*
X137087749Y-111923967D01*
X137112253Y-111923967D01*
X137136286Y-111919186D01*
X137158923Y-111909810D01*
X137172691Y-111902451D01*
X137179705Y-111900323D01*
X137193140Y-111899000D01*
X137506860Y-111899000D01*
X137520295Y-111900323D01*
X137527309Y-111902451D01*
X137541077Y-111909810D01*
X137563716Y-111919187D01*
X137587749Y-111923967D01*
X137612253Y-111923967D01*
X137636286Y-111919186D01*
X137658923Y-111909810D01*
X137672691Y-111902451D01*
X137679705Y-111900323D01*
X137693140Y-111899000D01*
X138006860Y-111899000D01*
X138020295Y-111900323D01*
X138027309Y-111902451D01*
X138041077Y-111909810D01*
X138063716Y-111919187D01*
X138087749Y-111923967D01*
X138112253Y-111923967D01*
X138136286Y-111919186D01*
X138158923Y-111909810D01*
X138172691Y-111902451D01*
X138179705Y-111900323D01*
X138193140Y-111899000D01*
X138506860Y-111899000D01*
X138520295Y-111900323D01*
X138527309Y-111902451D01*
X138541077Y-111909810D01*
X138563716Y-111919187D01*
X138587749Y-111923967D01*
X138612253Y-111923967D01*
X138636286Y-111919186D01*
X138658923Y-111909810D01*
X138672691Y-111902451D01*
X138679705Y-111900323D01*
X138693140Y-111899000D01*
X139006860Y-111899000D01*
X139020295Y-111900323D01*
X139027309Y-111902451D01*
X139041077Y-111909810D01*
X139063716Y-111919187D01*
X139087749Y-111923967D01*
X139112253Y-111923967D01*
X139136286Y-111919186D01*
X139158923Y-111909810D01*
X139172691Y-111902451D01*
X139179705Y-111900323D01*
X139193140Y-111899000D01*
X139506860Y-111899000D01*
X139520295Y-111900323D01*
X139527309Y-111902451D01*
X139541077Y-111909810D01*
X139563716Y-111919187D01*
X139587749Y-111923967D01*
X139612253Y-111923967D01*
X139636286Y-111919186D01*
X139658923Y-111909810D01*
X139672691Y-111902451D01*
X139679705Y-111900323D01*
X139693140Y-111899000D01*
X140006860Y-111899000D01*
X140020295Y-111900323D01*
X140027309Y-111902451D01*
X140041077Y-111909810D01*
X140063716Y-111919187D01*
X140087749Y-111923967D01*
X140112253Y-111923967D01*
X140136286Y-111919186D01*
X140158923Y-111909810D01*
X140172691Y-111902451D01*
X140179705Y-111900323D01*
X140193140Y-111899000D01*
X140506860Y-111899000D01*
X140520295Y-111900323D01*
X140527309Y-111902451D01*
X140541077Y-111909810D01*
X140563716Y-111919187D01*
X140587749Y-111923967D01*
X140612253Y-111923967D01*
X140636286Y-111919186D01*
X140658923Y-111909810D01*
X140672691Y-111902451D01*
X140679705Y-111900323D01*
X140693140Y-111899000D01*
X141006860Y-111899000D01*
X141020295Y-111900323D01*
X141027309Y-111902451D01*
X141041077Y-111909810D01*
X141063716Y-111919187D01*
X141087749Y-111923967D01*
X141112253Y-111923967D01*
X141136286Y-111919186D01*
X141158923Y-111909810D01*
X141172691Y-111902451D01*
X141179705Y-111900323D01*
X141193140Y-111899000D01*
X141506860Y-111899000D01*
X141520295Y-111900323D01*
X141527309Y-111902451D01*
X141541077Y-111909810D01*
X141563716Y-111919187D01*
X141587749Y-111923967D01*
X141612253Y-111923967D01*
X141636286Y-111919186D01*
X141658923Y-111909810D01*
X141672691Y-111902451D01*
X141679705Y-111900323D01*
X141693140Y-111899000D01*
X142006860Y-111899000D01*
X142020295Y-111900323D01*
X142027309Y-111902451D01*
X142041077Y-111909810D01*
X142063716Y-111919187D01*
X142087749Y-111923967D01*
X142112253Y-111923967D01*
X142136286Y-111919186D01*
X142158923Y-111909810D01*
X142172691Y-111902451D01*
X142179705Y-111900323D01*
X142193140Y-111899000D01*
X142506860Y-111899000D01*
X142520295Y-111900323D01*
X142527309Y-111902451D01*
X142541077Y-111909810D01*
X142563716Y-111919187D01*
X142587749Y-111923967D01*
X142612253Y-111923967D01*
X142636286Y-111919186D01*
X142658923Y-111909810D01*
X142672691Y-111902451D01*
X142679705Y-111900323D01*
X142693140Y-111899000D01*
X143006860Y-111899000D01*
X143020295Y-111900323D01*
X143027309Y-111902451D01*
X143041077Y-111909810D01*
X143063716Y-111919187D01*
X143087749Y-111923967D01*
X143112253Y-111923967D01*
X143136286Y-111919186D01*
X143158923Y-111909810D01*
X143172691Y-111902451D01*
X143179705Y-111900323D01*
X143193140Y-111899000D01*
X143506860Y-111899000D01*
X143520295Y-111900323D01*
X143527310Y-111902451D01*
X143533776Y-111905908D01*
X143539442Y-111910558D01*
X143544092Y-111916224D01*
X143547549Y-111922690D01*
X143549677Y-111929705D01*
X143551000Y-111943140D01*
X143551000Y-113506860D01*
X143549677Y-113520295D01*
X143547549Y-113527310D01*
X143544092Y-113533776D01*
X143539442Y-113539442D01*
X143533776Y-113544092D01*
X143527310Y-113547549D01*
X143520295Y-113549677D01*
X143506860Y-113551000D01*
X143193140Y-113551000D01*
X143179705Y-113549677D01*
X143172691Y-113547549D01*
X143158923Y-113540190D01*
X143136284Y-113530813D01*
X143112251Y-113526033D01*
X143087747Y-113526033D01*
X143063714Y-113530814D01*
X143041077Y-113540190D01*
X143027309Y-113547549D01*
X143020295Y-113549677D01*
X143006860Y-113551000D01*
X142693140Y-113551000D01*
X142679705Y-113549677D01*
X142672691Y-113547549D01*
X142658923Y-113540190D01*
X142636284Y-113530813D01*
X142612251Y-113526033D01*
X142587747Y-113526033D01*
X142563714Y-113530814D01*
X142541077Y-113540190D01*
X142527309Y-113547549D01*
X142520295Y-113549677D01*
X142506860Y-113551000D01*
X142193140Y-113551000D01*
X142179705Y-113549677D01*
X142172691Y-113547549D01*
X142158923Y-113540190D01*
X142136284Y-113530813D01*
X142112251Y-113526033D01*
X142087747Y-113526033D01*
X142063714Y-113530814D01*
X142041077Y-113540190D01*
X142027309Y-113547549D01*
X142020295Y-113549677D01*
X142006860Y-113551000D01*
X141693140Y-113551000D01*
X141679705Y-113549677D01*
X141672691Y-113547549D01*
X141658923Y-113540190D01*
X141636284Y-113530813D01*
X141612251Y-113526033D01*
X141587747Y-113526033D01*
X141563714Y-113530814D01*
X141541077Y-113540190D01*
X141527309Y-113547549D01*
X141520295Y-113549677D01*
X141506860Y-113551000D01*
X141193140Y-113551000D01*
X141179705Y-113549677D01*
X141172691Y-113547549D01*
X141158923Y-113540190D01*
X141136284Y-113530813D01*
X141112251Y-113526033D01*
X141087747Y-113526033D01*
X141063714Y-113530814D01*
X141041077Y-113540190D01*
X141027309Y-113547549D01*
X141020295Y-113549677D01*
X141006860Y-113551000D01*
X140693140Y-113551000D01*
X140679705Y-113549677D01*
X140672691Y-113547549D01*
X140658923Y-113540190D01*
X140636284Y-113530813D01*
X140612251Y-113526033D01*
X140587747Y-113526033D01*
X140563714Y-113530814D01*
X140541077Y-113540190D01*
X140527309Y-113547549D01*
X140520295Y-113549677D01*
X140506860Y-113551000D01*
X140193140Y-113551000D01*
X140179705Y-113549677D01*
X140172691Y-113547549D01*
X140158923Y-113540190D01*
X140136284Y-113530813D01*
X140112251Y-113526033D01*
X140087747Y-113526033D01*
X140063714Y-113530814D01*
X140041077Y-113540190D01*
X140027309Y-113547549D01*
X140020295Y-113549677D01*
X140006860Y-113551000D01*
X139693140Y-113551000D01*
X139679705Y-113549677D01*
X139672691Y-113547549D01*
X139658923Y-113540190D01*
X139636284Y-113530813D01*
X139612251Y-113526033D01*
X139587747Y-113526033D01*
X139563714Y-113530814D01*
X139541077Y-113540190D01*
X139527309Y-113547549D01*
X139520295Y-113549677D01*
X139506860Y-113551000D01*
X139193140Y-113551000D01*
X139179705Y-113549677D01*
X139172691Y-113547549D01*
X139158923Y-113540190D01*
X139136284Y-113530813D01*
X139112251Y-113526033D01*
X139087747Y-113526033D01*
X139063714Y-113530814D01*
X139041077Y-113540190D01*
X139027309Y-113547549D01*
X139020295Y-113549677D01*
X139006860Y-113551000D01*
X138693140Y-113551000D01*
X138679705Y-113549677D01*
X138672691Y-113547549D01*
X138658923Y-113540190D01*
X138636284Y-113530813D01*
X138612251Y-113526033D01*
X138587747Y-113526033D01*
X138563714Y-113530814D01*
X138541077Y-113540190D01*
X138527309Y-113547549D01*
X138520295Y-113549677D01*
X138506860Y-113551000D01*
X138193140Y-113551000D01*
X138179705Y-113549677D01*
X138172691Y-113547549D01*
X138158923Y-113540190D01*
X138136284Y-113530813D01*
X138112251Y-113526033D01*
X138087747Y-113526033D01*
X138063714Y-113530814D01*
X138041077Y-113540190D01*
X138027309Y-113547549D01*
X138020295Y-113549677D01*
X138006860Y-113551000D01*
X137693140Y-113551000D01*
X137679705Y-113549677D01*
X137672691Y-113547549D01*
X137658923Y-113540190D01*
X137636284Y-113530813D01*
X137612251Y-113526033D01*
X137587747Y-113526033D01*
X137563714Y-113530814D01*
X137541077Y-113540190D01*
X137527309Y-113547549D01*
X137520295Y-113549677D01*
X137506860Y-113551000D01*
X137193140Y-113551000D01*
X137179705Y-113549677D01*
X137172691Y-113547549D01*
X137158923Y-113540190D01*
X137136284Y-113530813D01*
X137112251Y-113526033D01*
X137087747Y-113526033D01*
X137063714Y-113530814D01*
X137041077Y-113540190D01*
X137027309Y-113547549D01*
X137020295Y-113549677D01*
X137006860Y-113551000D01*
X136693140Y-113551000D01*
X136679705Y-113549677D01*
X136672691Y-113547549D01*
X136658923Y-113540190D01*
X136636284Y-113530813D01*
X136612251Y-113526033D01*
X136587747Y-113526033D01*
X136563714Y-113530814D01*
X136541077Y-113540190D01*
X136527309Y-113547549D01*
X136520295Y-113549677D01*
X136506860Y-113551000D01*
X136193140Y-113551000D01*
X136179705Y-113549677D01*
X136172691Y-113547549D01*
X136158923Y-113540190D01*
X136136284Y-113530813D01*
X136112251Y-113526033D01*
X136087747Y-113526033D01*
X136063714Y-113530814D01*
X136041077Y-113540190D01*
X136027309Y-113547549D01*
X136020295Y-113549677D01*
X136006860Y-113551000D01*
X135693140Y-113551000D01*
X135679705Y-113549677D01*
X135672690Y-113547549D01*
X135666224Y-113544092D01*
X135660558Y-113539442D01*
X135655908Y-113533776D01*
X135652451Y-113527310D01*
X135650323Y-113520295D01*
X135649000Y-113506860D01*
X135649000Y-111943140D01*
X135650323Y-111929705D01*
X135652451Y-111922690D01*
X135655908Y-111916224D01*
X135660558Y-111910558D01*
X135666224Y-111905908D01*
X135672690Y-111902451D01*
X135679705Y-111900323D01*
X135693140Y-111899000D01*
X136006860Y-111899000D01*
X136020295Y-111900323D01*
G37*
G36*
X127551000Y-112401000D02*
G01*
X117649000Y-112401000D01*
X117649000Y-110799000D01*
X127551000Y-110799000D01*
X127551000Y-112401000D01*
G37*
M02*
