G04 #@! TF.GenerationSoftware,KiCad,Pcbnew,(5.1.5)-3*
G04 #@! TF.CreationDate,2020-07-10T10:41:28+02:00*
G04 #@! TF.ProjectId,pcb_ruler,7063625f-7275-46c6-9572-2e6b69636164,rev?*
G04 #@! TF.SameCoordinates,Original*
G04 #@! TF.FileFunction,Copper,L1,Top*
G04 #@! TF.FilePolarity,Positive*
%FSLAX46Y46*%
G04 Gerber Fmt 4.6, Leading zero omitted, Abs format (unit mm)*
G04 Created by KiCad (PCBNEW (5.1.5)-3) date 2020-07-10 10:41:28*
%MOMM*%
%LPD*%
G04 APERTURE LIST*
%ADD10C,0.100000*%
%ADD11O,7.000000X17.000000*%
%ADD12C,7.500000*%
%ADD13C,5.600000*%
%ADD14C,3.800000*%
%ADD15R,1.400000X1.200000*%
%ADD16R,0.900000X0.800000*%
%ADD17R,1.651000X1.651000*%
%ADD18C,1.651000*%
%ADD19R,0.330000X0.270000*%
%ADD20R,0.450000X0.500000*%
%ADD21R,0.450000X0.400000*%
%ADD22R,0.600000X0.700000*%
%ADD23R,0.600000X0.450000*%
%ADD24R,0.900000X1.200000*%
%ADD25R,2.000000X1.500000*%
%ADD26R,2.000000X3.800000*%
%ADD27R,0.700000X0.450000*%
%ADD28R,0.650000X0.400000*%
%ADD29R,1.060000X0.650000*%
%ADD30R,1.220000X0.650000*%
%ADD31C,0.254000*%
G04 APERTURE END LIST*
D10*
X254596251Y-120762618D02*
X253299348Y-121183969D01*
X254809377Y-116695810D02*
X253563634Y-116141183D01*
X257688946Y-124197448D02*
X257134370Y-125443161D01*
X256198081Y-123229282D02*
X255285655Y-124242605D01*
X255403292Y-115667125D02*
X254300099Y-114865619D01*
X254318161Y-119006846D02*
X252499972Y-119006846D01*
X255777564Y-122808700D02*
X254764176Y-123721191D01*
X257159065Y-123927409D02*
X256249973Y-125502043D01*
X254349283Y-118412950D02*
X252993118Y-118270361D01*
X256660292Y-123603554D02*
X255858768Y-124706740D01*
X255403292Y-122346489D02*
X254300099Y-123148077D01*
X254442309Y-117825533D02*
X253108472Y-117542023D01*
X258818688Y-124564473D02*
X258535177Y-125898316D01*
X255079379Y-116165910D02*
X253504776Y-115256818D01*
X254809377Y-121317835D02*
X253563634Y-121872476D01*
X259406040Y-124657543D02*
X259263516Y-126013707D01*
X254349283Y-119600741D02*
X252993118Y-119743265D01*
X258244227Y-124410595D02*
X257822812Y-125707428D01*
X254596251Y-117251047D02*
X253299348Y-116829656D01*
X255079379Y-121847717D02*
X253504776Y-122756809D01*
X254442309Y-120188158D02*
X253108472Y-120471667D01*
X255777564Y-115204953D02*
X254764176Y-114292500D01*
X257688946Y-113816216D02*
X257134370Y-112570473D01*
X258244227Y-113603090D02*
X257822812Y-112306212D01*
X257159065Y-114086217D02*
X256249973Y-112511641D01*
X259406040Y-113356141D02*
X259263516Y-111999957D01*
X256198081Y-114784415D02*
X255285655Y-113771041D01*
X256660292Y-114410137D02*
X255858768Y-113306931D01*
X258818688Y-113449174D02*
X258535177Y-112115337D01*
D11*
X107500000Y-119000000D03*
D12*
X219100000Y-129600000D03*
D13*
X219100000Y-120900000D03*
D14*
X219100000Y-113700000D03*
D15*
X182300000Y-130350000D03*
X184500000Y-130350000D03*
X184500000Y-132050000D03*
X182300000Y-132050000D03*
D16*
X182700000Y-126750000D03*
X184100000Y-126750000D03*
X184100000Y-127850000D03*
X182700000Y-127850000D03*
D17*
X176300000Y-124850000D03*
D18*
X176300000Y-132470000D03*
D19*
X166840000Y-120600000D03*
X166840000Y-121100000D03*
X166840000Y-121600000D03*
X166160000Y-121600000D03*
X166160000Y-121100000D03*
X166160000Y-120600000D03*
D20*
X176925000Y-121100000D03*
D21*
X178075000Y-120700000D03*
X178075000Y-121500000D03*
D22*
X165900000Y-126400000D03*
X167300000Y-126400000D03*
D23*
X167650000Y-128800000D03*
X165550000Y-128800000D03*
D24*
X168150000Y-131700000D03*
X164850000Y-131700000D03*
D25*
X193650000Y-118500000D03*
X193650000Y-113900000D03*
X193650000Y-116200000D03*
D26*
X187350000Y-116200000D03*
D27*
X176750000Y-117950000D03*
X178750000Y-117300000D03*
X178750000Y-118600000D03*
D28*
X167450000Y-117300000D03*
X167450000Y-118600000D03*
X165550000Y-117950000D03*
X167450000Y-117950000D03*
X165550000Y-118600000D03*
X165550000Y-117300000D03*
D29*
X167600000Y-113900000D03*
X167600000Y-112950000D03*
X167600000Y-114850000D03*
X165400000Y-114850000D03*
X165400000Y-113900000D03*
X165400000Y-112950000D03*
D30*
X176690000Y-113900000D03*
X179310000Y-112950000D03*
X179310000Y-114850000D03*
G04 #@! TA.AperFunction,SMDPad,CuDef*
D10*
G36*
X148205142Y-119901174D02*
G01*
X148228803Y-119904684D01*
X148252007Y-119910496D01*
X148274529Y-119918554D01*
X148296153Y-119928782D01*
X148316670Y-119941079D01*
X148335883Y-119955329D01*
X148353607Y-119971393D01*
X148369671Y-119989117D01*
X148383921Y-120008330D01*
X148396218Y-120028847D01*
X148406446Y-120050471D01*
X148414504Y-120072993D01*
X148420316Y-120096197D01*
X148423826Y-120119858D01*
X148425000Y-120143750D01*
X148425000Y-121056250D01*
X148423826Y-121080142D01*
X148420316Y-121103803D01*
X148414504Y-121127007D01*
X148406446Y-121149529D01*
X148396218Y-121171153D01*
X148383921Y-121191670D01*
X148369671Y-121210883D01*
X148353607Y-121228607D01*
X148335883Y-121244671D01*
X148316670Y-121258921D01*
X148296153Y-121271218D01*
X148274529Y-121281446D01*
X148252007Y-121289504D01*
X148228803Y-121295316D01*
X148205142Y-121298826D01*
X148181250Y-121300000D01*
X147693750Y-121300000D01*
X147669858Y-121298826D01*
X147646197Y-121295316D01*
X147622993Y-121289504D01*
X147600471Y-121281446D01*
X147578847Y-121271218D01*
X147558330Y-121258921D01*
X147539117Y-121244671D01*
X147521393Y-121228607D01*
X147505329Y-121210883D01*
X147491079Y-121191670D01*
X147478782Y-121171153D01*
X147468554Y-121149529D01*
X147460496Y-121127007D01*
X147454684Y-121103803D01*
X147451174Y-121080142D01*
X147450000Y-121056250D01*
X147450000Y-120143750D01*
X147451174Y-120119858D01*
X147454684Y-120096197D01*
X147460496Y-120072993D01*
X147468554Y-120050471D01*
X147478782Y-120028847D01*
X147491079Y-120008330D01*
X147505329Y-119989117D01*
X147521393Y-119971393D01*
X147539117Y-119955329D01*
X147558330Y-119941079D01*
X147578847Y-119928782D01*
X147600471Y-119918554D01*
X147622993Y-119910496D01*
X147646197Y-119904684D01*
X147669858Y-119901174D01*
X147693750Y-119900000D01*
X148181250Y-119900000D01*
X148205142Y-119901174D01*
G37*
G04 #@! TD.AperFunction*
G04 #@! TA.AperFunction,SMDPad,CuDef*
G36*
X146330142Y-119901174D02*
G01*
X146353803Y-119904684D01*
X146377007Y-119910496D01*
X146399529Y-119918554D01*
X146421153Y-119928782D01*
X146441670Y-119941079D01*
X146460883Y-119955329D01*
X146478607Y-119971393D01*
X146494671Y-119989117D01*
X146508921Y-120008330D01*
X146521218Y-120028847D01*
X146531446Y-120050471D01*
X146539504Y-120072993D01*
X146545316Y-120096197D01*
X146548826Y-120119858D01*
X146550000Y-120143750D01*
X146550000Y-121056250D01*
X146548826Y-121080142D01*
X146545316Y-121103803D01*
X146539504Y-121127007D01*
X146531446Y-121149529D01*
X146521218Y-121171153D01*
X146508921Y-121191670D01*
X146494671Y-121210883D01*
X146478607Y-121228607D01*
X146460883Y-121244671D01*
X146441670Y-121258921D01*
X146421153Y-121271218D01*
X146399529Y-121281446D01*
X146377007Y-121289504D01*
X146353803Y-121295316D01*
X146330142Y-121298826D01*
X146306250Y-121300000D01*
X145818750Y-121300000D01*
X145794858Y-121298826D01*
X145771197Y-121295316D01*
X145747993Y-121289504D01*
X145725471Y-121281446D01*
X145703847Y-121271218D01*
X145683330Y-121258921D01*
X145664117Y-121244671D01*
X145646393Y-121228607D01*
X145630329Y-121210883D01*
X145616079Y-121191670D01*
X145603782Y-121171153D01*
X145593554Y-121149529D01*
X145585496Y-121127007D01*
X145579684Y-121103803D01*
X145576174Y-121080142D01*
X145575000Y-121056250D01*
X145575000Y-120143750D01*
X145576174Y-120119858D01*
X145579684Y-120096197D01*
X145585496Y-120072993D01*
X145593554Y-120050471D01*
X145603782Y-120028847D01*
X145616079Y-120008330D01*
X145630329Y-119989117D01*
X145646393Y-119971393D01*
X145664117Y-119955329D01*
X145683330Y-119941079D01*
X145703847Y-119928782D01*
X145725471Y-119918554D01*
X145747993Y-119910496D01*
X145771197Y-119904684D01*
X145794858Y-119901174D01*
X145818750Y-119900000D01*
X146306250Y-119900000D01*
X146330142Y-119901174D01*
G37*
G04 #@! TD.AperFunction*
G04 #@! TA.AperFunction,SMDPad,CuDef*
G36*
X148799504Y-122626204D02*
G01*
X148823773Y-122629804D01*
X148847571Y-122635765D01*
X148870671Y-122644030D01*
X148892849Y-122654520D01*
X148913893Y-122667133D01*
X148933598Y-122681747D01*
X148951777Y-122698223D01*
X148968253Y-122716402D01*
X148982867Y-122736107D01*
X148995480Y-122757151D01*
X149005970Y-122779329D01*
X149014235Y-122802429D01*
X149020196Y-122826227D01*
X149023796Y-122850496D01*
X149025000Y-122875000D01*
X149025000Y-124125000D01*
X149023796Y-124149504D01*
X149020196Y-124173773D01*
X149014235Y-124197571D01*
X149005970Y-124220671D01*
X148995480Y-124242849D01*
X148982867Y-124263893D01*
X148968253Y-124283598D01*
X148951777Y-124301777D01*
X148933598Y-124318253D01*
X148913893Y-124332867D01*
X148892849Y-124345480D01*
X148870671Y-124355970D01*
X148847571Y-124364235D01*
X148823773Y-124370196D01*
X148799504Y-124373796D01*
X148775000Y-124375000D01*
X148025000Y-124375000D01*
X148000496Y-124373796D01*
X147976227Y-124370196D01*
X147952429Y-124364235D01*
X147929329Y-124355970D01*
X147907151Y-124345480D01*
X147886107Y-124332867D01*
X147866402Y-124318253D01*
X147848223Y-124301777D01*
X147831747Y-124283598D01*
X147817133Y-124263893D01*
X147804520Y-124242849D01*
X147794030Y-124220671D01*
X147785765Y-124197571D01*
X147779804Y-124173773D01*
X147776204Y-124149504D01*
X147775000Y-124125000D01*
X147775000Y-122875000D01*
X147776204Y-122850496D01*
X147779804Y-122826227D01*
X147785765Y-122802429D01*
X147794030Y-122779329D01*
X147804520Y-122757151D01*
X147817133Y-122736107D01*
X147831747Y-122716402D01*
X147848223Y-122698223D01*
X147866402Y-122681747D01*
X147886107Y-122667133D01*
X147907151Y-122654520D01*
X147929329Y-122644030D01*
X147952429Y-122635765D01*
X147976227Y-122629804D01*
X148000496Y-122626204D01*
X148025000Y-122625000D01*
X148775000Y-122625000D01*
X148799504Y-122626204D01*
G37*
G04 #@! TD.AperFunction*
G04 #@! TA.AperFunction,SMDPad,CuDef*
G36*
X145999504Y-122626204D02*
G01*
X146023773Y-122629804D01*
X146047571Y-122635765D01*
X146070671Y-122644030D01*
X146092849Y-122654520D01*
X146113893Y-122667133D01*
X146133598Y-122681747D01*
X146151777Y-122698223D01*
X146168253Y-122716402D01*
X146182867Y-122736107D01*
X146195480Y-122757151D01*
X146205970Y-122779329D01*
X146214235Y-122802429D01*
X146220196Y-122826227D01*
X146223796Y-122850496D01*
X146225000Y-122875000D01*
X146225000Y-124125000D01*
X146223796Y-124149504D01*
X146220196Y-124173773D01*
X146214235Y-124197571D01*
X146205970Y-124220671D01*
X146195480Y-124242849D01*
X146182867Y-124263893D01*
X146168253Y-124283598D01*
X146151777Y-124301777D01*
X146133598Y-124318253D01*
X146113893Y-124332867D01*
X146092849Y-124345480D01*
X146070671Y-124355970D01*
X146047571Y-124364235D01*
X146023773Y-124370196D01*
X145999504Y-124373796D01*
X145975000Y-124375000D01*
X145225000Y-124375000D01*
X145200496Y-124373796D01*
X145176227Y-124370196D01*
X145152429Y-124364235D01*
X145129329Y-124355970D01*
X145107151Y-124345480D01*
X145086107Y-124332867D01*
X145066402Y-124318253D01*
X145048223Y-124301777D01*
X145031747Y-124283598D01*
X145017133Y-124263893D01*
X145004520Y-124242849D01*
X144994030Y-124220671D01*
X144985765Y-124197571D01*
X144979804Y-124173773D01*
X144976204Y-124149504D01*
X144975000Y-124125000D01*
X144975000Y-122875000D01*
X144976204Y-122850496D01*
X144979804Y-122826227D01*
X144985765Y-122802429D01*
X144994030Y-122779329D01*
X145004520Y-122757151D01*
X145017133Y-122736107D01*
X145031747Y-122716402D01*
X145048223Y-122698223D01*
X145066402Y-122681747D01*
X145086107Y-122667133D01*
X145107151Y-122654520D01*
X145129329Y-122644030D01*
X145152429Y-122635765D01*
X145176227Y-122629804D01*
X145200496Y-122626204D01*
X145225000Y-122625000D01*
X145975000Y-122625000D01*
X145999504Y-122626204D01*
G37*
G04 #@! TD.AperFunction*
G04 #@! TA.AperFunction,SMDPad,CuDef*
G36*
X150349505Y-129776204D02*
G01*
X150373773Y-129779804D01*
X150397572Y-129785765D01*
X150420671Y-129794030D01*
X150442850Y-129804520D01*
X150463893Y-129817132D01*
X150483599Y-129831747D01*
X150501777Y-129848223D01*
X150518253Y-129866401D01*
X150532868Y-129886107D01*
X150545480Y-129907150D01*
X150555970Y-129929329D01*
X150564235Y-129952428D01*
X150570196Y-129976227D01*
X150573796Y-130000495D01*
X150575000Y-130024999D01*
X150575000Y-132875001D01*
X150573796Y-132899505D01*
X150570196Y-132923773D01*
X150564235Y-132947572D01*
X150555970Y-132970671D01*
X150545480Y-132992850D01*
X150532868Y-133013893D01*
X150518253Y-133033599D01*
X150501777Y-133051777D01*
X150483599Y-133068253D01*
X150463893Y-133082868D01*
X150442850Y-133095480D01*
X150420671Y-133105970D01*
X150397572Y-133114235D01*
X150373773Y-133120196D01*
X150349505Y-133123796D01*
X150325001Y-133125000D01*
X149474999Y-133125000D01*
X149450495Y-133123796D01*
X149426227Y-133120196D01*
X149402428Y-133114235D01*
X149379329Y-133105970D01*
X149357150Y-133095480D01*
X149336107Y-133082868D01*
X149316401Y-133068253D01*
X149298223Y-133051777D01*
X149281747Y-133033599D01*
X149267132Y-133013893D01*
X149254520Y-132992850D01*
X149244030Y-132970671D01*
X149235765Y-132947572D01*
X149229804Y-132923773D01*
X149226204Y-132899505D01*
X149225000Y-132875001D01*
X149225000Y-130024999D01*
X149226204Y-130000495D01*
X149229804Y-129976227D01*
X149235765Y-129952428D01*
X149244030Y-129929329D01*
X149254520Y-129907150D01*
X149267132Y-129886107D01*
X149281747Y-129866401D01*
X149298223Y-129848223D01*
X149316401Y-129831747D01*
X149336107Y-129817132D01*
X149357150Y-129804520D01*
X149379329Y-129794030D01*
X149402428Y-129785765D01*
X149426227Y-129779804D01*
X149450495Y-129776204D01*
X149474999Y-129775000D01*
X150325001Y-129775000D01*
X150349505Y-129776204D01*
G37*
G04 #@! TD.AperFunction*
G04 #@! TA.AperFunction,SMDPad,CuDef*
G36*
X144549505Y-129776204D02*
G01*
X144573773Y-129779804D01*
X144597572Y-129785765D01*
X144620671Y-129794030D01*
X144642850Y-129804520D01*
X144663893Y-129817132D01*
X144683599Y-129831747D01*
X144701777Y-129848223D01*
X144718253Y-129866401D01*
X144732868Y-129886107D01*
X144745480Y-129907150D01*
X144755970Y-129929329D01*
X144764235Y-129952428D01*
X144770196Y-129976227D01*
X144773796Y-130000495D01*
X144775000Y-130024999D01*
X144775000Y-132875001D01*
X144773796Y-132899505D01*
X144770196Y-132923773D01*
X144764235Y-132947572D01*
X144755970Y-132970671D01*
X144745480Y-132992850D01*
X144732868Y-133013893D01*
X144718253Y-133033599D01*
X144701777Y-133051777D01*
X144683599Y-133068253D01*
X144663893Y-133082868D01*
X144642850Y-133095480D01*
X144620671Y-133105970D01*
X144597572Y-133114235D01*
X144573773Y-133120196D01*
X144549505Y-133123796D01*
X144525001Y-133125000D01*
X143674999Y-133125000D01*
X143650495Y-133123796D01*
X143626227Y-133120196D01*
X143602428Y-133114235D01*
X143579329Y-133105970D01*
X143557150Y-133095480D01*
X143536107Y-133082868D01*
X143516401Y-133068253D01*
X143498223Y-133051777D01*
X143481747Y-133033599D01*
X143467132Y-133013893D01*
X143454520Y-132992850D01*
X143444030Y-132970671D01*
X143435765Y-132947572D01*
X143429804Y-132923773D01*
X143426204Y-132899505D01*
X143425000Y-132875001D01*
X143425000Y-130024999D01*
X143426204Y-130000495D01*
X143429804Y-129976227D01*
X143435765Y-129952428D01*
X143444030Y-129929329D01*
X143454520Y-129907150D01*
X143467132Y-129886107D01*
X143481747Y-129866401D01*
X143498223Y-129848223D01*
X143516401Y-129831747D01*
X143536107Y-129817132D01*
X143557150Y-129804520D01*
X143579329Y-129794030D01*
X143602428Y-129785765D01*
X143626227Y-129779804D01*
X143650495Y-129776204D01*
X143674999Y-129775000D01*
X144525001Y-129775000D01*
X144549505Y-129776204D01*
G37*
G04 #@! TD.AperFunction*
G04 #@! TA.AperFunction,SMDPad,CuDef*
G36*
X148799504Y-125726204D02*
G01*
X148823773Y-125729804D01*
X148847571Y-125735765D01*
X148870671Y-125744030D01*
X148892849Y-125754520D01*
X148913893Y-125767133D01*
X148933598Y-125781747D01*
X148951777Y-125798223D01*
X148968253Y-125816402D01*
X148982867Y-125836107D01*
X148995480Y-125857151D01*
X149005970Y-125879329D01*
X149014235Y-125902429D01*
X149020196Y-125926227D01*
X149023796Y-125950496D01*
X149025000Y-125975000D01*
X149025000Y-128125000D01*
X149023796Y-128149504D01*
X149020196Y-128173773D01*
X149014235Y-128197571D01*
X149005970Y-128220671D01*
X148995480Y-128242849D01*
X148982867Y-128263893D01*
X148968253Y-128283598D01*
X148951777Y-128301777D01*
X148933598Y-128318253D01*
X148913893Y-128332867D01*
X148892849Y-128345480D01*
X148870671Y-128355970D01*
X148847571Y-128364235D01*
X148823773Y-128370196D01*
X148799504Y-128373796D01*
X148775000Y-128375000D01*
X148025000Y-128375000D01*
X148000496Y-128373796D01*
X147976227Y-128370196D01*
X147952429Y-128364235D01*
X147929329Y-128355970D01*
X147907151Y-128345480D01*
X147886107Y-128332867D01*
X147866402Y-128318253D01*
X147848223Y-128301777D01*
X147831747Y-128283598D01*
X147817133Y-128263893D01*
X147804520Y-128242849D01*
X147794030Y-128220671D01*
X147785765Y-128197571D01*
X147779804Y-128173773D01*
X147776204Y-128149504D01*
X147775000Y-128125000D01*
X147775000Y-125975000D01*
X147776204Y-125950496D01*
X147779804Y-125926227D01*
X147785765Y-125902429D01*
X147794030Y-125879329D01*
X147804520Y-125857151D01*
X147817133Y-125836107D01*
X147831747Y-125816402D01*
X147848223Y-125798223D01*
X147866402Y-125781747D01*
X147886107Y-125767133D01*
X147907151Y-125754520D01*
X147929329Y-125744030D01*
X147952429Y-125735765D01*
X147976227Y-125729804D01*
X148000496Y-125726204D01*
X148025000Y-125725000D01*
X148775000Y-125725000D01*
X148799504Y-125726204D01*
G37*
G04 #@! TD.AperFunction*
G04 #@! TA.AperFunction,SMDPad,CuDef*
G36*
X145999504Y-125726204D02*
G01*
X146023773Y-125729804D01*
X146047571Y-125735765D01*
X146070671Y-125744030D01*
X146092849Y-125754520D01*
X146113893Y-125767133D01*
X146133598Y-125781747D01*
X146151777Y-125798223D01*
X146168253Y-125816402D01*
X146182867Y-125836107D01*
X146195480Y-125857151D01*
X146205970Y-125879329D01*
X146214235Y-125902429D01*
X146220196Y-125926227D01*
X146223796Y-125950496D01*
X146225000Y-125975000D01*
X146225000Y-128125000D01*
X146223796Y-128149504D01*
X146220196Y-128173773D01*
X146214235Y-128197571D01*
X146205970Y-128220671D01*
X146195480Y-128242849D01*
X146182867Y-128263893D01*
X146168253Y-128283598D01*
X146151777Y-128301777D01*
X146133598Y-128318253D01*
X146113893Y-128332867D01*
X146092849Y-128345480D01*
X146070671Y-128355970D01*
X146047571Y-128364235D01*
X146023773Y-128370196D01*
X145999504Y-128373796D01*
X145975000Y-128375000D01*
X145225000Y-128375000D01*
X145200496Y-128373796D01*
X145176227Y-128370196D01*
X145152429Y-128364235D01*
X145129329Y-128355970D01*
X145107151Y-128345480D01*
X145086107Y-128332867D01*
X145066402Y-128318253D01*
X145048223Y-128301777D01*
X145031747Y-128283598D01*
X145017133Y-128263893D01*
X145004520Y-128242849D01*
X144994030Y-128220671D01*
X144985765Y-128197571D01*
X144979804Y-128173773D01*
X144976204Y-128149504D01*
X144975000Y-128125000D01*
X144975000Y-125975000D01*
X144976204Y-125950496D01*
X144979804Y-125926227D01*
X144985765Y-125902429D01*
X144994030Y-125879329D01*
X145004520Y-125857151D01*
X145017133Y-125836107D01*
X145031747Y-125816402D01*
X145048223Y-125798223D01*
X145066402Y-125781747D01*
X145086107Y-125767133D01*
X145107151Y-125754520D01*
X145129329Y-125744030D01*
X145152429Y-125735765D01*
X145176227Y-125729804D01*
X145200496Y-125726204D01*
X145225000Y-125725000D01*
X145975000Y-125725000D01*
X145999504Y-125726204D01*
G37*
G04 #@! TD.AperFunction*
G04 #@! TA.AperFunction,SMDPad,CuDef*
G36*
X148027691Y-117526053D02*
G01*
X148048926Y-117529203D01*
X148069750Y-117534419D01*
X148089962Y-117541651D01*
X148109368Y-117550830D01*
X148127781Y-117561866D01*
X148145024Y-117574654D01*
X148160930Y-117589070D01*
X148175346Y-117604976D01*
X148188134Y-117622219D01*
X148199170Y-117640632D01*
X148208349Y-117660038D01*
X148215581Y-117680250D01*
X148220797Y-117701074D01*
X148223947Y-117722309D01*
X148225000Y-117743750D01*
X148225000Y-118256250D01*
X148223947Y-118277691D01*
X148220797Y-118298926D01*
X148215581Y-118319750D01*
X148208349Y-118339962D01*
X148199170Y-118359368D01*
X148188134Y-118377781D01*
X148175346Y-118395024D01*
X148160930Y-118410930D01*
X148145024Y-118425346D01*
X148127781Y-118438134D01*
X148109368Y-118449170D01*
X148089962Y-118458349D01*
X148069750Y-118465581D01*
X148048926Y-118470797D01*
X148027691Y-118473947D01*
X148006250Y-118475000D01*
X147568750Y-118475000D01*
X147547309Y-118473947D01*
X147526074Y-118470797D01*
X147505250Y-118465581D01*
X147485038Y-118458349D01*
X147465632Y-118449170D01*
X147447219Y-118438134D01*
X147429976Y-118425346D01*
X147414070Y-118410930D01*
X147399654Y-118395024D01*
X147386866Y-118377781D01*
X147375830Y-118359368D01*
X147366651Y-118339962D01*
X147359419Y-118319750D01*
X147354203Y-118298926D01*
X147351053Y-118277691D01*
X147350000Y-118256250D01*
X147350000Y-117743750D01*
X147351053Y-117722309D01*
X147354203Y-117701074D01*
X147359419Y-117680250D01*
X147366651Y-117660038D01*
X147375830Y-117640632D01*
X147386866Y-117622219D01*
X147399654Y-117604976D01*
X147414070Y-117589070D01*
X147429976Y-117574654D01*
X147447219Y-117561866D01*
X147465632Y-117550830D01*
X147485038Y-117541651D01*
X147505250Y-117534419D01*
X147526074Y-117529203D01*
X147547309Y-117526053D01*
X147568750Y-117525000D01*
X148006250Y-117525000D01*
X148027691Y-117526053D01*
G37*
G04 #@! TD.AperFunction*
G04 #@! TA.AperFunction,SMDPad,CuDef*
G36*
X146452691Y-117526053D02*
G01*
X146473926Y-117529203D01*
X146494750Y-117534419D01*
X146514962Y-117541651D01*
X146534368Y-117550830D01*
X146552781Y-117561866D01*
X146570024Y-117574654D01*
X146585930Y-117589070D01*
X146600346Y-117604976D01*
X146613134Y-117622219D01*
X146624170Y-117640632D01*
X146633349Y-117660038D01*
X146640581Y-117680250D01*
X146645797Y-117701074D01*
X146648947Y-117722309D01*
X146650000Y-117743750D01*
X146650000Y-118256250D01*
X146648947Y-118277691D01*
X146645797Y-118298926D01*
X146640581Y-118319750D01*
X146633349Y-118339962D01*
X146624170Y-118359368D01*
X146613134Y-118377781D01*
X146600346Y-118395024D01*
X146585930Y-118410930D01*
X146570024Y-118425346D01*
X146552781Y-118438134D01*
X146534368Y-118449170D01*
X146514962Y-118458349D01*
X146494750Y-118465581D01*
X146473926Y-118470797D01*
X146452691Y-118473947D01*
X146431250Y-118475000D01*
X145993750Y-118475000D01*
X145972309Y-118473947D01*
X145951074Y-118470797D01*
X145930250Y-118465581D01*
X145910038Y-118458349D01*
X145890632Y-118449170D01*
X145872219Y-118438134D01*
X145854976Y-118425346D01*
X145839070Y-118410930D01*
X145824654Y-118395024D01*
X145811866Y-118377781D01*
X145800830Y-118359368D01*
X145791651Y-118339962D01*
X145784419Y-118319750D01*
X145779203Y-118298926D01*
X145776053Y-118277691D01*
X145775000Y-118256250D01*
X145775000Y-117743750D01*
X145776053Y-117722309D01*
X145779203Y-117701074D01*
X145784419Y-117680250D01*
X145791651Y-117660038D01*
X145800830Y-117640632D01*
X145811866Y-117622219D01*
X145824654Y-117604976D01*
X145839070Y-117589070D01*
X145854976Y-117574654D01*
X145872219Y-117561866D01*
X145890632Y-117550830D01*
X145910038Y-117541651D01*
X145930250Y-117534419D01*
X145951074Y-117529203D01*
X145972309Y-117526053D01*
X145993750Y-117525000D01*
X146431250Y-117525000D01*
X146452691Y-117526053D01*
G37*
G04 #@! TD.AperFunction*
G04 #@! TA.AperFunction,SMDPad,CuDef*
G36*
X147382351Y-112450361D02*
G01*
X147389632Y-112451441D01*
X147396771Y-112453229D01*
X147403701Y-112455709D01*
X147410355Y-112458856D01*
X147416668Y-112462640D01*
X147422579Y-112467024D01*
X147428033Y-112471967D01*
X147432976Y-112477421D01*
X147437360Y-112483332D01*
X147441144Y-112489645D01*
X147444291Y-112496299D01*
X147446771Y-112503229D01*
X147448559Y-112510368D01*
X147449639Y-112517649D01*
X147450000Y-112525000D01*
X147450000Y-112675000D01*
X147449639Y-112682351D01*
X147448559Y-112689632D01*
X147446771Y-112696771D01*
X147444291Y-112703701D01*
X147441144Y-112710355D01*
X147437360Y-112716668D01*
X147432976Y-112722579D01*
X147428033Y-112728033D01*
X147422579Y-112732976D01*
X147416668Y-112737360D01*
X147410355Y-112741144D01*
X147403701Y-112744291D01*
X147396771Y-112746771D01*
X147389632Y-112748559D01*
X147382351Y-112749639D01*
X147375000Y-112750000D01*
X147125000Y-112750000D01*
X147117649Y-112749639D01*
X147110368Y-112748559D01*
X147103229Y-112746771D01*
X147096299Y-112744291D01*
X147089645Y-112741144D01*
X147083332Y-112737360D01*
X147077421Y-112732976D01*
X147071967Y-112728033D01*
X147067024Y-112722579D01*
X147062640Y-112716668D01*
X147058856Y-112710355D01*
X147055709Y-112703701D01*
X147053229Y-112696771D01*
X147051441Y-112689632D01*
X147050361Y-112682351D01*
X147050000Y-112675000D01*
X147050000Y-112525000D01*
X147050361Y-112517649D01*
X147051441Y-112510368D01*
X147053229Y-112503229D01*
X147055709Y-112496299D01*
X147058856Y-112489645D01*
X147062640Y-112483332D01*
X147067024Y-112477421D01*
X147071967Y-112471967D01*
X147077421Y-112467024D01*
X147083332Y-112462640D01*
X147089645Y-112458856D01*
X147096299Y-112455709D01*
X147103229Y-112453229D01*
X147110368Y-112451441D01*
X147117649Y-112450361D01*
X147125000Y-112450000D01*
X147375000Y-112450000D01*
X147382351Y-112450361D01*
G37*
G04 #@! TD.AperFunction*
G04 #@! TA.AperFunction,SMDPad,CuDef*
G36*
X146882351Y-112450361D02*
G01*
X146889632Y-112451441D01*
X146896771Y-112453229D01*
X146903701Y-112455709D01*
X146910355Y-112458856D01*
X146916668Y-112462640D01*
X146922579Y-112467024D01*
X146928033Y-112471967D01*
X146932976Y-112477421D01*
X146937360Y-112483332D01*
X146941144Y-112489645D01*
X146944291Y-112496299D01*
X146946771Y-112503229D01*
X146948559Y-112510368D01*
X146949639Y-112517649D01*
X146950000Y-112525000D01*
X146950000Y-112675000D01*
X146949639Y-112682351D01*
X146948559Y-112689632D01*
X146946771Y-112696771D01*
X146944291Y-112703701D01*
X146941144Y-112710355D01*
X146937360Y-112716668D01*
X146932976Y-112722579D01*
X146928033Y-112728033D01*
X146922579Y-112732976D01*
X146916668Y-112737360D01*
X146910355Y-112741144D01*
X146903701Y-112744291D01*
X146896771Y-112746771D01*
X146889632Y-112748559D01*
X146882351Y-112749639D01*
X146875000Y-112750000D01*
X146625000Y-112750000D01*
X146617649Y-112749639D01*
X146610368Y-112748559D01*
X146603229Y-112746771D01*
X146596299Y-112744291D01*
X146589645Y-112741144D01*
X146583332Y-112737360D01*
X146577421Y-112732976D01*
X146571967Y-112728033D01*
X146567024Y-112722579D01*
X146562640Y-112716668D01*
X146558856Y-112710355D01*
X146555709Y-112703701D01*
X146553229Y-112696771D01*
X146551441Y-112689632D01*
X146550361Y-112682351D01*
X146550000Y-112675000D01*
X146550000Y-112525000D01*
X146550361Y-112517649D01*
X146551441Y-112510368D01*
X146553229Y-112503229D01*
X146555709Y-112496299D01*
X146558856Y-112489645D01*
X146562640Y-112483332D01*
X146567024Y-112477421D01*
X146571967Y-112471967D01*
X146577421Y-112467024D01*
X146583332Y-112462640D01*
X146589645Y-112458856D01*
X146596299Y-112455709D01*
X146603229Y-112453229D01*
X146610368Y-112451441D01*
X146617649Y-112450361D01*
X146625000Y-112450000D01*
X146875000Y-112450000D01*
X146882351Y-112450361D01*
G37*
G04 #@! TD.AperFunction*
G04 #@! TA.AperFunction,SMDPad,CuDef*
G36*
X147646958Y-115580710D02*
G01*
X147661276Y-115582834D01*
X147675317Y-115586351D01*
X147688946Y-115591228D01*
X147702031Y-115597417D01*
X147714447Y-115604858D01*
X147726073Y-115613481D01*
X147736798Y-115623202D01*
X147746519Y-115633927D01*
X147755142Y-115645553D01*
X147762583Y-115657969D01*
X147768772Y-115671054D01*
X147773649Y-115684683D01*
X147777166Y-115698724D01*
X147779290Y-115713042D01*
X147780000Y-115727500D01*
X147780000Y-116072500D01*
X147779290Y-116086958D01*
X147777166Y-116101276D01*
X147773649Y-116115317D01*
X147768772Y-116128946D01*
X147762583Y-116142031D01*
X147755142Y-116154447D01*
X147746519Y-116166073D01*
X147736798Y-116176798D01*
X147726073Y-116186519D01*
X147714447Y-116195142D01*
X147702031Y-116202583D01*
X147688946Y-116208772D01*
X147675317Y-116213649D01*
X147661276Y-116217166D01*
X147646958Y-116219290D01*
X147632500Y-116220000D01*
X147337500Y-116220000D01*
X147323042Y-116219290D01*
X147308724Y-116217166D01*
X147294683Y-116213649D01*
X147281054Y-116208772D01*
X147267969Y-116202583D01*
X147255553Y-116195142D01*
X147243927Y-116186519D01*
X147233202Y-116176798D01*
X147223481Y-116166073D01*
X147214858Y-116154447D01*
X147207417Y-116142031D01*
X147201228Y-116128946D01*
X147196351Y-116115317D01*
X147192834Y-116101276D01*
X147190710Y-116086958D01*
X147190000Y-116072500D01*
X147190000Y-115727500D01*
X147190710Y-115713042D01*
X147192834Y-115698724D01*
X147196351Y-115684683D01*
X147201228Y-115671054D01*
X147207417Y-115657969D01*
X147214858Y-115645553D01*
X147223481Y-115633927D01*
X147233202Y-115623202D01*
X147243927Y-115613481D01*
X147255553Y-115604858D01*
X147267969Y-115597417D01*
X147281054Y-115591228D01*
X147294683Y-115586351D01*
X147308724Y-115582834D01*
X147323042Y-115580710D01*
X147337500Y-115580000D01*
X147632500Y-115580000D01*
X147646958Y-115580710D01*
G37*
G04 #@! TD.AperFunction*
G04 #@! TA.AperFunction,SMDPad,CuDef*
G36*
X146676958Y-115580710D02*
G01*
X146691276Y-115582834D01*
X146705317Y-115586351D01*
X146718946Y-115591228D01*
X146732031Y-115597417D01*
X146744447Y-115604858D01*
X146756073Y-115613481D01*
X146766798Y-115623202D01*
X146776519Y-115633927D01*
X146785142Y-115645553D01*
X146792583Y-115657969D01*
X146798772Y-115671054D01*
X146803649Y-115684683D01*
X146807166Y-115698724D01*
X146809290Y-115713042D01*
X146810000Y-115727500D01*
X146810000Y-116072500D01*
X146809290Y-116086958D01*
X146807166Y-116101276D01*
X146803649Y-116115317D01*
X146798772Y-116128946D01*
X146792583Y-116142031D01*
X146785142Y-116154447D01*
X146776519Y-116166073D01*
X146766798Y-116176798D01*
X146756073Y-116186519D01*
X146744447Y-116195142D01*
X146732031Y-116202583D01*
X146718946Y-116208772D01*
X146705317Y-116213649D01*
X146691276Y-116217166D01*
X146676958Y-116219290D01*
X146662500Y-116220000D01*
X146367500Y-116220000D01*
X146353042Y-116219290D01*
X146338724Y-116217166D01*
X146324683Y-116213649D01*
X146311054Y-116208772D01*
X146297969Y-116202583D01*
X146285553Y-116195142D01*
X146273927Y-116186519D01*
X146263202Y-116176798D01*
X146253481Y-116166073D01*
X146244858Y-116154447D01*
X146237417Y-116142031D01*
X146231228Y-116128946D01*
X146226351Y-116115317D01*
X146222834Y-116101276D01*
X146220710Y-116086958D01*
X146220000Y-116072500D01*
X146220000Y-115727500D01*
X146220710Y-115713042D01*
X146222834Y-115698724D01*
X146226351Y-115684683D01*
X146231228Y-115671054D01*
X146237417Y-115657969D01*
X146244858Y-115645553D01*
X146253481Y-115633927D01*
X146263202Y-115623202D01*
X146273927Y-115613481D01*
X146285553Y-115604858D01*
X146297969Y-115597417D01*
X146311054Y-115591228D01*
X146324683Y-115586351D01*
X146338724Y-115582834D01*
X146353042Y-115580710D01*
X146367500Y-115580000D01*
X146662500Y-115580000D01*
X146676958Y-115580710D01*
G37*
G04 #@! TD.AperFunction*
G04 #@! TA.AperFunction,SMDPad,CuDef*
G36*
X147459802Y-113900482D02*
G01*
X147469509Y-113901921D01*
X147479028Y-113904306D01*
X147488268Y-113907612D01*
X147497140Y-113911808D01*
X147505557Y-113916853D01*
X147513439Y-113922699D01*
X147520711Y-113929289D01*
X147527301Y-113936561D01*
X147533147Y-113944443D01*
X147538192Y-113952860D01*
X147542388Y-113961732D01*
X147545694Y-113970972D01*
X147548079Y-113980491D01*
X147549518Y-113990198D01*
X147550000Y-114000000D01*
X147550000Y-114200000D01*
X147549518Y-114209802D01*
X147548079Y-114219509D01*
X147545694Y-114229028D01*
X147542388Y-114238268D01*
X147538192Y-114247140D01*
X147533147Y-114255557D01*
X147527301Y-114263439D01*
X147520711Y-114270711D01*
X147513439Y-114277301D01*
X147505557Y-114283147D01*
X147497140Y-114288192D01*
X147488268Y-114292388D01*
X147479028Y-114295694D01*
X147469509Y-114298079D01*
X147459802Y-114299518D01*
X147450000Y-114300000D01*
X147190000Y-114300000D01*
X147180198Y-114299518D01*
X147170491Y-114298079D01*
X147160972Y-114295694D01*
X147151732Y-114292388D01*
X147142860Y-114288192D01*
X147134443Y-114283147D01*
X147126561Y-114277301D01*
X147119289Y-114270711D01*
X147112699Y-114263439D01*
X147106853Y-114255557D01*
X147101808Y-114247140D01*
X147097612Y-114238268D01*
X147094306Y-114229028D01*
X147091921Y-114219509D01*
X147090482Y-114209802D01*
X147090000Y-114200000D01*
X147090000Y-114000000D01*
X147090482Y-113990198D01*
X147091921Y-113980491D01*
X147094306Y-113970972D01*
X147097612Y-113961732D01*
X147101808Y-113952860D01*
X147106853Y-113944443D01*
X147112699Y-113936561D01*
X147119289Y-113929289D01*
X147126561Y-113922699D01*
X147134443Y-113916853D01*
X147142860Y-113911808D01*
X147151732Y-113907612D01*
X147160972Y-113904306D01*
X147170491Y-113901921D01*
X147180198Y-113900482D01*
X147190000Y-113900000D01*
X147450000Y-113900000D01*
X147459802Y-113900482D01*
G37*
G04 #@! TD.AperFunction*
G04 #@! TA.AperFunction,SMDPad,CuDef*
G36*
X146819802Y-113900482D02*
G01*
X146829509Y-113901921D01*
X146839028Y-113904306D01*
X146848268Y-113907612D01*
X146857140Y-113911808D01*
X146865557Y-113916853D01*
X146873439Y-113922699D01*
X146880711Y-113929289D01*
X146887301Y-113936561D01*
X146893147Y-113944443D01*
X146898192Y-113952860D01*
X146902388Y-113961732D01*
X146905694Y-113970972D01*
X146908079Y-113980491D01*
X146909518Y-113990198D01*
X146910000Y-114000000D01*
X146910000Y-114200000D01*
X146909518Y-114209802D01*
X146908079Y-114219509D01*
X146905694Y-114229028D01*
X146902388Y-114238268D01*
X146898192Y-114247140D01*
X146893147Y-114255557D01*
X146887301Y-114263439D01*
X146880711Y-114270711D01*
X146873439Y-114277301D01*
X146865557Y-114283147D01*
X146857140Y-114288192D01*
X146848268Y-114292388D01*
X146839028Y-114295694D01*
X146829509Y-114298079D01*
X146819802Y-114299518D01*
X146810000Y-114300000D01*
X146550000Y-114300000D01*
X146540198Y-114299518D01*
X146530491Y-114298079D01*
X146520972Y-114295694D01*
X146511732Y-114292388D01*
X146502860Y-114288192D01*
X146494443Y-114283147D01*
X146486561Y-114277301D01*
X146479289Y-114270711D01*
X146472699Y-114263439D01*
X146466853Y-114255557D01*
X146461808Y-114247140D01*
X146457612Y-114238268D01*
X146454306Y-114229028D01*
X146451921Y-114219509D01*
X146450482Y-114209802D01*
X146450000Y-114200000D01*
X146450000Y-114000000D01*
X146450482Y-113990198D01*
X146451921Y-113980491D01*
X146454306Y-113970972D01*
X146457612Y-113961732D01*
X146461808Y-113952860D01*
X146466853Y-113944443D01*
X146472699Y-113936561D01*
X146479289Y-113929289D01*
X146486561Y-113922699D01*
X146494443Y-113916853D01*
X146502860Y-113911808D01*
X146511732Y-113907612D01*
X146520972Y-113904306D01*
X146530491Y-113901921D01*
X146540198Y-113900482D01*
X146550000Y-113900000D01*
X146810000Y-113900000D01*
X146819802Y-113900482D01*
G37*
G04 #@! TD.AperFunction*
D31*
G36*
X259115773Y-100415279D02*
G01*
X259227148Y-100448905D01*
X259329859Y-100503518D01*
X259420014Y-100577046D01*
X259494168Y-100666682D01*
X259549497Y-100769011D01*
X259583897Y-100880141D01*
X259598000Y-101014318D01*
X259598001Y-111732386D01*
X259593402Y-111725600D01*
X259533539Y-111666514D01*
X259463299Y-111620242D01*
X259385381Y-111588562D01*
X259302781Y-111572692D01*
X259218672Y-111573241D01*
X259136285Y-111590189D01*
X259058789Y-111622885D01*
X258989159Y-111670071D01*
X258930073Y-111729934D01*
X258883801Y-111800174D01*
X258865636Y-111844851D01*
X258834575Y-111807998D01*
X258768863Y-111755494D01*
X258694171Y-111716818D01*
X258613369Y-111693457D01*
X258529563Y-111686308D01*
X258445971Y-111695647D01*
X258365807Y-111721115D01*
X258292154Y-111761732D01*
X258227838Y-111815939D01*
X258175334Y-111881651D01*
X258136658Y-111956343D01*
X258123248Y-112002724D01*
X258088435Y-111969254D01*
X258017594Y-111923908D01*
X257939267Y-111893253D01*
X257856465Y-111878469D01*
X257772371Y-111880121D01*
X257690214Y-111898150D01*
X257613152Y-111931859D01*
X257544149Y-111979955D01*
X257485854Y-112040589D01*
X257440508Y-112111430D01*
X257409853Y-112189757D01*
X257401382Y-112237201D01*
X257363341Y-112207611D01*
X257288150Y-112169913D01*
X257207050Y-112147608D01*
X257123157Y-112141554D01*
X257039695Y-112151983D01*
X256959871Y-112178495D01*
X256886752Y-112220069D01*
X256823150Y-112275111D01*
X256771508Y-112341502D01*
X256733810Y-112416693D01*
X256719097Y-112470188D01*
X256609275Y-112279972D01*
X256572560Y-112228737D01*
X256511170Y-112171240D01*
X256439742Y-112126823D01*
X256361021Y-112097196D01*
X256278033Y-112083494D01*
X256193967Y-112086247D01*
X256112053Y-112105346D01*
X256035439Y-112140060D01*
X255967069Y-112189054D01*
X255909572Y-112250444D01*
X255865155Y-112321872D01*
X255835528Y-112400593D01*
X255821826Y-112483581D01*
X255824579Y-112567647D01*
X255843678Y-112649561D01*
X255869693Y-112706975D01*
X255979482Y-112897134D01*
X255925889Y-112883149D01*
X255841924Y-112878197D01*
X255758605Y-112889721D01*
X255679136Y-112917277D01*
X255606570Y-112959810D01*
X255543696Y-113015681D01*
X255492930Y-113082745D01*
X255456223Y-113158424D01*
X255434986Y-113239810D01*
X255430034Y-113323775D01*
X255436646Y-113371581D01*
X255391275Y-113355179D01*
X255308115Y-113342564D01*
X255224092Y-113346416D01*
X255142435Y-113366585D01*
X255066281Y-113402296D01*
X254998558Y-113452180D01*
X254941867Y-113514317D01*
X254898389Y-113586320D01*
X254869793Y-113665421D01*
X254857178Y-113748581D01*
X254861030Y-113832604D01*
X254872601Y-113879449D01*
X254825742Y-113867875D01*
X254741720Y-113864023D01*
X254658559Y-113876637D01*
X254579458Y-113905233D01*
X254507455Y-113948710D01*
X254445317Y-114005400D01*
X254395433Y-114073123D01*
X254359721Y-114149276D01*
X254339551Y-114230934D01*
X254335699Y-114314956D01*
X254348313Y-114398117D01*
X254364717Y-114443492D01*
X254316941Y-114436885D01*
X254232976Y-114441837D01*
X254151590Y-114463075D01*
X254075911Y-114499783D01*
X254008847Y-114550548D01*
X253952976Y-114613423D01*
X253910444Y-114685989D01*
X253882888Y-114765458D01*
X253871365Y-114848777D01*
X253876317Y-114932742D01*
X253890305Y-114986346D01*
X253700107Y-114876536D01*
X253642693Y-114850522D01*
X253560779Y-114831424D01*
X253476713Y-114828672D01*
X253393725Y-114842374D01*
X253315005Y-114872002D01*
X253243577Y-114916419D01*
X253182187Y-114973916D01*
X253133194Y-115042286D01*
X253098480Y-115118901D01*
X253079382Y-115200815D01*
X253076630Y-115284881D01*
X253090332Y-115367869D01*
X253119960Y-115446589D01*
X253164377Y-115518017D01*
X253221874Y-115579407D01*
X253273110Y-115616122D01*
X253463297Y-115725926D01*
X253409868Y-115740618D01*
X253334676Y-115778313D01*
X253268282Y-115829953D01*
X253213239Y-115893553D01*
X253171662Y-115966670D01*
X253145147Y-116046494D01*
X253134716Y-116129955D01*
X253140767Y-116213848D01*
X253163069Y-116294949D01*
X253200764Y-116370141D01*
X253230380Y-116408218D01*
X253182883Y-116416700D01*
X253104557Y-116447356D01*
X253033717Y-116492704D01*
X252973085Y-116551001D01*
X252924990Y-116620005D01*
X252891283Y-116697067D01*
X252873256Y-116779225D01*
X252871606Y-116863319D01*
X252886392Y-116946121D01*
X252917048Y-117024447D01*
X252962396Y-117095287D01*
X252995862Y-117130094D01*
X252949477Y-117143504D01*
X252874785Y-117182180D01*
X252809073Y-117234684D01*
X252754867Y-117299000D01*
X252714249Y-117372654D01*
X252688782Y-117452817D01*
X252679443Y-117536409D01*
X252686592Y-117620215D01*
X252709953Y-117701018D01*
X252748629Y-117775710D01*
X252801133Y-117841422D01*
X252837994Y-117872489D01*
X252793353Y-117890636D01*
X252723111Y-117936905D01*
X252663245Y-117995988D01*
X252616056Y-118065616D01*
X252583356Y-118143110D01*
X252566405Y-118225496D01*
X252565851Y-118309605D01*
X252581717Y-118392206D01*
X252613393Y-118470126D01*
X252659662Y-118540368D01*
X252698624Y-118579846D01*
X252478994Y-118579846D01*
X252416265Y-118586024D01*
X252335776Y-118610441D01*
X252261596Y-118650091D01*
X252196577Y-118703451D01*
X252143217Y-118768470D01*
X252103567Y-118842650D01*
X252079150Y-118923139D01*
X252070906Y-119006846D01*
X252079150Y-119090553D01*
X252103567Y-119171042D01*
X252143217Y-119245222D01*
X252196577Y-119310241D01*
X252261596Y-119363601D01*
X252335776Y-119403251D01*
X252416265Y-119427668D01*
X252478994Y-119433846D01*
X252698560Y-119433846D01*
X252659675Y-119473242D01*
X252613403Y-119543482D01*
X252581723Y-119621400D01*
X252565852Y-119704000D01*
X252566402Y-119788110D01*
X252583350Y-119870496D01*
X252616046Y-119947993D01*
X252663232Y-120017622D01*
X252723095Y-120076708D01*
X252793335Y-120122980D01*
X252838045Y-120141158D01*
X252801134Y-120172268D01*
X252748629Y-120237980D01*
X252709953Y-120312672D01*
X252686592Y-120393475D01*
X252679443Y-120477280D01*
X252688782Y-120560872D01*
X252714249Y-120641036D01*
X252754867Y-120714690D01*
X252809073Y-120779005D01*
X252874785Y-120831510D01*
X252949477Y-120870186D01*
X252995813Y-120883582D01*
X252962403Y-120918329D01*
X252917054Y-120989168D01*
X252886395Y-121067493D01*
X252871606Y-121150294D01*
X252873255Y-121234388D01*
X252891279Y-121316546D01*
X252924984Y-121393610D01*
X252973077Y-121462615D01*
X253033708Y-121520914D01*
X253104547Y-121566263D01*
X253182872Y-121596922D01*
X253230402Y-121605411D01*
X253200762Y-121643521D01*
X253163067Y-121718713D01*
X253140766Y-121799815D01*
X253134716Y-121883708D01*
X253145148Y-121967169D01*
X253171663Y-122046992D01*
X253213241Y-122120109D01*
X253268285Y-122183709D01*
X253334679Y-122235348D01*
X253409871Y-122273043D01*
X253463259Y-122287723D01*
X253273110Y-122397505D01*
X253221874Y-122434220D01*
X253164377Y-122495610D01*
X253119960Y-122567038D01*
X253090332Y-122645758D01*
X253076630Y-122728746D01*
X253079382Y-122812812D01*
X253098480Y-122894726D01*
X253133194Y-122971341D01*
X253182187Y-123039711D01*
X253243577Y-123097208D01*
X253315005Y-123141625D01*
X253393725Y-123171253D01*
X253476713Y-123184955D01*
X253560779Y-123182203D01*
X253642693Y-123163105D01*
X253700107Y-123137091D01*
X253890326Y-123027269D01*
X253876314Y-123080975D01*
X253871365Y-123164940D01*
X253882893Y-123248258D01*
X253910453Y-123327726D01*
X253952988Y-123400290D01*
X254008862Y-123463162D01*
X254075929Y-123513924D01*
X254151610Y-123550628D01*
X254232997Y-123571862D01*
X254316962Y-123576811D01*
X254364715Y-123570204D01*
X254348311Y-123615583D01*
X254335699Y-123698744D01*
X254339552Y-123782766D01*
X254359724Y-123864423D01*
X254395438Y-123940575D01*
X254445323Y-124008297D01*
X254507462Y-124064986D01*
X254579466Y-124108462D01*
X254658568Y-124137056D01*
X254741729Y-124149668D01*
X254825751Y-124145815D01*
X254872589Y-124134244D01*
X254861031Y-124181032D01*
X254857178Y-124265054D01*
X254869790Y-124348215D01*
X254898385Y-124427317D01*
X254941861Y-124499320D01*
X254998550Y-124561459D01*
X255066272Y-124611344D01*
X255142424Y-124647057D01*
X255224082Y-124667229D01*
X255308104Y-124671082D01*
X255391265Y-124658470D01*
X255436650Y-124642064D01*
X255430034Y-124689892D01*
X255434985Y-124773857D01*
X255456222Y-124855243D01*
X255492928Y-124930923D01*
X255543693Y-124997988D01*
X255606567Y-125053859D01*
X255679133Y-125096392D01*
X255758602Y-125123949D01*
X255841920Y-125135474D01*
X255925885Y-125130523D01*
X255979486Y-125116536D01*
X255869689Y-125306715D01*
X255843676Y-125364129D01*
X255824578Y-125446044D01*
X255821827Y-125530109D01*
X255835529Y-125613097D01*
X255865158Y-125691818D01*
X255909576Y-125763245D01*
X255967074Y-125824635D01*
X256035445Y-125873627D01*
X256112059Y-125908340D01*
X256193974Y-125927438D01*
X256278039Y-125930189D01*
X256361027Y-125916487D01*
X256439748Y-125886858D01*
X256511175Y-125842440D01*
X256572565Y-125784942D01*
X256609279Y-125733706D01*
X256719106Y-125543475D01*
X256733809Y-125596937D01*
X256771506Y-125672129D01*
X256823148Y-125738521D01*
X256886749Y-125793562D01*
X256959867Y-125835138D01*
X257039691Y-125861650D01*
X257123153Y-125872079D01*
X257207046Y-125866026D01*
X257288146Y-125843722D01*
X257363338Y-125806025D01*
X257401381Y-125776434D01*
X257409852Y-125823879D01*
X257440506Y-125902206D01*
X257485851Y-125973048D01*
X257544146Y-126033682D01*
X257613149Y-126081779D01*
X257690210Y-126115489D01*
X257772367Y-126133518D01*
X257856461Y-126135172D01*
X257939263Y-126120388D01*
X258017590Y-126089734D01*
X258088432Y-126044389D01*
X258123245Y-126010919D01*
X258136658Y-126057311D01*
X258175334Y-126132003D01*
X258227838Y-126197715D01*
X258292154Y-126251921D01*
X258365808Y-126292539D01*
X258445971Y-126318006D01*
X258529563Y-126327345D01*
X258613369Y-126320196D01*
X258694172Y-126296835D01*
X258768864Y-126258159D01*
X258834576Y-126205655D01*
X258865633Y-126168805D01*
X258883801Y-126213490D01*
X258930073Y-126283730D01*
X258989159Y-126343593D01*
X259058788Y-126390779D01*
X259136285Y-126423475D01*
X259218671Y-126440423D01*
X259302781Y-126440973D01*
X259385381Y-126425102D01*
X259463299Y-126393422D01*
X259533539Y-126347150D01*
X259593402Y-126288064D01*
X259598001Y-126281278D01*
X259598000Y-136980343D01*
X259584720Y-137115776D01*
X259551095Y-137227146D01*
X259496482Y-137329860D01*
X259422954Y-137420014D01*
X259333318Y-137494168D01*
X259230989Y-137549497D01*
X259119859Y-137583897D01*
X258985681Y-137598000D01*
X101019657Y-137598000D01*
X100884224Y-137584720D01*
X100772854Y-137551095D01*
X100670140Y-137496482D01*
X100579986Y-137422954D01*
X100505832Y-137333318D01*
X100450503Y-137230989D01*
X100416103Y-137119859D01*
X100402000Y-136985681D01*
X100402000Y-130024999D01*
X143046176Y-130024999D01*
X143046176Y-132875001D01*
X143058259Y-132997678D01*
X143094042Y-133115641D01*
X143152152Y-133224356D01*
X143230354Y-133319646D01*
X143325644Y-133397848D01*
X143434359Y-133455958D01*
X143552322Y-133491741D01*
X143674999Y-133503824D01*
X144525001Y-133503824D01*
X144647678Y-133491741D01*
X144765641Y-133455958D01*
X144874356Y-133397848D01*
X144969646Y-133319646D01*
X145047848Y-133224356D01*
X145105958Y-133115641D01*
X145141741Y-132997678D01*
X145153824Y-132875001D01*
X145153824Y-130024999D01*
X148846176Y-130024999D01*
X148846176Y-132875001D01*
X148858259Y-132997678D01*
X148894042Y-133115641D01*
X148952152Y-133224356D01*
X149030354Y-133319646D01*
X149125644Y-133397848D01*
X149234359Y-133455958D01*
X149352322Y-133491741D01*
X149474999Y-133503824D01*
X150325001Y-133503824D01*
X150447678Y-133491741D01*
X150565641Y-133455958D01*
X150674356Y-133397848D01*
X150769646Y-133319646D01*
X150847848Y-133224356D01*
X150905958Y-133115641D01*
X150941741Y-132997678D01*
X150953824Y-132875001D01*
X150953824Y-131100000D01*
X164021176Y-131100000D01*
X164021176Y-132300000D01*
X164028455Y-132373905D01*
X164050012Y-132444970D01*
X164085019Y-132510463D01*
X164132131Y-132567869D01*
X164189537Y-132614981D01*
X164255030Y-132649988D01*
X164326095Y-132671545D01*
X164400000Y-132678824D01*
X165300000Y-132678824D01*
X165373905Y-132671545D01*
X165444970Y-132649988D01*
X165510463Y-132614981D01*
X165567869Y-132567869D01*
X165614981Y-132510463D01*
X165649988Y-132444970D01*
X165671545Y-132373905D01*
X165678824Y-132300000D01*
X165678824Y-131100000D01*
X167321176Y-131100000D01*
X167321176Y-132300000D01*
X167328455Y-132373905D01*
X167350012Y-132444970D01*
X167385019Y-132510463D01*
X167432131Y-132567869D01*
X167489537Y-132614981D01*
X167555030Y-132649988D01*
X167626095Y-132671545D01*
X167700000Y-132678824D01*
X168600000Y-132678824D01*
X168673905Y-132671545D01*
X168744970Y-132649988D01*
X168810463Y-132614981D01*
X168867869Y-132567869D01*
X168914981Y-132510463D01*
X168949988Y-132444970D01*
X168971545Y-132373905D01*
X168973745Y-132351564D01*
X175097500Y-132351564D01*
X175097500Y-132588436D01*
X175143712Y-132820756D01*
X175234359Y-133039597D01*
X175365958Y-133236549D01*
X175533451Y-133404042D01*
X175730403Y-133535641D01*
X175949244Y-133626288D01*
X176181564Y-133672500D01*
X176418436Y-133672500D01*
X176650756Y-133626288D01*
X176869597Y-133535641D01*
X177066549Y-133404042D01*
X177234042Y-133236549D01*
X177365641Y-133039597D01*
X177456288Y-132820756D01*
X177502500Y-132588436D01*
X177502500Y-132351564D01*
X177456288Y-132119244D01*
X177365641Y-131900403D01*
X177234042Y-131703451D01*
X177066549Y-131535958D01*
X176869597Y-131404359D01*
X176650756Y-131313712D01*
X176418436Y-131267500D01*
X176181564Y-131267500D01*
X175949244Y-131313712D01*
X175730403Y-131404359D01*
X175533451Y-131535958D01*
X175365958Y-131703451D01*
X175234359Y-131900403D01*
X175143712Y-132119244D01*
X175097500Y-132351564D01*
X168973745Y-132351564D01*
X168978824Y-132300000D01*
X168978824Y-131100000D01*
X168971545Y-131026095D01*
X168949988Y-130955030D01*
X168914981Y-130889537D01*
X168867869Y-130832131D01*
X168810463Y-130785019D01*
X168744970Y-130750012D01*
X168673905Y-130728455D01*
X168600000Y-130721176D01*
X167700000Y-130721176D01*
X167626095Y-130728455D01*
X167555030Y-130750012D01*
X167489537Y-130785019D01*
X167432131Y-130832131D01*
X167385019Y-130889537D01*
X167350012Y-130955030D01*
X167328455Y-131026095D01*
X167321176Y-131100000D01*
X165678824Y-131100000D01*
X165671545Y-131026095D01*
X165649988Y-130955030D01*
X165614981Y-130889537D01*
X165567869Y-130832131D01*
X165510463Y-130785019D01*
X165444970Y-130750012D01*
X165373905Y-130728455D01*
X165300000Y-130721176D01*
X164400000Y-130721176D01*
X164326095Y-130728455D01*
X164255030Y-130750012D01*
X164189537Y-130785019D01*
X164132131Y-130832131D01*
X164085019Y-130889537D01*
X164050012Y-130955030D01*
X164028455Y-131026095D01*
X164021176Y-131100000D01*
X150953824Y-131100000D01*
X150953824Y-130024999D01*
X150941741Y-129902322D01*
X150905958Y-129784359D01*
X150887593Y-129750000D01*
X181221176Y-129750000D01*
X181221176Y-130950000D01*
X181228455Y-131023905D01*
X181250012Y-131094970D01*
X181285019Y-131160463D01*
X181317466Y-131200000D01*
X181285019Y-131239537D01*
X181250012Y-131305030D01*
X181228455Y-131376095D01*
X181221176Y-131450000D01*
X181221176Y-132650000D01*
X181228455Y-132723905D01*
X181250012Y-132794970D01*
X181285019Y-132860463D01*
X181332131Y-132917869D01*
X181389537Y-132964981D01*
X181455030Y-132999988D01*
X181526095Y-133021545D01*
X181600000Y-133028824D01*
X183000000Y-133028824D01*
X183073905Y-133021545D01*
X183144970Y-132999988D01*
X183210463Y-132964981D01*
X183267869Y-132917869D01*
X183314981Y-132860463D01*
X183349988Y-132794970D01*
X183371545Y-132723905D01*
X183378824Y-132650000D01*
X183378824Y-131450000D01*
X183371545Y-131376095D01*
X183349988Y-131305030D01*
X183314981Y-131239537D01*
X183282534Y-131200000D01*
X183314981Y-131160463D01*
X183349988Y-131094970D01*
X183371545Y-131023905D01*
X183378824Y-130950000D01*
X183378824Y-129750000D01*
X183421176Y-129750000D01*
X183421176Y-130950000D01*
X183428455Y-131023905D01*
X183450012Y-131094970D01*
X183485019Y-131160463D01*
X183517466Y-131200000D01*
X183485019Y-131239537D01*
X183450012Y-131305030D01*
X183428455Y-131376095D01*
X183421176Y-131450000D01*
X183421176Y-132650000D01*
X183428455Y-132723905D01*
X183450012Y-132794970D01*
X183485019Y-132860463D01*
X183532131Y-132917869D01*
X183589537Y-132964981D01*
X183655030Y-132999988D01*
X183726095Y-133021545D01*
X183800000Y-133028824D01*
X185200000Y-133028824D01*
X185273905Y-133021545D01*
X185344970Y-132999988D01*
X185410463Y-132964981D01*
X185467869Y-132917869D01*
X185514981Y-132860463D01*
X185549988Y-132794970D01*
X185571545Y-132723905D01*
X185578824Y-132650000D01*
X185578824Y-131450000D01*
X185571545Y-131376095D01*
X185549988Y-131305030D01*
X185514981Y-131239537D01*
X185482534Y-131200000D01*
X185514981Y-131160463D01*
X185549988Y-131094970D01*
X185571545Y-131023905D01*
X185578824Y-130950000D01*
X185578824Y-129750000D01*
X185571545Y-129676095D01*
X185549988Y-129605030D01*
X185514981Y-129539537D01*
X185467869Y-129482131D01*
X185410463Y-129435019D01*
X185344970Y-129400012D01*
X185273905Y-129378455D01*
X185200000Y-129371176D01*
X183800000Y-129371176D01*
X183726095Y-129378455D01*
X183655030Y-129400012D01*
X183589537Y-129435019D01*
X183532131Y-129482131D01*
X183485019Y-129539537D01*
X183450012Y-129605030D01*
X183428455Y-129676095D01*
X183421176Y-129750000D01*
X183378824Y-129750000D01*
X183371545Y-129676095D01*
X183349988Y-129605030D01*
X183314981Y-129539537D01*
X183267869Y-129482131D01*
X183210463Y-129435019D01*
X183144970Y-129400012D01*
X183073905Y-129378455D01*
X183000000Y-129371176D01*
X181600000Y-129371176D01*
X181526095Y-129378455D01*
X181455030Y-129400012D01*
X181389537Y-129435019D01*
X181332131Y-129482131D01*
X181285019Y-129539537D01*
X181250012Y-129605030D01*
X181228455Y-129676095D01*
X181221176Y-129750000D01*
X150887593Y-129750000D01*
X150847848Y-129675644D01*
X150769646Y-129580354D01*
X150674356Y-129502152D01*
X150565641Y-129444042D01*
X150447678Y-129408259D01*
X150325001Y-129396176D01*
X149474999Y-129396176D01*
X149352322Y-129408259D01*
X149234359Y-129444042D01*
X149125644Y-129502152D01*
X149030354Y-129580354D01*
X148952152Y-129675644D01*
X148894042Y-129784359D01*
X148858259Y-129902322D01*
X148846176Y-130024999D01*
X145153824Y-130024999D01*
X145141741Y-129902322D01*
X145105958Y-129784359D01*
X145047848Y-129675644D01*
X144969646Y-129580354D01*
X144874356Y-129502152D01*
X144765641Y-129444042D01*
X144647678Y-129408259D01*
X144525001Y-129396176D01*
X143674999Y-129396176D01*
X143552322Y-129408259D01*
X143434359Y-129444042D01*
X143325644Y-129502152D01*
X143230354Y-129580354D01*
X143152152Y-129675644D01*
X143094042Y-129784359D01*
X143058259Y-129902322D01*
X143046176Y-130024999D01*
X100402000Y-130024999D01*
X100402000Y-113809538D01*
X103623000Y-113809538D01*
X103623001Y-124190463D01*
X103679098Y-124760025D01*
X103900789Y-125490842D01*
X104260796Y-126164368D01*
X104745283Y-126754718D01*
X105335633Y-127239205D01*
X106009159Y-127599212D01*
X106739976Y-127820903D01*
X107500000Y-127895759D01*
X108260025Y-127820903D01*
X108990842Y-127599212D01*
X109664368Y-127239205D01*
X110254718Y-126754718D01*
X110739205Y-126164368D01*
X110840424Y-125975000D01*
X144596176Y-125975000D01*
X144596176Y-128125000D01*
X144608259Y-128247677D01*
X144644042Y-128365641D01*
X144702152Y-128474356D01*
X144780354Y-128569646D01*
X144875644Y-128647848D01*
X144984359Y-128705958D01*
X145102323Y-128741741D01*
X145225000Y-128753824D01*
X145975000Y-128753824D01*
X146097677Y-128741741D01*
X146215641Y-128705958D01*
X146324356Y-128647848D01*
X146419646Y-128569646D01*
X146497848Y-128474356D01*
X146555958Y-128365641D01*
X146591741Y-128247677D01*
X146603824Y-128125000D01*
X146603824Y-125975000D01*
X147396176Y-125975000D01*
X147396176Y-128125000D01*
X147408259Y-128247677D01*
X147444042Y-128365641D01*
X147502152Y-128474356D01*
X147580354Y-128569646D01*
X147675644Y-128647848D01*
X147784359Y-128705958D01*
X147902323Y-128741741D01*
X148025000Y-128753824D01*
X148775000Y-128753824D01*
X148897677Y-128741741D01*
X149015641Y-128705958D01*
X149124356Y-128647848D01*
X149213122Y-128575000D01*
X164871176Y-128575000D01*
X164871176Y-129025000D01*
X164878455Y-129098905D01*
X164900012Y-129169970D01*
X164935019Y-129235463D01*
X164982131Y-129292869D01*
X165039537Y-129339981D01*
X165105030Y-129374988D01*
X165176095Y-129396545D01*
X165250000Y-129403824D01*
X165850000Y-129403824D01*
X165923905Y-129396545D01*
X165994970Y-129374988D01*
X166060463Y-129339981D01*
X166117869Y-129292869D01*
X166164981Y-129235463D01*
X166199988Y-129169970D01*
X166221545Y-129098905D01*
X166228824Y-129025000D01*
X166228824Y-128575000D01*
X166971176Y-128575000D01*
X166971176Y-129025000D01*
X166978455Y-129098905D01*
X167000012Y-129169970D01*
X167035019Y-129235463D01*
X167082131Y-129292869D01*
X167139537Y-129339981D01*
X167205030Y-129374988D01*
X167276095Y-129396545D01*
X167350000Y-129403824D01*
X167950000Y-129403824D01*
X168023905Y-129396545D01*
X168094970Y-129374988D01*
X168160463Y-129339981D01*
X168217869Y-129292869D01*
X168264981Y-129235463D01*
X168287396Y-129193526D01*
X214973000Y-129193526D01*
X214973000Y-130006474D01*
X215131598Y-130803802D01*
X215442700Y-131554868D01*
X215894350Y-132230809D01*
X216469191Y-132805650D01*
X217145132Y-133257300D01*
X217896198Y-133568402D01*
X218693526Y-133727000D01*
X219506474Y-133727000D01*
X220303802Y-133568402D01*
X221054868Y-133257300D01*
X221730809Y-132805650D01*
X222305650Y-132230809D01*
X222757300Y-131554868D01*
X223068402Y-130803802D01*
X223227000Y-130006474D01*
X223227000Y-129193526D01*
X223068402Y-128396198D01*
X222757300Y-127645132D01*
X222305650Y-126969191D01*
X221730809Y-126394350D01*
X221054868Y-125942700D01*
X220303802Y-125631598D01*
X219506474Y-125473000D01*
X218693526Y-125473000D01*
X217896198Y-125631598D01*
X217145132Y-125942700D01*
X216469191Y-126394350D01*
X215894350Y-126969191D01*
X215442700Y-127645132D01*
X215131598Y-128396198D01*
X214973000Y-129193526D01*
X168287396Y-129193526D01*
X168299988Y-129169970D01*
X168321545Y-129098905D01*
X168328824Y-129025000D01*
X168328824Y-128575000D01*
X168321545Y-128501095D01*
X168299988Y-128430030D01*
X168264981Y-128364537D01*
X168217869Y-128307131D01*
X168160463Y-128260019D01*
X168094970Y-128225012D01*
X168023905Y-128203455D01*
X167950000Y-128196176D01*
X167350000Y-128196176D01*
X167276095Y-128203455D01*
X167205030Y-128225012D01*
X167139537Y-128260019D01*
X167082131Y-128307131D01*
X167035019Y-128364537D01*
X167000012Y-128430030D01*
X166978455Y-128501095D01*
X166971176Y-128575000D01*
X166228824Y-128575000D01*
X166221545Y-128501095D01*
X166199988Y-128430030D01*
X166164981Y-128364537D01*
X166117869Y-128307131D01*
X166060463Y-128260019D01*
X165994970Y-128225012D01*
X165923905Y-128203455D01*
X165850000Y-128196176D01*
X165250000Y-128196176D01*
X165176095Y-128203455D01*
X165105030Y-128225012D01*
X165039537Y-128260019D01*
X164982131Y-128307131D01*
X164935019Y-128364537D01*
X164900012Y-128430030D01*
X164878455Y-128501095D01*
X164871176Y-128575000D01*
X149213122Y-128575000D01*
X149219646Y-128569646D01*
X149297848Y-128474356D01*
X149355958Y-128365641D01*
X149391741Y-128247677D01*
X149403824Y-128125000D01*
X149403824Y-126050000D01*
X165221176Y-126050000D01*
X165221176Y-126750000D01*
X165228455Y-126823905D01*
X165250012Y-126894970D01*
X165285019Y-126960463D01*
X165332131Y-127017869D01*
X165389537Y-127064981D01*
X165455030Y-127099988D01*
X165526095Y-127121545D01*
X165600000Y-127128824D01*
X166200000Y-127128824D01*
X166273905Y-127121545D01*
X166344970Y-127099988D01*
X166410463Y-127064981D01*
X166467869Y-127017869D01*
X166514981Y-126960463D01*
X166549988Y-126894970D01*
X166571545Y-126823905D01*
X166578824Y-126750000D01*
X166578824Y-126050000D01*
X166621176Y-126050000D01*
X166621176Y-126750000D01*
X166628455Y-126823905D01*
X166650012Y-126894970D01*
X166685019Y-126960463D01*
X166732131Y-127017869D01*
X166789537Y-127064981D01*
X166855030Y-127099988D01*
X166926095Y-127121545D01*
X167000000Y-127128824D01*
X167600000Y-127128824D01*
X167673905Y-127121545D01*
X167744970Y-127099988D01*
X167810463Y-127064981D01*
X167867869Y-127017869D01*
X167914981Y-126960463D01*
X167949988Y-126894970D01*
X167971545Y-126823905D01*
X167978824Y-126750000D01*
X167978824Y-126350000D01*
X181871176Y-126350000D01*
X181871176Y-127150000D01*
X181878455Y-127223905D01*
X181900012Y-127294970D01*
X181902701Y-127300000D01*
X181900012Y-127305030D01*
X181878455Y-127376095D01*
X181871176Y-127450000D01*
X181871176Y-128250000D01*
X181878455Y-128323905D01*
X181900012Y-128394970D01*
X181935019Y-128460463D01*
X181982131Y-128517869D01*
X182039537Y-128564981D01*
X182105030Y-128599988D01*
X182176095Y-128621545D01*
X182250000Y-128628824D01*
X183150000Y-128628824D01*
X183223905Y-128621545D01*
X183294970Y-128599988D01*
X183360463Y-128564981D01*
X183400000Y-128532534D01*
X183439537Y-128564981D01*
X183505030Y-128599988D01*
X183576095Y-128621545D01*
X183650000Y-128628824D01*
X184550000Y-128628824D01*
X184623905Y-128621545D01*
X184694970Y-128599988D01*
X184760463Y-128564981D01*
X184817869Y-128517869D01*
X184864981Y-128460463D01*
X184899988Y-128394970D01*
X184921545Y-128323905D01*
X184928824Y-128250000D01*
X184928824Y-127450000D01*
X184921545Y-127376095D01*
X184899988Y-127305030D01*
X184897299Y-127300000D01*
X184899988Y-127294970D01*
X184921545Y-127223905D01*
X184928824Y-127150000D01*
X184928824Y-126350000D01*
X184921545Y-126276095D01*
X184899988Y-126205030D01*
X184864981Y-126139537D01*
X184817869Y-126082131D01*
X184760463Y-126035019D01*
X184694970Y-126000012D01*
X184623905Y-125978455D01*
X184550000Y-125971176D01*
X183650000Y-125971176D01*
X183576095Y-125978455D01*
X183505030Y-126000012D01*
X183439537Y-126035019D01*
X183400000Y-126067466D01*
X183360463Y-126035019D01*
X183294970Y-126000012D01*
X183223905Y-125978455D01*
X183150000Y-125971176D01*
X182250000Y-125971176D01*
X182176095Y-125978455D01*
X182105030Y-126000012D01*
X182039537Y-126035019D01*
X181982131Y-126082131D01*
X181935019Y-126139537D01*
X181900012Y-126205030D01*
X181878455Y-126276095D01*
X181871176Y-126350000D01*
X167978824Y-126350000D01*
X167978824Y-126050000D01*
X167971545Y-125976095D01*
X167949988Y-125905030D01*
X167914981Y-125839537D01*
X167867869Y-125782131D01*
X167810463Y-125735019D01*
X167744970Y-125700012D01*
X167673905Y-125678455D01*
X167600000Y-125671176D01*
X167000000Y-125671176D01*
X166926095Y-125678455D01*
X166855030Y-125700012D01*
X166789537Y-125735019D01*
X166732131Y-125782131D01*
X166685019Y-125839537D01*
X166650012Y-125905030D01*
X166628455Y-125976095D01*
X166621176Y-126050000D01*
X166578824Y-126050000D01*
X166571545Y-125976095D01*
X166549988Y-125905030D01*
X166514981Y-125839537D01*
X166467869Y-125782131D01*
X166410463Y-125735019D01*
X166344970Y-125700012D01*
X166273905Y-125678455D01*
X166200000Y-125671176D01*
X165600000Y-125671176D01*
X165526095Y-125678455D01*
X165455030Y-125700012D01*
X165389537Y-125735019D01*
X165332131Y-125782131D01*
X165285019Y-125839537D01*
X165250012Y-125905030D01*
X165228455Y-125976095D01*
X165221176Y-126050000D01*
X149403824Y-126050000D01*
X149403824Y-125975000D01*
X149391741Y-125852323D01*
X149355958Y-125734359D01*
X149297848Y-125625644D01*
X149219646Y-125530354D01*
X149124356Y-125452152D01*
X149015641Y-125394042D01*
X148897677Y-125358259D01*
X148775000Y-125346176D01*
X148025000Y-125346176D01*
X147902323Y-125358259D01*
X147784359Y-125394042D01*
X147675644Y-125452152D01*
X147580354Y-125530354D01*
X147502152Y-125625644D01*
X147444042Y-125734359D01*
X147408259Y-125852323D01*
X147396176Y-125975000D01*
X146603824Y-125975000D01*
X146591741Y-125852323D01*
X146555958Y-125734359D01*
X146497848Y-125625644D01*
X146419646Y-125530354D01*
X146324356Y-125452152D01*
X146215641Y-125394042D01*
X146097677Y-125358259D01*
X145975000Y-125346176D01*
X145225000Y-125346176D01*
X145102323Y-125358259D01*
X144984359Y-125394042D01*
X144875644Y-125452152D01*
X144780354Y-125530354D01*
X144702152Y-125625644D01*
X144644042Y-125734359D01*
X144608259Y-125852323D01*
X144596176Y-125975000D01*
X110840424Y-125975000D01*
X111099212Y-125490842D01*
X111320903Y-124760025D01*
X111377000Y-124190463D01*
X111377000Y-122875000D01*
X144596176Y-122875000D01*
X144596176Y-124125000D01*
X144608259Y-124247677D01*
X144644042Y-124365641D01*
X144702152Y-124474356D01*
X144780354Y-124569646D01*
X144875644Y-124647848D01*
X144984359Y-124705958D01*
X145102323Y-124741741D01*
X145225000Y-124753824D01*
X145975000Y-124753824D01*
X146097677Y-124741741D01*
X146215641Y-124705958D01*
X146324356Y-124647848D01*
X146419646Y-124569646D01*
X146497848Y-124474356D01*
X146555958Y-124365641D01*
X146591741Y-124247677D01*
X146603824Y-124125000D01*
X146603824Y-122875000D01*
X147396176Y-122875000D01*
X147396176Y-124125000D01*
X147408259Y-124247677D01*
X147444042Y-124365641D01*
X147502152Y-124474356D01*
X147580354Y-124569646D01*
X147675644Y-124647848D01*
X147784359Y-124705958D01*
X147902323Y-124741741D01*
X148025000Y-124753824D01*
X148775000Y-124753824D01*
X148897677Y-124741741D01*
X149015641Y-124705958D01*
X149124356Y-124647848D01*
X149219646Y-124569646D01*
X149297848Y-124474356D01*
X149355958Y-124365641D01*
X149391741Y-124247677D01*
X149403824Y-124125000D01*
X149403824Y-124024500D01*
X175095676Y-124024500D01*
X175095676Y-125675500D01*
X175102955Y-125749405D01*
X175124512Y-125820470D01*
X175159519Y-125885963D01*
X175206631Y-125943369D01*
X175264037Y-125990481D01*
X175329530Y-126025488D01*
X175400595Y-126047045D01*
X175474500Y-126054324D01*
X177125500Y-126054324D01*
X177199405Y-126047045D01*
X177270470Y-126025488D01*
X177335963Y-125990481D01*
X177393369Y-125943369D01*
X177440481Y-125885963D01*
X177475488Y-125820470D01*
X177497045Y-125749405D01*
X177504324Y-125675500D01*
X177504324Y-124024500D01*
X177497045Y-123950595D01*
X177475488Y-123879530D01*
X177440481Y-123814037D01*
X177393369Y-123756631D01*
X177335963Y-123709519D01*
X177270470Y-123674512D01*
X177199405Y-123652955D01*
X177125500Y-123645676D01*
X175474500Y-123645676D01*
X175400595Y-123652955D01*
X175329530Y-123674512D01*
X175264037Y-123709519D01*
X175206631Y-123756631D01*
X175159519Y-123814037D01*
X175124512Y-123879530D01*
X175102955Y-123950595D01*
X175095676Y-124024500D01*
X149403824Y-124024500D01*
X149403824Y-122875000D01*
X149391741Y-122752323D01*
X149355958Y-122634359D01*
X149297848Y-122525644D01*
X149219646Y-122430354D01*
X149124356Y-122352152D01*
X149015641Y-122294042D01*
X148897677Y-122258259D01*
X148775000Y-122246176D01*
X148025000Y-122246176D01*
X147902323Y-122258259D01*
X147784359Y-122294042D01*
X147675644Y-122352152D01*
X147580354Y-122430354D01*
X147502152Y-122525644D01*
X147444042Y-122634359D01*
X147408259Y-122752323D01*
X147396176Y-122875000D01*
X146603824Y-122875000D01*
X146591741Y-122752323D01*
X146555958Y-122634359D01*
X146497848Y-122525644D01*
X146419646Y-122430354D01*
X146324356Y-122352152D01*
X146215641Y-122294042D01*
X146097677Y-122258259D01*
X145975000Y-122246176D01*
X145225000Y-122246176D01*
X145102323Y-122258259D01*
X144984359Y-122294042D01*
X144875644Y-122352152D01*
X144780354Y-122430354D01*
X144702152Y-122525644D01*
X144644042Y-122634359D01*
X144608259Y-122752323D01*
X144596176Y-122875000D01*
X111377000Y-122875000D01*
X111377000Y-120143750D01*
X145196176Y-120143750D01*
X145196176Y-121056250D01*
X145208139Y-121177708D01*
X145243567Y-121294499D01*
X145301099Y-121402134D01*
X145378524Y-121496476D01*
X145472866Y-121573901D01*
X145580501Y-121631433D01*
X145697292Y-121666861D01*
X145818750Y-121678824D01*
X146306250Y-121678824D01*
X146427708Y-121666861D01*
X146544499Y-121631433D01*
X146652134Y-121573901D01*
X146746476Y-121496476D01*
X146823901Y-121402134D01*
X146881433Y-121294499D01*
X146916861Y-121177708D01*
X146928824Y-121056250D01*
X146928824Y-120143750D01*
X147071176Y-120143750D01*
X147071176Y-121056250D01*
X147083139Y-121177708D01*
X147118567Y-121294499D01*
X147176099Y-121402134D01*
X147253524Y-121496476D01*
X147347866Y-121573901D01*
X147455501Y-121631433D01*
X147572292Y-121666861D01*
X147693750Y-121678824D01*
X148181250Y-121678824D01*
X148302708Y-121666861D01*
X148419499Y-121631433D01*
X148527134Y-121573901D01*
X148621476Y-121496476D01*
X148698901Y-121402134D01*
X148756433Y-121294499D01*
X148791861Y-121177708D01*
X148803824Y-121056250D01*
X148803824Y-120465000D01*
X165616176Y-120465000D01*
X165616176Y-120735000D01*
X165623455Y-120808905D01*
X165635921Y-120850000D01*
X165623455Y-120891095D01*
X165616176Y-120965000D01*
X165616176Y-121235000D01*
X165623455Y-121308905D01*
X165635921Y-121350000D01*
X165623455Y-121391095D01*
X165616176Y-121465000D01*
X165616176Y-121735000D01*
X165623455Y-121808905D01*
X165645012Y-121879970D01*
X165680019Y-121945463D01*
X165727131Y-122002869D01*
X165784537Y-122049981D01*
X165850030Y-122084988D01*
X165921095Y-122106545D01*
X165995000Y-122113824D01*
X166325000Y-122113824D01*
X166398905Y-122106545D01*
X166469970Y-122084988D01*
X166500000Y-122068937D01*
X166530030Y-122084988D01*
X166601095Y-122106545D01*
X166675000Y-122113824D01*
X167005000Y-122113824D01*
X167078905Y-122106545D01*
X167149970Y-122084988D01*
X167215463Y-122049981D01*
X167272869Y-122002869D01*
X167319981Y-121945463D01*
X167354988Y-121879970D01*
X167376545Y-121808905D01*
X167383824Y-121735000D01*
X167383824Y-121465000D01*
X167376545Y-121391095D01*
X167364079Y-121350000D01*
X167376545Y-121308905D01*
X167383824Y-121235000D01*
X167383824Y-120965000D01*
X167376545Y-120891095D01*
X167364079Y-120850000D01*
X176321176Y-120850000D01*
X176321176Y-121350000D01*
X176328455Y-121423905D01*
X176350012Y-121494970D01*
X176385019Y-121560463D01*
X176432131Y-121617869D01*
X176489537Y-121664981D01*
X176555030Y-121699988D01*
X176626095Y-121721545D01*
X176700000Y-121728824D01*
X177150000Y-121728824D01*
X177223905Y-121721545D01*
X177294970Y-121699988D01*
X177360463Y-121664981D01*
X177417869Y-121617869D01*
X177464981Y-121560463D01*
X177471176Y-121548873D01*
X177471176Y-121700000D01*
X177478455Y-121773905D01*
X177500012Y-121844970D01*
X177535019Y-121910463D01*
X177582131Y-121967869D01*
X177639537Y-122014981D01*
X177705030Y-122049988D01*
X177776095Y-122071545D01*
X177850000Y-122078824D01*
X178300000Y-122078824D01*
X178373905Y-122071545D01*
X178444970Y-122049988D01*
X178510463Y-122014981D01*
X178567869Y-121967869D01*
X178614981Y-121910463D01*
X178649988Y-121844970D01*
X178671545Y-121773905D01*
X178678824Y-121700000D01*
X178678824Y-121300000D01*
X178671545Y-121226095D01*
X178649988Y-121155030D01*
X178620574Y-121100000D01*
X178649988Y-121044970D01*
X178671545Y-120973905D01*
X178678824Y-120900000D01*
X178678824Y-120587093D01*
X215923000Y-120587093D01*
X215923000Y-121212907D01*
X216045090Y-121826697D01*
X216284579Y-122404874D01*
X216632263Y-122925219D01*
X217074781Y-123367737D01*
X217595126Y-123715421D01*
X218173303Y-123954910D01*
X218787093Y-124077000D01*
X219412907Y-124077000D01*
X220026697Y-123954910D01*
X220604874Y-123715421D01*
X221125219Y-123367737D01*
X221567737Y-122925219D01*
X221915421Y-122404874D01*
X222154910Y-121826697D01*
X222277000Y-121212907D01*
X222277000Y-120587093D01*
X222154910Y-119973303D01*
X221915421Y-119395126D01*
X221567737Y-118874781D01*
X221125219Y-118432263D01*
X220604874Y-118084579D01*
X220026697Y-117845090D01*
X219412907Y-117723000D01*
X218787093Y-117723000D01*
X218173303Y-117845090D01*
X217595126Y-118084579D01*
X217074781Y-118432263D01*
X216632263Y-118874781D01*
X216284579Y-119395126D01*
X216045090Y-119973303D01*
X215923000Y-120587093D01*
X178678824Y-120587093D01*
X178678824Y-120500000D01*
X178671545Y-120426095D01*
X178649988Y-120355030D01*
X178614981Y-120289537D01*
X178567869Y-120232131D01*
X178510463Y-120185019D01*
X178444970Y-120150012D01*
X178373905Y-120128455D01*
X178300000Y-120121176D01*
X177850000Y-120121176D01*
X177776095Y-120128455D01*
X177705030Y-120150012D01*
X177639537Y-120185019D01*
X177582131Y-120232131D01*
X177535019Y-120289537D01*
X177500012Y-120355030D01*
X177478455Y-120426095D01*
X177471176Y-120500000D01*
X177471176Y-120651127D01*
X177464981Y-120639537D01*
X177417869Y-120582131D01*
X177360463Y-120535019D01*
X177294970Y-120500012D01*
X177223905Y-120478455D01*
X177150000Y-120471176D01*
X176700000Y-120471176D01*
X176626095Y-120478455D01*
X176555030Y-120500012D01*
X176489537Y-120535019D01*
X176432131Y-120582131D01*
X176385019Y-120639537D01*
X176350012Y-120705030D01*
X176328455Y-120776095D01*
X176321176Y-120850000D01*
X167364079Y-120850000D01*
X167376545Y-120808905D01*
X167383824Y-120735000D01*
X167383824Y-120465000D01*
X167376545Y-120391095D01*
X167354988Y-120320030D01*
X167319981Y-120254537D01*
X167272869Y-120197131D01*
X167215463Y-120150019D01*
X167149970Y-120115012D01*
X167078905Y-120093455D01*
X167005000Y-120086176D01*
X166675000Y-120086176D01*
X166601095Y-120093455D01*
X166530030Y-120115012D01*
X166500000Y-120131063D01*
X166469970Y-120115012D01*
X166398905Y-120093455D01*
X166325000Y-120086176D01*
X165995000Y-120086176D01*
X165921095Y-120093455D01*
X165850030Y-120115012D01*
X165784537Y-120150019D01*
X165727131Y-120197131D01*
X165680019Y-120254537D01*
X165645012Y-120320030D01*
X165623455Y-120391095D01*
X165616176Y-120465000D01*
X148803824Y-120465000D01*
X148803824Y-120143750D01*
X148791861Y-120022292D01*
X148756433Y-119905501D01*
X148698901Y-119797866D01*
X148621476Y-119703524D01*
X148527134Y-119626099D01*
X148419499Y-119568567D01*
X148302708Y-119533139D01*
X148181250Y-119521176D01*
X147693750Y-119521176D01*
X147572292Y-119533139D01*
X147455501Y-119568567D01*
X147347866Y-119626099D01*
X147253524Y-119703524D01*
X147176099Y-119797866D01*
X147118567Y-119905501D01*
X147083139Y-120022292D01*
X147071176Y-120143750D01*
X146928824Y-120143750D01*
X146916861Y-120022292D01*
X146881433Y-119905501D01*
X146823901Y-119797866D01*
X146746476Y-119703524D01*
X146652134Y-119626099D01*
X146544499Y-119568567D01*
X146427708Y-119533139D01*
X146306250Y-119521176D01*
X145818750Y-119521176D01*
X145697292Y-119533139D01*
X145580501Y-119568567D01*
X145472866Y-119626099D01*
X145378524Y-119703524D01*
X145301099Y-119797866D01*
X145243567Y-119905501D01*
X145208139Y-120022292D01*
X145196176Y-120143750D01*
X111377000Y-120143750D01*
X111377000Y-117743750D01*
X145396176Y-117743750D01*
X145396176Y-118256250D01*
X145407658Y-118372831D01*
X145441664Y-118484932D01*
X145496885Y-118588244D01*
X145571201Y-118678799D01*
X145661756Y-118753115D01*
X145765068Y-118808336D01*
X145877169Y-118842342D01*
X145993750Y-118853824D01*
X146431250Y-118853824D01*
X146547831Y-118842342D01*
X146659932Y-118808336D01*
X146763244Y-118753115D01*
X146853799Y-118678799D01*
X146928115Y-118588244D01*
X146983336Y-118484932D01*
X147000000Y-118429999D01*
X147016664Y-118484932D01*
X147071885Y-118588244D01*
X147146201Y-118678799D01*
X147236756Y-118753115D01*
X147340068Y-118808336D01*
X147452169Y-118842342D01*
X147568750Y-118853824D01*
X148006250Y-118853824D01*
X148122831Y-118842342D01*
X148234932Y-118808336D01*
X148338244Y-118753115D01*
X148428799Y-118678799D01*
X148503115Y-118588244D01*
X148558336Y-118484932D01*
X148592342Y-118372831D01*
X148603824Y-118256250D01*
X148603824Y-117743750D01*
X148592342Y-117627169D01*
X148558336Y-117515068D01*
X148503115Y-117411756D01*
X148428799Y-117321201D01*
X148338244Y-117246885D01*
X148234932Y-117191664D01*
X148122831Y-117157658D01*
X148006250Y-117146176D01*
X147568750Y-117146176D01*
X147452169Y-117157658D01*
X147340068Y-117191664D01*
X147236756Y-117246885D01*
X147146201Y-117321201D01*
X147071885Y-117411756D01*
X147016664Y-117515068D01*
X147000000Y-117570001D01*
X146983336Y-117515068D01*
X146928115Y-117411756D01*
X146853799Y-117321201D01*
X146763244Y-117246885D01*
X146659932Y-117191664D01*
X146547831Y-117157658D01*
X146431250Y-117146176D01*
X145993750Y-117146176D01*
X145877169Y-117157658D01*
X145765068Y-117191664D01*
X145661756Y-117246885D01*
X145571201Y-117321201D01*
X145496885Y-117411756D01*
X145441664Y-117515068D01*
X145407658Y-117627169D01*
X145396176Y-117743750D01*
X111377000Y-117743750D01*
X111377000Y-117100000D01*
X164846176Y-117100000D01*
X164846176Y-117500000D01*
X164853455Y-117573905D01*
X164868954Y-117625000D01*
X164853455Y-117676095D01*
X164846176Y-117750000D01*
X164846176Y-118150000D01*
X164853455Y-118223905D01*
X164868954Y-118275000D01*
X164853455Y-118326095D01*
X164846176Y-118400000D01*
X164846176Y-118800000D01*
X164853455Y-118873905D01*
X164875012Y-118944970D01*
X164910019Y-119010463D01*
X164957131Y-119067869D01*
X165014537Y-119114981D01*
X165080030Y-119149988D01*
X165151095Y-119171545D01*
X165225000Y-119178824D01*
X165875000Y-119178824D01*
X165948905Y-119171545D01*
X166019970Y-119149988D01*
X166085463Y-119114981D01*
X166142869Y-119067869D01*
X166189981Y-119010463D01*
X166224988Y-118944970D01*
X166246545Y-118873905D01*
X166253824Y-118800000D01*
X166253824Y-118400000D01*
X166246545Y-118326095D01*
X166231046Y-118275000D01*
X166246545Y-118223905D01*
X166253824Y-118150000D01*
X166253824Y-117750000D01*
X166246545Y-117676095D01*
X166231046Y-117625000D01*
X166246545Y-117573905D01*
X166253824Y-117500000D01*
X166253824Y-117100000D01*
X166746176Y-117100000D01*
X166746176Y-117500000D01*
X166753455Y-117573905D01*
X166768954Y-117625000D01*
X166753455Y-117676095D01*
X166746176Y-117750000D01*
X166746176Y-118150000D01*
X166753455Y-118223905D01*
X166768954Y-118275000D01*
X166753455Y-118326095D01*
X166746176Y-118400000D01*
X166746176Y-118800000D01*
X166753455Y-118873905D01*
X166775012Y-118944970D01*
X166810019Y-119010463D01*
X166857131Y-119067869D01*
X166914537Y-119114981D01*
X166980030Y-119149988D01*
X167051095Y-119171545D01*
X167125000Y-119178824D01*
X167775000Y-119178824D01*
X167848905Y-119171545D01*
X167919970Y-119149988D01*
X167985463Y-119114981D01*
X168042869Y-119067869D01*
X168089981Y-119010463D01*
X168124988Y-118944970D01*
X168146545Y-118873905D01*
X168153824Y-118800000D01*
X168153824Y-118400000D01*
X168146545Y-118326095D01*
X168131046Y-118275000D01*
X168146545Y-118223905D01*
X168153824Y-118150000D01*
X168153824Y-117750000D01*
X168151362Y-117725000D01*
X176021176Y-117725000D01*
X176021176Y-118175000D01*
X176028455Y-118248905D01*
X176050012Y-118319970D01*
X176085019Y-118385463D01*
X176132131Y-118442869D01*
X176189537Y-118489981D01*
X176255030Y-118524988D01*
X176326095Y-118546545D01*
X176400000Y-118553824D01*
X177100000Y-118553824D01*
X177173905Y-118546545D01*
X177244970Y-118524988D01*
X177310463Y-118489981D01*
X177367869Y-118442869D01*
X177414981Y-118385463D01*
X177420573Y-118375000D01*
X178021176Y-118375000D01*
X178021176Y-118825000D01*
X178028455Y-118898905D01*
X178050012Y-118969970D01*
X178085019Y-119035463D01*
X178132131Y-119092869D01*
X178189537Y-119139981D01*
X178255030Y-119174988D01*
X178326095Y-119196545D01*
X178400000Y-119203824D01*
X179100000Y-119203824D01*
X179173905Y-119196545D01*
X179244970Y-119174988D01*
X179310463Y-119139981D01*
X179367869Y-119092869D01*
X179414981Y-119035463D01*
X179449988Y-118969970D01*
X179471545Y-118898905D01*
X179478824Y-118825000D01*
X179478824Y-118375000D01*
X179471545Y-118301095D01*
X179449988Y-118230030D01*
X179414981Y-118164537D01*
X179367869Y-118107131D01*
X179310463Y-118060019D01*
X179244970Y-118025012D01*
X179173905Y-118003455D01*
X179100000Y-117996176D01*
X178400000Y-117996176D01*
X178326095Y-118003455D01*
X178255030Y-118025012D01*
X178189537Y-118060019D01*
X178132131Y-118107131D01*
X178085019Y-118164537D01*
X178050012Y-118230030D01*
X178028455Y-118301095D01*
X178021176Y-118375000D01*
X177420573Y-118375000D01*
X177449988Y-118319970D01*
X177471545Y-118248905D01*
X177478824Y-118175000D01*
X177478824Y-117725000D01*
X177471545Y-117651095D01*
X177449988Y-117580030D01*
X177414981Y-117514537D01*
X177367869Y-117457131D01*
X177310463Y-117410019D01*
X177244970Y-117375012D01*
X177173905Y-117353455D01*
X177100000Y-117346176D01*
X176400000Y-117346176D01*
X176326095Y-117353455D01*
X176255030Y-117375012D01*
X176189537Y-117410019D01*
X176132131Y-117457131D01*
X176085019Y-117514537D01*
X176050012Y-117580030D01*
X176028455Y-117651095D01*
X176021176Y-117725000D01*
X168151362Y-117725000D01*
X168146545Y-117676095D01*
X168131046Y-117625000D01*
X168146545Y-117573905D01*
X168153824Y-117500000D01*
X168153824Y-117100000D01*
X168151362Y-117075000D01*
X178021176Y-117075000D01*
X178021176Y-117525000D01*
X178028455Y-117598905D01*
X178050012Y-117669970D01*
X178085019Y-117735463D01*
X178132131Y-117792869D01*
X178189537Y-117839981D01*
X178255030Y-117874988D01*
X178326095Y-117896545D01*
X178400000Y-117903824D01*
X179100000Y-117903824D01*
X179173905Y-117896545D01*
X179244970Y-117874988D01*
X179310463Y-117839981D01*
X179367869Y-117792869D01*
X179414981Y-117735463D01*
X179449988Y-117669970D01*
X179471545Y-117598905D01*
X179478824Y-117525000D01*
X179478824Y-117075000D01*
X179471545Y-117001095D01*
X179449988Y-116930030D01*
X179414981Y-116864537D01*
X179367869Y-116807131D01*
X179310463Y-116760019D01*
X179244970Y-116725012D01*
X179173905Y-116703455D01*
X179100000Y-116696176D01*
X178400000Y-116696176D01*
X178326095Y-116703455D01*
X178255030Y-116725012D01*
X178189537Y-116760019D01*
X178132131Y-116807131D01*
X178085019Y-116864537D01*
X178050012Y-116930030D01*
X178028455Y-117001095D01*
X178021176Y-117075000D01*
X168151362Y-117075000D01*
X168146545Y-117026095D01*
X168124988Y-116955030D01*
X168089981Y-116889537D01*
X168042869Y-116832131D01*
X167985463Y-116785019D01*
X167919970Y-116750012D01*
X167848905Y-116728455D01*
X167775000Y-116721176D01*
X167125000Y-116721176D01*
X167051095Y-116728455D01*
X166980030Y-116750012D01*
X166914537Y-116785019D01*
X166857131Y-116832131D01*
X166810019Y-116889537D01*
X166775012Y-116955030D01*
X166753455Y-117026095D01*
X166746176Y-117100000D01*
X166253824Y-117100000D01*
X166246545Y-117026095D01*
X166224988Y-116955030D01*
X166189981Y-116889537D01*
X166142869Y-116832131D01*
X166085463Y-116785019D01*
X166019970Y-116750012D01*
X165948905Y-116728455D01*
X165875000Y-116721176D01*
X165225000Y-116721176D01*
X165151095Y-116728455D01*
X165080030Y-116750012D01*
X165014537Y-116785019D01*
X164957131Y-116832131D01*
X164910019Y-116889537D01*
X164875012Y-116955030D01*
X164853455Y-117026095D01*
X164846176Y-117100000D01*
X111377000Y-117100000D01*
X111377000Y-115727500D01*
X145841176Y-115727500D01*
X145841176Y-116072500D01*
X145851289Y-116175181D01*
X145881240Y-116273915D01*
X145929878Y-116364910D01*
X145995333Y-116444667D01*
X146075090Y-116510122D01*
X146166085Y-116558760D01*
X146264819Y-116588711D01*
X146367500Y-116598824D01*
X146662500Y-116598824D01*
X146765181Y-116588711D01*
X146863915Y-116558760D01*
X146954910Y-116510122D01*
X147000000Y-116473118D01*
X147045090Y-116510122D01*
X147136085Y-116558760D01*
X147234819Y-116588711D01*
X147337500Y-116598824D01*
X147632500Y-116598824D01*
X147735181Y-116588711D01*
X147833915Y-116558760D01*
X147924910Y-116510122D01*
X148004667Y-116444667D01*
X148070122Y-116364910D01*
X148118760Y-116273915D01*
X148148711Y-116175181D01*
X148158824Y-116072500D01*
X148158824Y-115727500D01*
X148148711Y-115624819D01*
X148118760Y-115526085D01*
X148070122Y-115435090D01*
X148004667Y-115355333D01*
X147924910Y-115289878D01*
X147833915Y-115241240D01*
X147735181Y-115211289D01*
X147632500Y-115201176D01*
X147337500Y-115201176D01*
X147234819Y-115211289D01*
X147136085Y-115241240D01*
X147045090Y-115289878D01*
X147000000Y-115326882D01*
X146954910Y-115289878D01*
X146863915Y-115241240D01*
X146765181Y-115211289D01*
X146662500Y-115201176D01*
X146367500Y-115201176D01*
X146264819Y-115211289D01*
X146166085Y-115241240D01*
X146075090Y-115289878D01*
X145995333Y-115355333D01*
X145929878Y-115435090D01*
X145881240Y-115526085D01*
X145851289Y-115624819D01*
X145841176Y-115727500D01*
X111377000Y-115727500D01*
X111377000Y-114000000D01*
X146071176Y-114000000D01*
X146071176Y-114200000D01*
X146080376Y-114293414D01*
X146107624Y-114383238D01*
X146151872Y-114466020D01*
X146211420Y-114538580D01*
X146283980Y-114598128D01*
X146366762Y-114642376D01*
X146456586Y-114669624D01*
X146550000Y-114678824D01*
X146810000Y-114678824D01*
X146903414Y-114669624D01*
X146993238Y-114642376D01*
X147000000Y-114638762D01*
X147006762Y-114642376D01*
X147096586Y-114669624D01*
X147190000Y-114678824D01*
X147450000Y-114678824D01*
X147543414Y-114669624D01*
X147633238Y-114642376D01*
X147716020Y-114598128D01*
X147788580Y-114538580D01*
X147848128Y-114466020D01*
X147892376Y-114383238D01*
X147919624Y-114293414D01*
X147928824Y-114200000D01*
X147928824Y-114000000D01*
X147919624Y-113906586D01*
X147892376Y-113816762D01*
X147848128Y-113733980D01*
X147788580Y-113661420D01*
X147716020Y-113601872D01*
X147633238Y-113557624D01*
X147543414Y-113530376D01*
X147450000Y-113521176D01*
X147190000Y-113521176D01*
X147096586Y-113530376D01*
X147006762Y-113557624D01*
X147000000Y-113561238D01*
X146993238Y-113557624D01*
X146903414Y-113530376D01*
X146810000Y-113521176D01*
X146550000Y-113521176D01*
X146456586Y-113530376D01*
X146366762Y-113557624D01*
X146283980Y-113601872D01*
X146211420Y-113661420D01*
X146151872Y-113733980D01*
X146107624Y-113816762D01*
X146080376Y-113906586D01*
X146071176Y-114000000D01*
X111377000Y-114000000D01*
X111377000Y-113809537D01*
X111320903Y-113239975D01*
X111104018Y-112525000D01*
X146171176Y-112525000D01*
X146171176Y-112675000D01*
X146179896Y-112763537D01*
X146205721Y-112848671D01*
X146247659Y-112927131D01*
X146304098Y-112995902D01*
X146372869Y-113052341D01*
X146451329Y-113094279D01*
X146536463Y-113120104D01*
X146625000Y-113128824D01*
X146875000Y-113128824D01*
X146963537Y-113120104D01*
X147000000Y-113109043D01*
X147036463Y-113120104D01*
X147125000Y-113128824D01*
X147375000Y-113128824D01*
X147463537Y-113120104D01*
X147548671Y-113094279D01*
X147627131Y-113052341D01*
X147695902Y-112995902D01*
X147752341Y-112927131D01*
X147794279Y-112848671D01*
X147820104Y-112763537D01*
X147828824Y-112675000D01*
X147828824Y-112625000D01*
X164491176Y-112625000D01*
X164491176Y-113275000D01*
X164498455Y-113348905D01*
X164520012Y-113419970D01*
X164522701Y-113425000D01*
X164520012Y-113430030D01*
X164498455Y-113501095D01*
X164491176Y-113575000D01*
X164491176Y-114225000D01*
X164498455Y-114298905D01*
X164520012Y-114369970D01*
X164522701Y-114375000D01*
X164520012Y-114380030D01*
X164498455Y-114451095D01*
X164491176Y-114525000D01*
X164491176Y-115175000D01*
X164498455Y-115248905D01*
X164520012Y-115319970D01*
X164555019Y-115385463D01*
X164602131Y-115442869D01*
X164659537Y-115489981D01*
X164725030Y-115524988D01*
X164796095Y-115546545D01*
X164870000Y-115553824D01*
X165930000Y-115553824D01*
X166003905Y-115546545D01*
X166074970Y-115524988D01*
X166140463Y-115489981D01*
X166197869Y-115442869D01*
X166244981Y-115385463D01*
X166279988Y-115319970D01*
X166301545Y-115248905D01*
X166308824Y-115175000D01*
X166308824Y-114525000D01*
X166301545Y-114451095D01*
X166279988Y-114380030D01*
X166277299Y-114375000D01*
X166279988Y-114369970D01*
X166301545Y-114298905D01*
X166308824Y-114225000D01*
X166308824Y-113575000D01*
X166301545Y-113501095D01*
X166279988Y-113430030D01*
X166277299Y-113425000D01*
X166279988Y-113419970D01*
X166301545Y-113348905D01*
X166308824Y-113275000D01*
X166308824Y-112625000D01*
X166691176Y-112625000D01*
X166691176Y-113275000D01*
X166698455Y-113348905D01*
X166720012Y-113419970D01*
X166722701Y-113425000D01*
X166720012Y-113430030D01*
X166698455Y-113501095D01*
X166691176Y-113575000D01*
X166691176Y-114225000D01*
X166698455Y-114298905D01*
X166720012Y-114369970D01*
X166722701Y-114375000D01*
X166720012Y-114380030D01*
X166698455Y-114451095D01*
X166691176Y-114525000D01*
X166691176Y-115175000D01*
X166698455Y-115248905D01*
X166720012Y-115319970D01*
X166755019Y-115385463D01*
X166802131Y-115442869D01*
X166859537Y-115489981D01*
X166925030Y-115524988D01*
X166996095Y-115546545D01*
X167070000Y-115553824D01*
X168130000Y-115553824D01*
X168203905Y-115546545D01*
X168274970Y-115524988D01*
X168340463Y-115489981D01*
X168397869Y-115442869D01*
X168444981Y-115385463D01*
X168479988Y-115319970D01*
X168501545Y-115248905D01*
X168508824Y-115175000D01*
X168508824Y-114525000D01*
X168501545Y-114451095D01*
X168479988Y-114380030D01*
X168477299Y-114375000D01*
X168479988Y-114369970D01*
X168501545Y-114298905D01*
X168508824Y-114225000D01*
X168508824Y-113575000D01*
X175701176Y-113575000D01*
X175701176Y-114225000D01*
X175708455Y-114298905D01*
X175730012Y-114369970D01*
X175765019Y-114435463D01*
X175812131Y-114492869D01*
X175869537Y-114539981D01*
X175935030Y-114574988D01*
X176006095Y-114596545D01*
X176080000Y-114603824D01*
X177300000Y-114603824D01*
X177373905Y-114596545D01*
X177444970Y-114574988D01*
X177510463Y-114539981D01*
X177528717Y-114525000D01*
X178321176Y-114525000D01*
X178321176Y-115175000D01*
X178328455Y-115248905D01*
X178350012Y-115319970D01*
X178385019Y-115385463D01*
X178432131Y-115442869D01*
X178489537Y-115489981D01*
X178555030Y-115524988D01*
X178626095Y-115546545D01*
X178700000Y-115553824D01*
X179920000Y-115553824D01*
X179993905Y-115546545D01*
X180064970Y-115524988D01*
X180130463Y-115489981D01*
X180187869Y-115442869D01*
X180234981Y-115385463D01*
X180269988Y-115319970D01*
X180291545Y-115248905D01*
X180298824Y-115175000D01*
X180298824Y-114525000D01*
X180291545Y-114451095D01*
X180269988Y-114380030D01*
X180234981Y-114314537D01*
X180223051Y-114300000D01*
X185971176Y-114300000D01*
X185971176Y-118100000D01*
X185978455Y-118173905D01*
X186000012Y-118244970D01*
X186035019Y-118310463D01*
X186082131Y-118367869D01*
X186139537Y-118414981D01*
X186205030Y-118449988D01*
X186276095Y-118471545D01*
X186350000Y-118478824D01*
X188350000Y-118478824D01*
X188423905Y-118471545D01*
X188494970Y-118449988D01*
X188560463Y-118414981D01*
X188617869Y-118367869D01*
X188664981Y-118310463D01*
X188699988Y-118244970D01*
X188721545Y-118173905D01*
X188728824Y-118100000D01*
X188728824Y-117750000D01*
X192271176Y-117750000D01*
X192271176Y-119250000D01*
X192278455Y-119323905D01*
X192300012Y-119394970D01*
X192335019Y-119460463D01*
X192382131Y-119517869D01*
X192439537Y-119564981D01*
X192505030Y-119599988D01*
X192576095Y-119621545D01*
X192650000Y-119628824D01*
X194650000Y-119628824D01*
X194723905Y-119621545D01*
X194794970Y-119599988D01*
X194860463Y-119564981D01*
X194917869Y-119517869D01*
X194964981Y-119460463D01*
X194999988Y-119394970D01*
X195021545Y-119323905D01*
X195028824Y-119250000D01*
X195028824Y-117750000D01*
X195021545Y-117676095D01*
X194999988Y-117605030D01*
X194964981Y-117539537D01*
X194917869Y-117482131D01*
X194860463Y-117435019D01*
X194794970Y-117400012D01*
X194723905Y-117378455D01*
X194650000Y-117371176D01*
X192650000Y-117371176D01*
X192576095Y-117378455D01*
X192505030Y-117400012D01*
X192439537Y-117435019D01*
X192382131Y-117482131D01*
X192335019Y-117539537D01*
X192300012Y-117605030D01*
X192278455Y-117676095D01*
X192271176Y-117750000D01*
X188728824Y-117750000D01*
X188728824Y-115450000D01*
X192271176Y-115450000D01*
X192271176Y-116950000D01*
X192278455Y-117023905D01*
X192300012Y-117094970D01*
X192335019Y-117160463D01*
X192382131Y-117217869D01*
X192439537Y-117264981D01*
X192505030Y-117299988D01*
X192576095Y-117321545D01*
X192650000Y-117328824D01*
X194650000Y-117328824D01*
X194723905Y-117321545D01*
X194794970Y-117299988D01*
X194860463Y-117264981D01*
X194917869Y-117217869D01*
X194964981Y-117160463D01*
X194999988Y-117094970D01*
X195021545Y-117023905D01*
X195028824Y-116950000D01*
X195028824Y-115450000D01*
X195021545Y-115376095D01*
X194999988Y-115305030D01*
X194964981Y-115239537D01*
X194917869Y-115182131D01*
X194860463Y-115135019D01*
X194794970Y-115100012D01*
X194723905Y-115078455D01*
X194650000Y-115071176D01*
X192650000Y-115071176D01*
X192576095Y-115078455D01*
X192505030Y-115100012D01*
X192439537Y-115135019D01*
X192382131Y-115182131D01*
X192335019Y-115239537D01*
X192300012Y-115305030D01*
X192278455Y-115376095D01*
X192271176Y-115450000D01*
X188728824Y-115450000D01*
X188728824Y-114300000D01*
X188721545Y-114226095D01*
X188699988Y-114155030D01*
X188664981Y-114089537D01*
X188617869Y-114032131D01*
X188560463Y-113985019D01*
X188494970Y-113950012D01*
X188423905Y-113928455D01*
X188350000Y-113921176D01*
X186350000Y-113921176D01*
X186276095Y-113928455D01*
X186205030Y-113950012D01*
X186139537Y-113985019D01*
X186082131Y-114032131D01*
X186035019Y-114089537D01*
X186000012Y-114155030D01*
X185978455Y-114226095D01*
X185971176Y-114300000D01*
X180223051Y-114300000D01*
X180187869Y-114257131D01*
X180130463Y-114210019D01*
X180064970Y-114175012D01*
X179993905Y-114153455D01*
X179920000Y-114146176D01*
X178700000Y-114146176D01*
X178626095Y-114153455D01*
X178555030Y-114175012D01*
X178489537Y-114210019D01*
X178432131Y-114257131D01*
X178385019Y-114314537D01*
X178350012Y-114380030D01*
X178328455Y-114451095D01*
X178321176Y-114525000D01*
X177528717Y-114525000D01*
X177567869Y-114492869D01*
X177614981Y-114435463D01*
X177649988Y-114369970D01*
X177671545Y-114298905D01*
X177678824Y-114225000D01*
X177678824Y-113575000D01*
X177671545Y-113501095D01*
X177649988Y-113430030D01*
X177614981Y-113364537D01*
X177567869Y-113307131D01*
X177510463Y-113260019D01*
X177444970Y-113225012D01*
X177373905Y-113203455D01*
X177300000Y-113196176D01*
X176080000Y-113196176D01*
X176006095Y-113203455D01*
X175935030Y-113225012D01*
X175869537Y-113260019D01*
X175812131Y-113307131D01*
X175765019Y-113364537D01*
X175730012Y-113430030D01*
X175708455Y-113501095D01*
X175701176Y-113575000D01*
X168508824Y-113575000D01*
X168501545Y-113501095D01*
X168479988Y-113430030D01*
X168477299Y-113425000D01*
X168479988Y-113419970D01*
X168501545Y-113348905D01*
X168508824Y-113275000D01*
X168508824Y-112625000D01*
X178321176Y-112625000D01*
X178321176Y-113275000D01*
X178328455Y-113348905D01*
X178350012Y-113419970D01*
X178385019Y-113485463D01*
X178432131Y-113542869D01*
X178489537Y-113589981D01*
X178555030Y-113624988D01*
X178626095Y-113646545D01*
X178700000Y-113653824D01*
X179920000Y-113653824D01*
X179993905Y-113646545D01*
X180064970Y-113624988D01*
X180130463Y-113589981D01*
X180187869Y-113542869D01*
X180234981Y-113485463D01*
X180269988Y-113419970D01*
X180291545Y-113348905D01*
X180298824Y-113275000D01*
X180298824Y-113150000D01*
X192271176Y-113150000D01*
X192271176Y-114650000D01*
X192278455Y-114723905D01*
X192300012Y-114794970D01*
X192335019Y-114860463D01*
X192382131Y-114917869D01*
X192439537Y-114964981D01*
X192505030Y-114999988D01*
X192576095Y-115021545D01*
X192650000Y-115028824D01*
X194650000Y-115028824D01*
X194723905Y-115021545D01*
X194794970Y-114999988D01*
X194860463Y-114964981D01*
X194917869Y-114917869D01*
X194964981Y-114860463D01*
X194999988Y-114794970D01*
X195021545Y-114723905D01*
X195028824Y-114650000D01*
X195028824Y-113475735D01*
X216823000Y-113475735D01*
X216823000Y-113924265D01*
X216910504Y-114364176D01*
X217082149Y-114778564D01*
X217331339Y-115151503D01*
X217648497Y-115468661D01*
X218021436Y-115717851D01*
X218435824Y-115889496D01*
X218875735Y-115977000D01*
X219324265Y-115977000D01*
X219764176Y-115889496D01*
X220178564Y-115717851D01*
X220551503Y-115468661D01*
X220868661Y-115151503D01*
X221117851Y-114778564D01*
X221289496Y-114364176D01*
X221377000Y-113924265D01*
X221377000Y-113475735D01*
X221289496Y-113035824D01*
X221117851Y-112621436D01*
X220868661Y-112248497D01*
X220551503Y-111931339D01*
X220178564Y-111682149D01*
X219764176Y-111510504D01*
X219324265Y-111423000D01*
X218875735Y-111423000D01*
X218435824Y-111510504D01*
X218021436Y-111682149D01*
X217648497Y-111931339D01*
X217331339Y-112248497D01*
X217082149Y-112621436D01*
X216910504Y-113035824D01*
X216823000Y-113475735D01*
X195028824Y-113475735D01*
X195028824Y-113150000D01*
X195021545Y-113076095D01*
X194999988Y-113005030D01*
X194964981Y-112939537D01*
X194917869Y-112882131D01*
X194860463Y-112835019D01*
X194794970Y-112800012D01*
X194723905Y-112778455D01*
X194650000Y-112771176D01*
X192650000Y-112771176D01*
X192576095Y-112778455D01*
X192505030Y-112800012D01*
X192439537Y-112835019D01*
X192382131Y-112882131D01*
X192335019Y-112939537D01*
X192300012Y-113005030D01*
X192278455Y-113076095D01*
X192271176Y-113150000D01*
X180298824Y-113150000D01*
X180298824Y-112625000D01*
X180291545Y-112551095D01*
X180269988Y-112480030D01*
X180234981Y-112414537D01*
X180187869Y-112357131D01*
X180130463Y-112310019D01*
X180064970Y-112275012D01*
X179993905Y-112253455D01*
X179920000Y-112246176D01*
X178700000Y-112246176D01*
X178626095Y-112253455D01*
X178555030Y-112275012D01*
X178489537Y-112310019D01*
X178432131Y-112357131D01*
X178385019Y-112414537D01*
X178350012Y-112480030D01*
X178328455Y-112551095D01*
X178321176Y-112625000D01*
X168508824Y-112625000D01*
X168501545Y-112551095D01*
X168479988Y-112480030D01*
X168444981Y-112414537D01*
X168397869Y-112357131D01*
X168340463Y-112310019D01*
X168274970Y-112275012D01*
X168203905Y-112253455D01*
X168130000Y-112246176D01*
X167070000Y-112246176D01*
X166996095Y-112253455D01*
X166925030Y-112275012D01*
X166859537Y-112310019D01*
X166802131Y-112357131D01*
X166755019Y-112414537D01*
X166720012Y-112480030D01*
X166698455Y-112551095D01*
X166691176Y-112625000D01*
X166308824Y-112625000D01*
X166301545Y-112551095D01*
X166279988Y-112480030D01*
X166244981Y-112414537D01*
X166197869Y-112357131D01*
X166140463Y-112310019D01*
X166074970Y-112275012D01*
X166003905Y-112253455D01*
X165930000Y-112246176D01*
X164870000Y-112246176D01*
X164796095Y-112253455D01*
X164725030Y-112275012D01*
X164659537Y-112310019D01*
X164602131Y-112357131D01*
X164555019Y-112414537D01*
X164520012Y-112480030D01*
X164498455Y-112551095D01*
X164491176Y-112625000D01*
X147828824Y-112625000D01*
X147828824Y-112525000D01*
X147820104Y-112436463D01*
X147794279Y-112351329D01*
X147752341Y-112272869D01*
X147695902Y-112204098D01*
X147627131Y-112147659D01*
X147548671Y-112105721D01*
X147463537Y-112079896D01*
X147375000Y-112071176D01*
X147125000Y-112071176D01*
X147036463Y-112079896D01*
X147000000Y-112090957D01*
X146963537Y-112079896D01*
X146875000Y-112071176D01*
X146625000Y-112071176D01*
X146536463Y-112079896D01*
X146451329Y-112105721D01*
X146372869Y-112147659D01*
X146304098Y-112204098D01*
X146247659Y-112272869D01*
X146205721Y-112351329D01*
X146179896Y-112436463D01*
X146171176Y-112525000D01*
X111104018Y-112525000D01*
X111099212Y-112509158D01*
X110739205Y-111835632D01*
X110254718Y-111245282D01*
X109664368Y-110760795D01*
X108990841Y-110400788D01*
X108260024Y-110179097D01*
X107500000Y-110104241D01*
X106739975Y-110179097D01*
X106009158Y-110400788D01*
X105335632Y-110760795D01*
X104745282Y-111245282D01*
X104260795Y-111835632D01*
X103900788Y-112509159D01*
X103679097Y-113239976D01*
X103623000Y-113809538D01*
X100402000Y-113809538D01*
X100402000Y-101019658D01*
X100415279Y-100884227D01*
X100448905Y-100772852D01*
X100503518Y-100670141D01*
X100577046Y-100579986D01*
X100666682Y-100505832D01*
X100769011Y-100450503D01*
X100880141Y-100416103D01*
X101014318Y-100402000D01*
X258980342Y-100402000D01*
X259115773Y-100415279D01*
G37*
X259115773Y-100415279D02*
X259227148Y-100448905D01*
X259329859Y-100503518D01*
X259420014Y-100577046D01*
X259494168Y-100666682D01*
X259549497Y-100769011D01*
X259583897Y-100880141D01*
X259598000Y-101014318D01*
X259598001Y-111732386D01*
X259593402Y-111725600D01*
X259533539Y-111666514D01*
X259463299Y-111620242D01*
X259385381Y-111588562D01*
X259302781Y-111572692D01*
X259218672Y-111573241D01*
X259136285Y-111590189D01*
X259058789Y-111622885D01*
X258989159Y-111670071D01*
X258930073Y-111729934D01*
X258883801Y-111800174D01*
X258865636Y-111844851D01*
X258834575Y-111807998D01*
X258768863Y-111755494D01*
X258694171Y-111716818D01*
X258613369Y-111693457D01*
X258529563Y-111686308D01*
X258445971Y-111695647D01*
X258365807Y-111721115D01*
X258292154Y-111761732D01*
X258227838Y-111815939D01*
X258175334Y-111881651D01*
X258136658Y-111956343D01*
X258123248Y-112002724D01*
X258088435Y-111969254D01*
X258017594Y-111923908D01*
X257939267Y-111893253D01*
X257856465Y-111878469D01*
X257772371Y-111880121D01*
X257690214Y-111898150D01*
X257613152Y-111931859D01*
X257544149Y-111979955D01*
X257485854Y-112040589D01*
X257440508Y-112111430D01*
X257409853Y-112189757D01*
X257401382Y-112237201D01*
X257363341Y-112207611D01*
X257288150Y-112169913D01*
X257207050Y-112147608D01*
X257123157Y-112141554D01*
X257039695Y-112151983D01*
X256959871Y-112178495D01*
X256886752Y-112220069D01*
X256823150Y-112275111D01*
X256771508Y-112341502D01*
X256733810Y-112416693D01*
X256719097Y-112470188D01*
X256609275Y-112279972D01*
X256572560Y-112228737D01*
X256511170Y-112171240D01*
X256439742Y-112126823D01*
X256361021Y-112097196D01*
X256278033Y-112083494D01*
X256193967Y-112086247D01*
X256112053Y-112105346D01*
X256035439Y-112140060D01*
X255967069Y-112189054D01*
X255909572Y-112250444D01*
X255865155Y-112321872D01*
X255835528Y-112400593D01*
X255821826Y-112483581D01*
X255824579Y-112567647D01*
X255843678Y-112649561D01*
X255869693Y-112706975D01*
X255979482Y-112897134D01*
X255925889Y-112883149D01*
X255841924Y-112878197D01*
X255758605Y-112889721D01*
X255679136Y-112917277D01*
X255606570Y-112959810D01*
X255543696Y-113015681D01*
X255492930Y-113082745D01*
X255456223Y-113158424D01*
X255434986Y-113239810D01*
X255430034Y-113323775D01*
X255436646Y-113371581D01*
X255391275Y-113355179D01*
X255308115Y-113342564D01*
X255224092Y-113346416D01*
X255142435Y-113366585D01*
X255066281Y-113402296D01*
X254998558Y-113452180D01*
X254941867Y-113514317D01*
X254898389Y-113586320D01*
X254869793Y-113665421D01*
X254857178Y-113748581D01*
X254861030Y-113832604D01*
X254872601Y-113879449D01*
X254825742Y-113867875D01*
X254741720Y-113864023D01*
X254658559Y-113876637D01*
X254579458Y-113905233D01*
X254507455Y-113948710D01*
X254445317Y-114005400D01*
X254395433Y-114073123D01*
X254359721Y-114149276D01*
X254339551Y-114230934D01*
X254335699Y-114314956D01*
X254348313Y-114398117D01*
X254364717Y-114443492D01*
X254316941Y-114436885D01*
X254232976Y-114441837D01*
X254151590Y-114463075D01*
X254075911Y-114499783D01*
X254008847Y-114550548D01*
X253952976Y-114613423D01*
X253910444Y-114685989D01*
X253882888Y-114765458D01*
X253871365Y-114848777D01*
X253876317Y-114932742D01*
X253890305Y-114986346D01*
X253700107Y-114876536D01*
X253642693Y-114850522D01*
X253560779Y-114831424D01*
X253476713Y-114828672D01*
X253393725Y-114842374D01*
X253315005Y-114872002D01*
X253243577Y-114916419D01*
X253182187Y-114973916D01*
X253133194Y-115042286D01*
X253098480Y-115118901D01*
X253079382Y-115200815D01*
X253076630Y-115284881D01*
X253090332Y-115367869D01*
X253119960Y-115446589D01*
X253164377Y-115518017D01*
X253221874Y-115579407D01*
X253273110Y-115616122D01*
X253463297Y-115725926D01*
X253409868Y-115740618D01*
X253334676Y-115778313D01*
X253268282Y-115829953D01*
X253213239Y-115893553D01*
X253171662Y-115966670D01*
X253145147Y-116046494D01*
X253134716Y-116129955D01*
X253140767Y-116213848D01*
X253163069Y-116294949D01*
X253200764Y-116370141D01*
X253230380Y-116408218D01*
X253182883Y-116416700D01*
X253104557Y-116447356D01*
X253033717Y-116492704D01*
X252973085Y-116551001D01*
X252924990Y-116620005D01*
X252891283Y-116697067D01*
X252873256Y-116779225D01*
X252871606Y-116863319D01*
X252886392Y-116946121D01*
X252917048Y-117024447D01*
X252962396Y-117095287D01*
X252995862Y-117130094D01*
X252949477Y-117143504D01*
X252874785Y-117182180D01*
X252809073Y-117234684D01*
X252754867Y-117299000D01*
X252714249Y-117372654D01*
X252688782Y-117452817D01*
X252679443Y-117536409D01*
X252686592Y-117620215D01*
X252709953Y-117701018D01*
X252748629Y-117775710D01*
X252801133Y-117841422D01*
X252837994Y-117872489D01*
X252793353Y-117890636D01*
X252723111Y-117936905D01*
X252663245Y-117995988D01*
X252616056Y-118065616D01*
X252583356Y-118143110D01*
X252566405Y-118225496D01*
X252565851Y-118309605D01*
X252581717Y-118392206D01*
X252613393Y-118470126D01*
X252659662Y-118540368D01*
X252698624Y-118579846D01*
X252478994Y-118579846D01*
X252416265Y-118586024D01*
X252335776Y-118610441D01*
X252261596Y-118650091D01*
X252196577Y-118703451D01*
X252143217Y-118768470D01*
X252103567Y-118842650D01*
X252079150Y-118923139D01*
X252070906Y-119006846D01*
X252079150Y-119090553D01*
X252103567Y-119171042D01*
X252143217Y-119245222D01*
X252196577Y-119310241D01*
X252261596Y-119363601D01*
X252335776Y-119403251D01*
X252416265Y-119427668D01*
X252478994Y-119433846D01*
X252698560Y-119433846D01*
X252659675Y-119473242D01*
X252613403Y-119543482D01*
X252581723Y-119621400D01*
X252565852Y-119704000D01*
X252566402Y-119788110D01*
X252583350Y-119870496D01*
X252616046Y-119947993D01*
X252663232Y-120017622D01*
X252723095Y-120076708D01*
X252793335Y-120122980D01*
X252838045Y-120141158D01*
X252801134Y-120172268D01*
X252748629Y-120237980D01*
X252709953Y-120312672D01*
X252686592Y-120393475D01*
X252679443Y-120477280D01*
X252688782Y-120560872D01*
X252714249Y-120641036D01*
X252754867Y-120714690D01*
X252809073Y-120779005D01*
X252874785Y-120831510D01*
X252949477Y-120870186D01*
X252995813Y-120883582D01*
X252962403Y-120918329D01*
X252917054Y-120989168D01*
X252886395Y-121067493D01*
X252871606Y-121150294D01*
X252873255Y-121234388D01*
X252891279Y-121316546D01*
X252924984Y-121393610D01*
X252973077Y-121462615D01*
X253033708Y-121520914D01*
X253104547Y-121566263D01*
X253182872Y-121596922D01*
X253230402Y-121605411D01*
X253200762Y-121643521D01*
X253163067Y-121718713D01*
X253140766Y-121799815D01*
X253134716Y-121883708D01*
X253145148Y-121967169D01*
X253171663Y-122046992D01*
X253213241Y-122120109D01*
X253268285Y-122183709D01*
X253334679Y-122235348D01*
X253409871Y-122273043D01*
X253463259Y-122287723D01*
X253273110Y-122397505D01*
X253221874Y-122434220D01*
X253164377Y-122495610D01*
X253119960Y-122567038D01*
X253090332Y-122645758D01*
X253076630Y-122728746D01*
X253079382Y-122812812D01*
X253098480Y-122894726D01*
X253133194Y-122971341D01*
X253182187Y-123039711D01*
X253243577Y-123097208D01*
X253315005Y-123141625D01*
X253393725Y-123171253D01*
X253476713Y-123184955D01*
X253560779Y-123182203D01*
X253642693Y-123163105D01*
X253700107Y-123137091D01*
X253890326Y-123027269D01*
X253876314Y-123080975D01*
X253871365Y-123164940D01*
X253882893Y-123248258D01*
X253910453Y-123327726D01*
X253952988Y-123400290D01*
X254008862Y-123463162D01*
X254075929Y-123513924D01*
X254151610Y-123550628D01*
X254232997Y-123571862D01*
X254316962Y-123576811D01*
X254364715Y-123570204D01*
X254348311Y-123615583D01*
X254335699Y-123698744D01*
X254339552Y-123782766D01*
X254359724Y-123864423D01*
X254395438Y-123940575D01*
X254445323Y-124008297D01*
X254507462Y-124064986D01*
X254579466Y-124108462D01*
X254658568Y-124137056D01*
X254741729Y-124149668D01*
X254825751Y-124145815D01*
X254872589Y-124134244D01*
X254861031Y-124181032D01*
X254857178Y-124265054D01*
X254869790Y-124348215D01*
X254898385Y-124427317D01*
X254941861Y-124499320D01*
X254998550Y-124561459D01*
X255066272Y-124611344D01*
X255142424Y-124647057D01*
X255224082Y-124667229D01*
X255308104Y-124671082D01*
X255391265Y-124658470D01*
X255436650Y-124642064D01*
X255430034Y-124689892D01*
X255434985Y-124773857D01*
X255456222Y-124855243D01*
X255492928Y-124930923D01*
X255543693Y-124997988D01*
X255606567Y-125053859D01*
X255679133Y-125096392D01*
X255758602Y-125123949D01*
X255841920Y-125135474D01*
X255925885Y-125130523D01*
X255979486Y-125116536D01*
X255869689Y-125306715D01*
X255843676Y-125364129D01*
X255824578Y-125446044D01*
X255821827Y-125530109D01*
X255835529Y-125613097D01*
X255865158Y-125691818D01*
X255909576Y-125763245D01*
X255967074Y-125824635D01*
X256035445Y-125873627D01*
X256112059Y-125908340D01*
X256193974Y-125927438D01*
X256278039Y-125930189D01*
X256361027Y-125916487D01*
X256439748Y-125886858D01*
X256511175Y-125842440D01*
X256572565Y-125784942D01*
X256609279Y-125733706D01*
X256719106Y-125543475D01*
X256733809Y-125596937D01*
X256771506Y-125672129D01*
X256823148Y-125738521D01*
X256886749Y-125793562D01*
X256959867Y-125835138D01*
X257039691Y-125861650D01*
X257123153Y-125872079D01*
X257207046Y-125866026D01*
X257288146Y-125843722D01*
X257363338Y-125806025D01*
X257401381Y-125776434D01*
X257409852Y-125823879D01*
X257440506Y-125902206D01*
X257485851Y-125973048D01*
X257544146Y-126033682D01*
X257613149Y-126081779D01*
X257690210Y-126115489D01*
X257772367Y-126133518D01*
X257856461Y-126135172D01*
X257939263Y-126120388D01*
X258017590Y-126089734D01*
X258088432Y-126044389D01*
X258123245Y-126010919D01*
X258136658Y-126057311D01*
X258175334Y-126132003D01*
X258227838Y-126197715D01*
X258292154Y-126251921D01*
X258365808Y-126292539D01*
X258445971Y-126318006D01*
X258529563Y-126327345D01*
X258613369Y-126320196D01*
X258694172Y-126296835D01*
X258768864Y-126258159D01*
X258834576Y-126205655D01*
X258865633Y-126168805D01*
X258883801Y-126213490D01*
X258930073Y-126283730D01*
X258989159Y-126343593D01*
X259058788Y-126390779D01*
X259136285Y-126423475D01*
X259218671Y-126440423D01*
X259302781Y-126440973D01*
X259385381Y-126425102D01*
X259463299Y-126393422D01*
X259533539Y-126347150D01*
X259593402Y-126288064D01*
X259598001Y-126281278D01*
X259598000Y-136980343D01*
X259584720Y-137115776D01*
X259551095Y-137227146D01*
X259496482Y-137329860D01*
X259422954Y-137420014D01*
X259333318Y-137494168D01*
X259230989Y-137549497D01*
X259119859Y-137583897D01*
X258985681Y-137598000D01*
X101019657Y-137598000D01*
X100884224Y-137584720D01*
X100772854Y-137551095D01*
X100670140Y-137496482D01*
X100579986Y-137422954D01*
X100505832Y-137333318D01*
X100450503Y-137230989D01*
X100416103Y-137119859D01*
X100402000Y-136985681D01*
X100402000Y-130024999D01*
X143046176Y-130024999D01*
X143046176Y-132875001D01*
X143058259Y-132997678D01*
X143094042Y-133115641D01*
X143152152Y-133224356D01*
X143230354Y-133319646D01*
X143325644Y-133397848D01*
X143434359Y-133455958D01*
X143552322Y-133491741D01*
X143674999Y-133503824D01*
X144525001Y-133503824D01*
X144647678Y-133491741D01*
X144765641Y-133455958D01*
X144874356Y-133397848D01*
X144969646Y-133319646D01*
X145047848Y-133224356D01*
X145105958Y-133115641D01*
X145141741Y-132997678D01*
X145153824Y-132875001D01*
X145153824Y-130024999D01*
X148846176Y-130024999D01*
X148846176Y-132875001D01*
X148858259Y-132997678D01*
X148894042Y-133115641D01*
X148952152Y-133224356D01*
X149030354Y-133319646D01*
X149125644Y-133397848D01*
X149234359Y-133455958D01*
X149352322Y-133491741D01*
X149474999Y-133503824D01*
X150325001Y-133503824D01*
X150447678Y-133491741D01*
X150565641Y-133455958D01*
X150674356Y-133397848D01*
X150769646Y-133319646D01*
X150847848Y-133224356D01*
X150905958Y-133115641D01*
X150941741Y-132997678D01*
X150953824Y-132875001D01*
X150953824Y-131100000D01*
X164021176Y-131100000D01*
X164021176Y-132300000D01*
X164028455Y-132373905D01*
X164050012Y-132444970D01*
X164085019Y-132510463D01*
X164132131Y-132567869D01*
X164189537Y-132614981D01*
X164255030Y-132649988D01*
X164326095Y-132671545D01*
X164400000Y-132678824D01*
X165300000Y-132678824D01*
X165373905Y-132671545D01*
X165444970Y-132649988D01*
X165510463Y-132614981D01*
X165567869Y-132567869D01*
X165614981Y-132510463D01*
X165649988Y-132444970D01*
X165671545Y-132373905D01*
X165678824Y-132300000D01*
X165678824Y-131100000D01*
X167321176Y-131100000D01*
X167321176Y-132300000D01*
X167328455Y-132373905D01*
X167350012Y-132444970D01*
X167385019Y-132510463D01*
X167432131Y-132567869D01*
X167489537Y-132614981D01*
X167555030Y-132649988D01*
X167626095Y-132671545D01*
X167700000Y-132678824D01*
X168600000Y-132678824D01*
X168673905Y-132671545D01*
X168744970Y-132649988D01*
X168810463Y-132614981D01*
X168867869Y-132567869D01*
X168914981Y-132510463D01*
X168949988Y-132444970D01*
X168971545Y-132373905D01*
X168973745Y-132351564D01*
X175097500Y-132351564D01*
X175097500Y-132588436D01*
X175143712Y-132820756D01*
X175234359Y-133039597D01*
X175365958Y-133236549D01*
X175533451Y-133404042D01*
X175730403Y-133535641D01*
X175949244Y-133626288D01*
X176181564Y-133672500D01*
X176418436Y-133672500D01*
X176650756Y-133626288D01*
X176869597Y-133535641D01*
X177066549Y-133404042D01*
X177234042Y-133236549D01*
X177365641Y-133039597D01*
X177456288Y-132820756D01*
X177502500Y-132588436D01*
X177502500Y-132351564D01*
X177456288Y-132119244D01*
X177365641Y-131900403D01*
X177234042Y-131703451D01*
X177066549Y-131535958D01*
X176869597Y-131404359D01*
X176650756Y-131313712D01*
X176418436Y-131267500D01*
X176181564Y-131267500D01*
X175949244Y-131313712D01*
X175730403Y-131404359D01*
X175533451Y-131535958D01*
X175365958Y-131703451D01*
X175234359Y-131900403D01*
X175143712Y-132119244D01*
X175097500Y-132351564D01*
X168973745Y-132351564D01*
X168978824Y-132300000D01*
X168978824Y-131100000D01*
X168971545Y-131026095D01*
X168949988Y-130955030D01*
X168914981Y-130889537D01*
X168867869Y-130832131D01*
X168810463Y-130785019D01*
X168744970Y-130750012D01*
X168673905Y-130728455D01*
X168600000Y-130721176D01*
X167700000Y-130721176D01*
X167626095Y-130728455D01*
X167555030Y-130750012D01*
X167489537Y-130785019D01*
X167432131Y-130832131D01*
X167385019Y-130889537D01*
X167350012Y-130955030D01*
X167328455Y-131026095D01*
X167321176Y-131100000D01*
X165678824Y-131100000D01*
X165671545Y-131026095D01*
X165649988Y-130955030D01*
X165614981Y-130889537D01*
X165567869Y-130832131D01*
X165510463Y-130785019D01*
X165444970Y-130750012D01*
X165373905Y-130728455D01*
X165300000Y-130721176D01*
X164400000Y-130721176D01*
X164326095Y-130728455D01*
X164255030Y-130750012D01*
X164189537Y-130785019D01*
X164132131Y-130832131D01*
X164085019Y-130889537D01*
X164050012Y-130955030D01*
X164028455Y-131026095D01*
X164021176Y-131100000D01*
X150953824Y-131100000D01*
X150953824Y-130024999D01*
X150941741Y-129902322D01*
X150905958Y-129784359D01*
X150887593Y-129750000D01*
X181221176Y-129750000D01*
X181221176Y-130950000D01*
X181228455Y-131023905D01*
X181250012Y-131094970D01*
X181285019Y-131160463D01*
X181317466Y-131200000D01*
X181285019Y-131239537D01*
X181250012Y-131305030D01*
X181228455Y-131376095D01*
X181221176Y-131450000D01*
X181221176Y-132650000D01*
X181228455Y-132723905D01*
X181250012Y-132794970D01*
X181285019Y-132860463D01*
X181332131Y-132917869D01*
X181389537Y-132964981D01*
X181455030Y-132999988D01*
X181526095Y-133021545D01*
X181600000Y-133028824D01*
X183000000Y-133028824D01*
X183073905Y-133021545D01*
X183144970Y-132999988D01*
X183210463Y-132964981D01*
X183267869Y-132917869D01*
X183314981Y-132860463D01*
X183349988Y-132794970D01*
X183371545Y-132723905D01*
X183378824Y-132650000D01*
X183378824Y-131450000D01*
X183371545Y-131376095D01*
X183349988Y-131305030D01*
X183314981Y-131239537D01*
X183282534Y-131200000D01*
X183314981Y-131160463D01*
X183349988Y-131094970D01*
X183371545Y-131023905D01*
X183378824Y-130950000D01*
X183378824Y-129750000D01*
X183421176Y-129750000D01*
X183421176Y-130950000D01*
X183428455Y-131023905D01*
X183450012Y-131094970D01*
X183485019Y-131160463D01*
X183517466Y-131200000D01*
X183485019Y-131239537D01*
X183450012Y-131305030D01*
X183428455Y-131376095D01*
X183421176Y-131450000D01*
X183421176Y-132650000D01*
X183428455Y-132723905D01*
X183450012Y-132794970D01*
X183485019Y-132860463D01*
X183532131Y-132917869D01*
X183589537Y-132964981D01*
X183655030Y-132999988D01*
X183726095Y-133021545D01*
X183800000Y-133028824D01*
X185200000Y-133028824D01*
X185273905Y-133021545D01*
X185344970Y-132999988D01*
X185410463Y-132964981D01*
X185467869Y-132917869D01*
X185514981Y-132860463D01*
X185549988Y-132794970D01*
X185571545Y-132723905D01*
X185578824Y-132650000D01*
X185578824Y-131450000D01*
X185571545Y-131376095D01*
X185549988Y-131305030D01*
X185514981Y-131239537D01*
X185482534Y-131200000D01*
X185514981Y-131160463D01*
X185549988Y-131094970D01*
X185571545Y-131023905D01*
X185578824Y-130950000D01*
X185578824Y-129750000D01*
X185571545Y-129676095D01*
X185549988Y-129605030D01*
X185514981Y-129539537D01*
X185467869Y-129482131D01*
X185410463Y-129435019D01*
X185344970Y-129400012D01*
X185273905Y-129378455D01*
X185200000Y-129371176D01*
X183800000Y-129371176D01*
X183726095Y-129378455D01*
X183655030Y-129400012D01*
X183589537Y-129435019D01*
X183532131Y-129482131D01*
X183485019Y-129539537D01*
X183450012Y-129605030D01*
X183428455Y-129676095D01*
X183421176Y-129750000D01*
X183378824Y-129750000D01*
X183371545Y-129676095D01*
X183349988Y-129605030D01*
X183314981Y-129539537D01*
X183267869Y-129482131D01*
X183210463Y-129435019D01*
X183144970Y-129400012D01*
X183073905Y-129378455D01*
X183000000Y-129371176D01*
X181600000Y-129371176D01*
X181526095Y-129378455D01*
X181455030Y-129400012D01*
X181389537Y-129435019D01*
X181332131Y-129482131D01*
X181285019Y-129539537D01*
X181250012Y-129605030D01*
X181228455Y-129676095D01*
X181221176Y-129750000D01*
X150887593Y-129750000D01*
X150847848Y-129675644D01*
X150769646Y-129580354D01*
X150674356Y-129502152D01*
X150565641Y-129444042D01*
X150447678Y-129408259D01*
X150325001Y-129396176D01*
X149474999Y-129396176D01*
X149352322Y-129408259D01*
X149234359Y-129444042D01*
X149125644Y-129502152D01*
X149030354Y-129580354D01*
X148952152Y-129675644D01*
X148894042Y-129784359D01*
X148858259Y-129902322D01*
X148846176Y-130024999D01*
X145153824Y-130024999D01*
X145141741Y-129902322D01*
X145105958Y-129784359D01*
X145047848Y-129675644D01*
X144969646Y-129580354D01*
X144874356Y-129502152D01*
X144765641Y-129444042D01*
X144647678Y-129408259D01*
X144525001Y-129396176D01*
X143674999Y-129396176D01*
X143552322Y-129408259D01*
X143434359Y-129444042D01*
X143325644Y-129502152D01*
X143230354Y-129580354D01*
X143152152Y-129675644D01*
X143094042Y-129784359D01*
X143058259Y-129902322D01*
X143046176Y-130024999D01*
X100402000Y-130024999D01*
X100402000Y-113809538D01*
X103623000Y-113809538D01*
X103623001Y-124190463D01*
X103679098Y-124760025D01*
X103900789Y-125490842D01*
X104260796Y-126164368D01*
X104745283Y-126754718D01*
X105335633Y-127239205D01*
X106009159Y-127599212D01*
X106739976Y-127820903D01*
X107500000Y-127895759D01*
X108260025Y-127820903D01*
X108990842Y-127599212D01*
X109664368Y-127239205D01*
X110254718Y-126754718D01*
X110739205Y-126164368D01*
X110840424Y-125975000D01*
X144596176Y-125975000D01*
X144596176Y-128125000D01*
X144608259Y-128247677D01*
X144644042Y-128365641D01*
X144702152Y-128474356D01*
X144780354Y-128569646D01*
X144875644Y-128647848D01*
X144984359Y-128705958D01*
X145102323Y-128741741D01*
X145225000Y-128753824D01*
X145975000Y-128753824D01*
X146097677Y-128741741D01*
X146215641Y-128705958D01*
X146324356Y-128647848D01*
X146419646Y-128569646D01*
X146497848Y-128474356D01*
X146555958Y-128365641D01*
X146591741Y-128247677D01*
X146603824Y-128125000D01*
X146603824Y-125975000D01*
X147396176Y-125975000D01*
X147396176Y-128125000D01*
X147408259Y-128247677D01*
X147444042Y-128365641D01*
X147502152Y-128474356D01*
X147580354Y-128569646D01*
X147675644Y-128647848D01*
X147784359Y-128705958D01*
X147902323Y-128741741D01*
X148025000Y-128753824D01*
X148775000Y-128753824D01*
X148897677Y-128741741D01*
X149015641Y-128705958D01*
X149124356Y-128647848D01*
X149213122Y-128575000D01*
X164871176Y-128575000D01*
X164871176Y-129025000D01*
X164878455Y-129098905D01*
X164900012Y-129169970D01*
X164935019Y-129235463D01*
X164982131Y-129292869D01*
X165039537Y-129339981D01*
X165105030Y-129374988D01*
X165176095Y-129396545D01*
X165250000Y-129403824D01*
X165850000Y-129403824D01*
X165923905Y-129396545D01*
X165994970Y-129374988D01*
X166060463Y-129339981D01*
X166117869Y-129292869D01*
X166164981Y-129235463D01*
X166199988Y-129169970D01*
X166221545Y-129098905D01*
X166228824Y-129025000D01*
X166228824Y-128575000D01*
X166971176Y-128575000D01*
X166971176Y-129025000D01*
X166978455Y-129098905D01*
X167000012Y-129169970D01*
X167035019Y-129235463D01*
X167082131Y-129292869D01*
X167139537Y-129339981D01*
X167205030Y-129374988D01*
X167276095Y-129396545D01*
X167350000Y-129403824D01*
X167950000Y-129403824D01*
X168023905Y-129396545D01*
X168094970Y-129374988D01*
X168160463Y-129339981D01*
X168217869Y-129292869D01*
X168264981Y-129235463D01*
X168287396Y-129193526D01*
X214973000Y-129193526D01*
X214973000Y-130006474D01*
X215131598Y-130803802D01*
X215442700Y-131554868D01*
X215894350Y-132230809D01*
X216469191Y-132805650D01*
X217145132Y-133257300D01*
X217896198Y-133568402D01*
X218693526Y-133727000D01*
X219506474Y-133727000D01*
X220303802Y-133568402D01*
X221054868Y-133257300D01*
X221730809Y-132805650D01*
X222305650Y-132230809D01*
X222757300Y-131554868D01*
X223068402Y-130803802D01*
X223227000Y-130006474D01*
X223227000Y-129193526D01*
X223068402Y-128396198D01*
X222757300Y-127645132D01*
X222305650Y-126969191D01*
X221730809Y-126394350D01*
X221054868Y-125942700D01*
X220303802Y-125631598D01*
X219506474Y-125473000D01*
X218693526Y-125473000D01*
X217896198Y-125631598D01*
X217145132Y-125942700D01*
X216469191Y-126394350D01*
X215894350Y-126969191D01*
X215442700Y-127645132D01*
X215131598Y-128396198D01*
X214973000Y-129193526D01*
X168287396Y-129193526D01*
X168299988Y-129169970D01*
X168321545Y-129098905D01*
X168328824Y-129025000D01*
X168328824Y-128575000D01*
X168321545Y-128501095D01*
X168299988Y-128430030D01*
X168264981Y-128364537D01*
X168217869Y-128307131D01*
X168160463Y-128260019D01*
X168094970Y-128225012D01*
X168023905Y-128203455D01*
X167950000Y-128196176D01*
X167350000Y-128196176D01*
X167276095Y-128203455D01*
X167205030Y-128225012D01*
X167139537Y-128260019D01*
X167082131Y-128307131D01*
X167035019Y-128364537D01*
X167000012Y-128430030D01*
X166978455Y-128501095D01*
X166971176Y-128575000D01*
X166228824Y-128575000D01*
X166221545Y-128501095D01*
X166199988Y-128430030D01*
X166164981Y-128364537D01*
X166117869Y-128307131D01*
X166060463Y-128260019D01*
X165994970Y-128225012D01*
X165923905Y-128203455D01*
X165850000Y-128196176D01*
X165250000Y-128196176D01*
X165176095Y-128203455D01*
X165105030Y-128225012D01*
X165039537Y-128260019D01*
X164982131Y-128307131D01*
X164935019Y-128364537D01*
X164900012Y-128430030D01*
X164878455Y-128501095D01*
X164871176Y-128575000D01*
X149213122Y-128575000D01*
X149219646Y-128569646D01*
X149297848Y-128474356D01*
X149355958Y-128365641D01*
X149391741Y-128247677D01*
X149403824Y-128125000D01*
X149403824Y-126050000D01*
X165221176Y-126050000D01*
X165221176Y-126750000D01*
X165228455Y-126823905D01*
X165250012Y-126894970D01*
X165285019Y-126960463D01*
X165332131Y-127017869D01*
X165389537Y-127064981D01*
X165455030Y-127099988D01*
X165526095Y-127121545D01*
X165600000Y-127128824D01*
X166200000Y-127128824D01*
X166273905Y-127121545D01*
X166344970Y-127099988D01*
X166410463Y-127064981D01*
X166467869Y-127017869D01*
X166514981Y-126960463D01*
X166549988Y-126894970D01*
X166571545Y-126823905D01*
X166578824Y-126750000D01*
X166578824Y-126050000D01*
X166621176Y-126050000D01*
X166621176Y-126750000D01*
X166628455Y-126823905D01*
X166650012Y-126894970D01*
X166685019Y-126960463D01*
X166732131Y-127017869D01*
X166789537Y-127064981D01*
X166855030Y-127099988D01*
X166926095Y-127121545D01*
X167000000Y-127128824D01*
X167600000Y-127128824D01*
X167673905Y-127121545D01*
X167744970Y-127099988D01*
X167810463Y-127064981D01*
X167867869Y-127017869D01*
X167914981Y-126960463D01*
X167949988Y-126894970D01*
X167971545Y-126823905D01*
X167978824Y-126750000D01*
X167978824Y-126350000D01*
X181871176Y-126350000D01*
X181871176Y-127150000D01*
X181878455Y-127223905D01*
X181900012Y-127294970D01*
X181902701Y-127300000D01*
X181900012Y-127305030D01*
X181878455Y-127376095D01*
X181871176Y-127450000D01*
X181871176Y-128250000D01*
X181878455Y-128323905D01*
X181900012Y-128394970D01*
X181935019Y-128460463D01*
X181982131Y-128517869D01*
X182039537Y-128564981D01*
X182105030Y-128599988D01*
X182176095Y-128621545D01*
X182250000Y-128628824D01*
X183150000Y-128628824D01*
X183223905Y-128621545D01*
X183294970Y-128599988D01*
X183360463Y-128564981D01*
X183400000Y-128532534D01*
X183439537Y-128564981D01*
X183505030Y-128599988D01*
X183576095Y-128621545D01*
X183650000Y-128628824D01*
X184550000Y-128628824D01*
X184623905Y-128621545D01*
X184694970Y-128599988D01*
X184760463Y-128564981D01*
X184817869Y-128517869D01*
X184864981Y-128460463D01*
X184899988Y-128394970D01*
X184921545Y-128323905D01*
X184928824Y-128250000D01*
X184928824Y-127450000D01*
X184921545Y-127376095D01*
X184899988Y-127305030D01*
X184897299Y-127300000D01*
X184899988Y-127294970D01*
X184921545Y-127223905D01*
X184928824Y-127150000D01*
X184928824Y-126350000D01*
X184921545Y-126276095D01*
X184899988Y-126205030D01*
X184864981Y-126139537D01*
X184817869Y-126082131D01*
X184760463Y-126035019D01*
X184694970Y-126000012D01*
X184623905Y-125978455D01*
X184550000Y-125971176D01*
X183650000Y-125971176D01*
X183576095Y-125978455D01*
X183505030Y-126000012D01*
X183439537Y-126035019D01*
X183400000Y-126067466D01*
X183360463Y-126035019D01*
X183294970Y-126000012D01*
X183223905Y-125978455D01*
X183150000Y-125971176D01*
X182250000Y-125971176D01*
X182176095Y-125978455D01*
X182105030Y-126000012D01*
X182039537Y-126035019D01*
X181982131Y-126082131D01*
X181935019Y-126139537D01*
X181900012Y-126205030D01*
X181878455Y-126276095D01*
X181871176Y-126350000D01*
X167978824Y-126350000D01*
X167978824Y-126050000D01*
X167971545Y-125976095D01*
X167949988Y-125905030D01*
X167914981Y-125839537D01*
X167867869Y-125782131D01*
X167810463Y-125735019D01*
X167744970Y-125700012D01*
X167673905Y-125678455D01*
X167600000Y-125671176D01*
X167000000Y-125671176D01*
X166926095Y-125678455D01*
X166855030Y-125700012D01*
X166789537Y-125735019D01*
X166732131Y-125782131D01*
X166685019Y-125839537D01*
X166650012Y-125905030D01*
X166628455Y-125976095D01*
X166621176Y-126050000D01*
X166578824Y-126050000D01*
X166571545Y-125976095D01*
X166549988Y-125905030D01*
X166514981Y-125839537D01*
X166467869Y-125782131D01*
X166410463Y-125735019D01*
X166344970Y-125700012D01*
X166273905Y-125678455D01*
X166200000Y-125671176D01*
X165600000Y-125671176D01*
X165526095Y-125678455D01*
X165455030Y-125700012D01*
X165389537Y-125735019D01*
X165332131Y-125782131D01*
X165285019Y-125839537D01*
X165250012Y-125905030D01*
X165228455Y-125976095D01*
X165221176Y-126050000D01*
X149403824Y-126050000D01*
X149403824Y-125975000D01*
X149391741Y-125852323D01*
X149355958Y-125734359D01*
X149297848Y-125625644D01*
X149219646Y-125530354D01*
X149124356Y-125452152D01*
X149015641Y-125394042D01*
X148897677Y-125358259D01*
X148775000Y-125346176D01*
X148025000Y-125346176D01*
X147902323Y-125358259D01*
X147784359Y-125394042D01*
X147675644Y-125452152D01*
X147580354Y-125530354D01*
X147502152Y-125625644D01*
X147444042Y-125734359D01*
X147408259Y-125852323D01*
X147396176Y-125975000D01*
X146603824Y-125975000D01*
X146591741Y-125852323D01*
X146555958Y-125734359D01*
X146497848Y-125625644D01*
X146419646Y-125530354D01*
X146324356Y-125452152D01*
X146215641Y-125394042D01*
X146097677Y-125358259D01*
X145975000Y-125346176D01*
X145225000Y-125346176D01*
X145102323Y-125358259D01*
X144984359Y-125394042D01*
X144875644Y-125452152D01*
X144780354Y-125530354D01*
X144702152Y-125625644D01*
X144644042Y-125734359D01*
X144608259Y-125852323D01*
X144596176Y-125975000D01*
X110840424Y-125975000D01*
X111099212Y-125490842D01*
X111320903Y-124760025D01*
X111377000Y-124190463D01*
X111377000Y-122875000D01*
X144596176Y-122875000D01*
X144596176Y-124125000D01*
X144608259Y-124247677D01*
X144644042Y-124365641D01*
X144702152Y-124474356D01*
X144780354Y-124569646D01*
X144875644Y-124647848D01*
X144984359Y-124705958D01*
X145102323Y-124741741D01*
X145225000Y-124753824D01*
X145975000Y-124753824D01*
X146097677Y-124741741D01*
X146215641Y-124705958D01*
X146324356Y-124647848D01*
X146419646Y-124569646D01*
X146497848Y-124474356D01*
X146555958Y-124365641D01*
X146591741Y-124247677D01*
X146603824Y-124125000D01*
X146603824Y-122875000D01*
X147396176Y-122875000D01*
X147396176Y-124125000D01*
X147408259Y-124247677D01*
X147444042Y-124365641D01*
X147502152Y-124474356D01*
X147580354Y-124569646D01*
X147675644Y-124647848D01*
X147784359Y-124705958D01*
X147902323Y-124741741D01*
X148025000Y-124753824D01*
X148775000Y-124753824D01*
X148897677Y-124741741D01*
X149015641Y-124705958D01*
X149124356Y-124647848D01*
X149219646Y-124569646D01*
X149297848Y-124474356D01*
X149355958Y-124365641D01*
X149391741Y-124247677D01*
X149403824Y-124125000D01*
X149403824Y-124024500D01*
X175095676Y-124024500D01*
X175095676Y-125675500D01*
X175102955Y-125749405D01*
X175124512Y-125820470D01*
X175159519Y-125885963D01*
X175206631Y-125943369D01*
X175264037Y-125990481D01*
X175329530Y-126025488D01*
X175400595Y-126047045D01*
X175474500Y-126054324D01*
X177125500Y-126054324D01*
X177199405Y-126047045D01*
X177270470Y-126025488D01*
X177335963Y-125990481D01*
X177393369Y-125943369D01*
X177440481Y-125885963D01*
X177475488Y-125820470D01*
X177497045Y-125749405D01*
X177504324Y-125675500D01*
X177504324Y-124024500D01*
X177497045Y-123950595D01*
X177475488Y-123879530D01*
X177440481Y-123814037D01*
X177393369Y-123756631D01*
X177335963Y-123709519D01*
X177270470Y-123674512D01*
X177199405Y-123652955D01*
X177125500Y-123645676D01*
X175474500Y-123645676D01*
X175400595Y-123652955D01*
X175329530Y-123674512D01*
X175264037Y-123709519D01*
X175206631Y-123756631D01*
X175159519Y-123814037D01*
X175124512Y-123879530D01*
X175102955Y-123950595D01*
X175095676Y-124024500D01*
X149403824Y-124024500D01*
X149403824Y-122875000D01*
X149391741Y-122752323D01*
X149355958Y-122634359D01*
X149297848Y-122525644D01*
X149219646Y-122430354D01*
X149124356Y-122352152D01*
X149015641Y-122294042D01*
X148897677Y-122258259D01*
X148775000Y-122246176D01*
X148025000Y-122246176D01*
X147902323Y-122258259D01*
X147784359Y-122294042D01*
X147675644Y-122352152D01*
X147580354Y-122430354D01*
X147502152Y-122525644D01*
X147444042Y-122634359D01*
X147408259Y-122752323D01*
X147396176Y-122875000D01*
X146603824Y-122875000D01*
X146591741Y-122752323D01*
X146555958Y-122634359D01*
X146497848Y-122525644D01*
X146419646Y-122430354D01*
X146324356Y-122352152D01*
X146215641Y-122294042D01*
X146097677Y-122258259D01*
X145975000Y-122246176D01*
X145225000Y-122246176D01*
X145102323Y-122258259D01*
X144984359Y-122294042D01*
X144875644Y-122352152D01*
X144780354Y-122430354D01*
X144702152Y-122525644D01*
X144644042Y-122634359D01*
X144608259Y-122752323D01*
X144596176Y-122875000D01*
X111377000Y-122875000D01*
X111377000Y-120143750D01*
X145196176Y-120143750D01*
X145196176Y-121056250D01*
X145208139Y-121177708D01*
X145243567Y-121294499D01*
X145301099Y-121402134D01*
X145378524Y-121496476D01*
X145472866Y-121573901D01*
X145580501Y-121631433D01*
X145697292Y-121666861D01*
X145818750Y-121678824D01*
X146306250Y-121678824D01*
X146427708Y-121666861D01*
X146544499Y-121631433D01*
X146652134Y-121573901D01*
X146746476Y-121496476D01*
X146823901Y-121402134D01*
X146881433Y-121294499D01*
X146916861Y-121177708D01*
X146928824Y-121056250D01*
X146928824Y-120143750D01*
X147071176Y-120143750D01*
X147071176Y-121056250D01*
X147083139Y-121177708D01*
X147118567Y-121294499D01*
X147176099Y-121402134D01*
X147253524Y-121496476D01*
X147347866Y-121573901D01*
X147455501Y-121631433D01*
X147572292Y-121666861D01*
X147693750Y-121678824D01*
X148181250Y-121678824D01*
X148302708Y-121666861D01*
X148419499Y-121631433D01*
X148527134Y-121573901D01*
X148621476Y-121496476D01*
X148698901Y-121402134D01*
X148756433Y-121294499D01*
X148791861Y-121177708D01*
X148803824Y-121056250D01*
X148803824Y-120465000D01*
X165616176Y-120465000D01*
X165616176Y-120735000D01*
X165623455Y-120808905D01*
X165635921Y-120850000D01*
X165623455Y-120891095D01*
X165616176Y-120965000D01*
X165616176Y-121235000D01*
X165623455Y-121308905D01*
X165635921Y-121350000D01*
X165623455Y-121391095D01*
X165616176Y-121465000D01*
X165616176Y-121735000D01*
X165623455Y-121808905D01*
X165645012Y-121879970D01*
X165680019Y-121945463D01*
X165727131Y-122002869D01*
X165784537Y-122049981D01*
X165850030Y-122084988D01*
X165921095Y-122106545D01*
X165995000Y-122113824D01*
X166325000Y-122113824D01*
X166398905Y-122106545D01*
X166469970Y-122084988D01*
X166500000Y-122068937D01*
X166530030Y-122084988D01*
X166601095Y-122106545D01*
X166675000Y-122113824D01*
X167005000Y-122113824D01*
X167078905Y-122106545D01*
X167149970Y-122084988D01*
X167215463Y-122049981D01*
X167272869Y-122002869D01*
X167319981Y-121945463D01*
X167354988Y-121879970D01*
X167376545Y-121808905D01*
X167383824Y-121735000D01*
X167383824Y-121465000D01*
X167376545Y-121391095D01*
X167364079Y-121350000D01*
X167376545Y-121308905D01*
X167383824Y-121235000D01*
X167383824Y-120965000D01*
X167376545Y-120891095D01*
X167364079Y-120850000D01*
X176321176Y-120850000D01*
X176321176Y-121350000D01*
X176328455Y-121423905D01*
X176350012Y-121494970D01*
X176385019Y-121560463D01*
X176432131Y-121617869D01*
X176489537Y-121664981D01*
X176555030Y-121699988D01*
X176626095Y-121721545D01*
X176700000Y-121728824D01*
X177150000Y-121728824D01*
X177223905Y-121721545D01*
X177294970Y-121699988D01*
X177360463Y-121664981D01*
X177417869Y-121617869D01*
X177464981Y-121560463D01*
X177471176Y-121548873D01*
X177471176Y-121700000D01*
X177478455Y-121773905D01*
X177500012Y-121844970D01*
X177535019Y-121910463D01*
X177582131Y-121967869D01*
X177639537Y-122014981D01*
X177705030Y-122049988D01*
X177776095Y-122071545D01*
X177850000Y-122078824D01*
X178300000Y-122078824D01*
X178373905Y-122071545D01*
X178444970Y-122049988D01*
X178510463Y-122014981D01*
X178567869Y-121967869D01*
X178614981Y-121910463D01*
X178649988Y-121844970D01*
X178671545Y-121773905D01*
X178678824Y-121700000D01*
X178678824Y-121300000D01*
X178671545Y-121226095D01*
X178649988Y-121155030D01*
X178620574Y-121100000D01*
X178649988Y-121044970D01*
X178671545Y-120973905D01*
X178678824Y-120900000D01*
X178678824Y-120587093D01*
X215923000Y-120587093D01*
X215923000Y-121212907D01*
X216045090Y-121826697D01*
X216284579Y-122404874D01*
X216632263Y-122925219D01*
X217074781Y-123367737D01*
X217595126Y-123715421D01*
X218173303Y-123954910D01*
X218787093Y-124077000D01*
X219412907Y-124077000D01*
X220026697Y-123954910D01*
X220604874Y-123715421D01*
X221125219Y-123367737D01*
X221567737Y-122925219D01*
X221915421Y-122404874D01*
X222154910Y-121826697D01*
X222277000Y-121212907D01*
X222277000Y-120587093D01*
X222154910Y-119973303D01*
X221915421Y-119395126D01*
X221567737Y-118874781D01*
X221125219Y-118432263D01*
X220604874Y-118084579D01*
X220026697Y-117845090D01*
X219412907Y-117723000D01*
X218787093Y-117723000D01*
X218173303Y-117845090D01*
X217595126Y-118084579D01*
X217074781Y-118432263D01*
X216632263Y-118874781D01*
X216284579Y-119395126D01*
X216045090Y-119973303D01*
X215923000Y-120587093D01*
X178678824Y-120587093D01*
X178678824Y-120500000D01*
X178671545Y-120426095D01*
X178649988Y-120355030D01*
X178614981Y-120289537D01*
X178567869Y-120232131D01*
X178510463Y-120185019D01*
X178444970Y-120150012D01*
X178373905Y-120128455D01*
X178300000Y-120121176D01*
X177850000Y-120121176D01*
X177776095Y-120128455D01*
X177705030Y-120150012D01*
X177639537Y-120185019D01*
X177582131Y-120232131D01*
X177535019Y-120289537D01*
X177500012Y-120355030D01*
X177478455Y-120426095D01*
X177471176Y-120500000D01*
X177471176Y-120651127D01*
X177464981Y-120639537D01*
X177417869Y-120582131D01*
X177360463Y-120535019D01*
X177294970Y-120500012D01*
X177223905Y-120478455D01*
X177150000Y-120471176D01*
X176700000Y-120471176D01*
X176626095Y-120478455D01*
X176555030Y-120500012D01*
X176489537Y-120535019D01*
X176432131Y-120582131D01*
X176385019Y-120639537D01*
X176350012Y-120705030D01*
X176328455Y-120776095D01*
X176321176Y-120850000D01*
X167364079Y-120850000D01*
X167376545Y-120808905D01*
X167383824Y-120735000D01*
X167383824Y-120465000D01*
X167376545Y-120391095D01*
X167354988Y-120320030D01*
X167319981Y-120254537D01*
X167272869Y-120197131D01*
X167215463Y-120150019D01*
X167149970Y-120115012D01*
X167078905Y-120093455D01*
X167005000Y-120086176D01*
X166675000Y-120086176D01*
X166601095Y-120093455D01*
X166530030Y-120115012D01*
X166500000Y-120131063D01*
X166469970Y-120115012D01*
X166398905Y-120093455D01*
X166325000Y-120086176D01*
X165995000Y-120086176D01*
X165921095Y-120093455D01*
X165850030Y-120115012D01*
X165784537Y-120150019D01*
X165727131Y-120197131D01*
X165680019Y-120254537D01*
X165645012Y-120320030D01*
X165623455Y-120391095D01*
X165616176Y-120465000D01*
X148803824Y-120465000D01*
X148803824Y-120143750D01*
X148791861Y-120022292D01*
X148756433Y-119905501D01*
X148698901Y-119797866D01*
X148621476Y-119703524D01*
X148527134Y-119626099D01*
X148419499Y-119568567D01*
X148302708Y-119533139D01*
X148181250Y-119521176D01*
X147693750Y-119521176D01*
X147572292Y-119533139D01*
X147455501Y-119568567D01*
X147347866Y-119626099D01*
X147253524Y-119703524D01*
X147176099Y-119797866D01*
X147118567Y-119905501D01*
X147083139Y-120022292D01*
X147071176Y-120143750D01*
X146928824Y-120143750D01*
X146916861Y-120022292D01*
X146881433Y-119905501D01*
X146823901Y-119797866D01*
X146746476Y-119703524D01*
X146652134Y-119626099D01*
X146544499Y-119568567D01*
X146427708Y-119533139D01*
X146306250Y-119521176D01*
X145818750Y-119521176D01*
X145697292Y-119533139D01*
X145580501Y-119568567D01*
X145472866Y-119626099D01*
X145378524Y-119703524D01*
X145301099Y-119797866D01*
X145243567Y-119905501D01*
X145208139Y-120022292D01*
X145196176Y-120143750D01*
X111377000Y-120143750D01*
X111377000Y-117743750D01*
X145396176Y-117743750D01*
X145396176Y-118256250D01*
X145407658Y-118372831D01*
X145441664Y-118484932D01*
X145496885Y-118588244D01*
X145571201Y-118678799D01*
X145661756Y-118753115D01*
X145765068Y-118808336D01*
X145877169Y-118842342D01*
X145993750Y-118853824D01*
X146431250Y-118853824D01*
X146547831Y-118842342D01*
X146659932Y-118808336D01*
X146763244Y-118753115D01*
X146853799Y-118678799D01*
X146928115Y-118588244D01*
X146983336Y-118484932D01*
X147000000Y-118429999D01*
X147016664Y-118484932D01*
X147071885Y-118588244D01*
X147146201Y-118678799D01*
X147236756Y-118753115D01*
X147340068Y-118808336D01*
X147452169Y-118842342D01*
X147568750Y-118853824D01*
X148006250Y-118853824D01*
X148122831Y-118842342D01*
X148234932Y-118808336D01*
X148338244Y-118753115D01*
X148428799Y-118678799D01*
X148503115Y-118588244D01*
X148558336Y-118484932D01*
X148592342Y-118372831D01*
X148603824Y-118256250D01*
X148603824Y-117743750D01*
X148592342Y-117627169D01*
X148558336Y-117515068D01*
X148503115Y-117411756D01*
X148428799Y-117321201D01*
X148338244Y-117246885D01*
X148234932Y-117191664D01*
X148122831Y-117157658D01*
X148006250Y-117146176D01*
X147568750Y-117146176D01*
X147452169Y-117157658D01*
X147340068Y-117191664D01*
X147236756Y-117246885D01*
X147146201Y-117321201D01*
X147071885Y-117411756D01*
X147016664Y-117515068D01*
X147000000Y-117570001D01*
X146983336Y-117515068D01*
X146928115Y-117411756D01*
X146853799Y-117321201D01*
X146763244Y-117246885D01*
X146659932Y-117191664D01*
X146547831Y-117157658D01*
X146431250Y-117146176D01*
X145993750Y-117146176D01*
X145877169Y-117157658D01*
X145765068Y-117191664D01*
X145661756Y-117246885D01*
X145571201Y-117321201D01*
X145496885Y-117411756D01*
X145441664Y-117515068D01*
X145407658Y-117627169D01*
X145396176Y-117743750D01*
X111377000Y-117743750D01*
X111377000Y-117100000D01*
X164846176Y-117100000D01*
X164846176Y-117500000D01*
X164853455Y-117573905D01*
X164868954Y-117625000D01*
X164853455Y-117676095D01*
X164846176Y-117750000D01*
X164846176Y-118150000D01*
X164853455Y-118223905D01*
X164868954Y-118275000D01*
X164853455Y-118326095D01*
X164846176Y-118400000D01*
X164846176Y-118800000D01*
X164853455Y-118873905D01*
X164875012Y-118944970D01*
X164910019Y-119010463D01*
X164957131Y-119067869D01*
X165014537Y-119114981D01*
X165080030Y-119149988D01*
X165151095Y-119171545D01*
X165225000Y-119178824D01*
X165875000Y-119178824D01*
X165948905Y-119171545D01*
X166019970Y-119149988D01*
X166085463Y-119114981D01*
X166142869Y-119067869D01*
X166189981Y-119010463D01*
X166224988Y-118944970D01*
X166246545Y-118873905D01*
X166253824Y-118800000D01*
X166253824Y-118400000D01*
X166246545Y-118326095D01*
X166231046Y-118275000D01*
X166246545Y-118223905D01*
X166253824Y-118150000D01*
X166253824Y-117750000D01*
X166246545Y-117676095D01*
X166231046Y-117625000D01*
X166246545Y-117573905D01*
X166253824Y-117500000D01*
X166253824Y-117100000D01*
X166746176Y-117100000D01*
X166746176Y-117500000D01*
X166753455Y-117573905D01*
X166768954Y-117625000D01*
X166753455Y-117676095D01*
X166746176Y-117750000D01*
X166746176Y-118150000D01*
X166753455Y-118223905D01*
X166768954Y-118275000D01*
X166753455Y-118326095D01*
X166746176Y-118400000D01*
X166746176Y-118800000D01*
X166753455Y-118873905D01*
X166775012Y-118944970D01*
X166810019Y-119010463D01*
X166857131Y-119067869D01*
X166914537Y-119114981D01*
X166980030Y-119149988D01*
X167051095Y-119171545D01*
X167125000Y-119178824D01*
X167775000Y-119178824D01*
X167848905Y-119171545D01*
X167919970Y-119149988D01*
X167985463Y-119114981D01*
X168042869Y-119067869D01*
X168089981Y-119010463D01*
X168124988Y-118944970D01*
X168146545Y-118873905D01*
X168153824Y-118800000D01*
X168153824Y-118400000D01*
X168146545Y-118326095D01*
X168131046Y-118275000D01*
X168146545Y-118223905D01*
X168153824Y-118150000D01*
X168153824Y-117750000D01*
X168151362Y-117725000D01*
X176021176Y-117725000D01*
X176021176Y-118175000D01*
X176028455Y-118248905D01*
X176050012Y-118319970D01*
X176085019Y-118385463D01*
X176132131Y-118442869D01*
X176189537Y-118489981D01*
X176255030Y-118524988D01*
X176326095Y-118546545D01*
X176400000Y-118553824D01*
X177100000Y-118553824D01*
X177173905Y-118546545D01*
X177244970Y-118524988D01*
X177310463Y-118489981D01*
X177367869Y-118442869D01*
X177414981Y-118385463D01*
X177420573Y-118375000D01*
X178021176Y-118375000D01*
X178021176Y-118825000D01*
X178028455Y-118898905D01*
X178050012Y-118969970D01*
X178085019Y-119035463D01*
X178132131Y-119092869D01*
X178189537Y-119139981D01*
X178255030Y-119174988D01*
X178326095Y-119196545D01*
X178400000Y-119203824D01*
X179100000Y-119203824D01*
X179173905Y-119196545D01*
X179244970Y-119174988D01*
X179310463Y-119139981D01*
X179367869Y-119092869D01*
X179414981Y-119035463D01*
X179449988Y-118969970D01*
X179471545Y-118898905D01*
X179478824Y-118825000D01*
X179478824Y-118375000D01*
X179471545Y-118301095D01*
X179449988Y-118230030D01*
X179414981Y-118164537D01*
X179367869Y-118107131D01*
X179310463Y-118060019D01*
X179244970Y-118025012D01*
X179173905Y-118003455D01*
X179100000Y-117996176D01*
X178400000Y-117996176D01*
X178326095Y-118003455D01*
X178255030Y-118025012D01*
X178189537Y-118060019D01*
X178132131Y-118107131D01*
X178085019Y-118164537D01*
X178050012Y-118230030D01*
X178028455Y-118301095D01*
X178021176Y-118375000D01*
X177420573Y-118375000D01*
X177449988Y-118319970D01*
X177471545Y-118248905D01*
X177478824Y-118175000D01*
X177478824Y-117725000D01*
X177471545Y-117651095D01*
X177449988Y-117580030D01*
X177414981Y-117514537D01*
X177367869Y-117457131D01*
X177310463Y-117410019D01*
X177244970Y-117375012D01*
X177173905Y-117353455D01*
X177100000Y-117346176D01*
X176400000Y-117346176D01*
X176326095Y-117353455D01*
X176255030Y-117375012D01*
X176189537Y-117410019D01*
X176132131Y-117457131D01*
X176085019Y-117514537D01*
X176050012Y-117580030D01*
X176028455Y-117651095D01*
X176021176Y-117725000D01*
X168151362Y-117725000D01*
X168146545Y-117676095D01*
X168131046Y-117625000D01*
X168146545Y-117573905D01*
X168153824Y-117500000D01*
X168153824Y-117100000D01*
X168151362Y-117075000D01*
X178021176Y-117075000D01*
X178021176Y-117525000D01*
X178028455Y-117598905D01*
X178050012Y-117669970D01*
X178085019Y-117735463D01*
X178132131Y-117792869D01*
X178189537Y-117839981D01*
X178255030Y-117874988D01*
X178326095Y-117896545D01*
X178400000Y-117903824D01*
X179100000Y-117903824D01*
X179173905Y-117896545D01*
X179244970Y-117874988D01*
X179310463Y-117839981D01*
X179367869Y-117792869D01*
X179414981Y-117735463D01*
X179449988Y-117669970D01*
X179471545Y-117598905D01*
X179478824Y-117525000D01*
X179478824Y-117075000D01*
X179471545Y-117001095D01*
X179449988Y-116930030D01*
X179414981Y-116864537D01*
X179367869Y-116807131D01*
X179310463Y-116760019D01*
X179244970Y-116725012D01*
X179173905Y-116703455D01*
X179100000Y-116696176D01*
X178400000Y-116696176D01*
X178326095Y-116703455D01*
X178255030Y-116725012D01*
X178189537Y-116760019D01*
X178132131Y-116807131D01*
X178085019Y-116864537D01*
X178050012Y-116930030D01*
X178028455Y-117001095D01*
X178021176Y-117075000D01*
X168151362Y-117075000D01*
X168146545Y-117026095D01*
X168124988Y-116955030D01*
X168089981Y-116889537D01*
X168042869Y-116832131D01*
X167985463Y-116785019D01*
X167919970Y-116750012D01*
X167848905Y-116728455D01*
X167775000Y-116721176D01*
X167125000Y-116721176D01*
X167051095Y-116728455D01*
X166980030Y-116750012D01*
X166914537Y-116785019D01*
X166857131Y-116832131D01*
X166810019Y-116889537D01*
X166775012Y-116955030D01*
X166753455Y-117026095D01*
X166746176Y-117100000D01*
X166253824Y-117100000D01*
X166246545Y-117026095D01*
X166224988Y-116955030D01*
X166189981Y-116889537D01*
X166142869Y-116832131D01*
X166085463Y-116785019D01*
X166019970Y-116750012D01*
X165948905Y-116728455D01*
X165875000Y-116721176D01*
X165225000Y-116721176D01*
X165151095Y-116728455D01*
X165080030Y-116750012D01*
X165014537Y-116785019D01*
X164957131Y-116832131D01*
X164910019Y-116889537D01*
X164875012Y-116955030D01*
X164853455Y-117026095D01*
X164846176Y-117100000D01*
X111377000Y-117100000D01*
X111377000Y-115727500D01*
X145841176Y-115727500D01*
X145841176Y-116072500D01*
X145851289Y-116175181D01*
X145881240Y-116273915D01*
X145929878Y-116364910D01*
X145995333Y-116444667D01*
X146075090Y-116510122D01*
X146166085Y-116558760D01*
X146264819Y-116588711D01*
X146367500Y-116598824D01*
X146662500Y-116598824D01*
X146765181Y-116588711D01*
X146863915Y-116558760D01*
X146954910Y-116510122D01*
X147000000Y-116473118D01*
X147045090Y-116510122D01*
X147136085Y-116558760D01*
X147234819Y-116588711D01*
X147337500Y-116598824D01*
X147632500Y-116598824D01*
X147735181Y-116588711D01*
X147833915Y-116558760D01*
X147924910Y-116510122D01*
X148004667Y-116444667D01*
X148070122Y-116364910D01*
X148118760Y-116273915D01*
X148148711Y-116175181D01*
X148158824Y-116072500D01*
X148158824Y-115727500D01*
X148148711Y-115624819D01*
X148118760Y-115526085D01*
X148070122Y-115435090D01*
X148004667Y-115355333D01*
X147924910Y-115289878D01*
X147833915Y-115241240D01*
X147735181Y-115211289D01*
X147632500Y-115201176D01*
X147337500Y-115201176D01*
X147234819Y-115211289D01*
X147136085Y-115241240D01*
X147045090Y-115289878D01*
X147000000Y-115326882D01*
X146954910Y-115289878D01*
X146863915Y-115241240D01*
X146765181Y-115211289D01*
X146662500Y-115201176D01*
X146367500Y-115201176D01*
X146264819Y-115211289D01*
X146166085Y-115241240D01*
X146075090Y-115289878D01*
X145995333Y-115355333D01*
X145929878Y-115435090D01*
X145881240Y-115526085D01*
X145851289Y-115624819D01*
X145841176Y-115727500D01*
X111377000Y-115727500D01*
X111377000Y-114000000D01*
X146071176Y-114000000D01*
X146071176Y-114200000D01*
X146080376Y-114293414D01*
X146107624Y-114383238D01*
X146151872Y-114466020D01*
X146211420Y-114538580D01*
X146283980Y-114598128D01*
X146366762Y-114642376D01*
X146456586Y-114669624D01*
X146550000Y-114678824D01*
X146810000Y-114678824D01*
X146903414Y-114669624D01*
X146993238Y-114642376D01*
X147000000Y-114638762D01*
X147006762Y-114642376D01*
X147096586Y-114669624D01*
X147190000Y-114678824D01*
X147450000Y-114678824D01*
X147543414Y-114669624D01*
X147633238Y-114642376D01*
X147716020Y-114598128D01*
X147788580Y-114538580D01*
X147848128Y-114466020D01*
X147892376Y-114383238D01*
X147919624Y-114293414D01*
X147928824Y-114200000D01*
X147928824Y-114000000D01*
X147919624Y-113906586D01*
X147892376Y-113816762D01*
X147848128Y-113733980D01*
X147788580Y-113661420D01*
X147716020Y-113601872D01*
X147633238Y-113557624D01*
X147543414Y-113530376D01*
X147450000Y-113521176D01*
X147190000Y-113521176D01*
X147096586Y-113530376D01*
X147006762Y-113557624D01*
X147000000Y-113561238D01*
X146993238Y-113557624D01*
X146903414Y-113530376D01*
X146810000Y-113521176D01*
X146550000Y-113521176D01*
X146456586Y-113530376D01*
X146366762Y-113557624D01*
X146283980Y-113601872D01*
X146211420Y-113661420D01*
X146151872Y-113733980D01*
X146107624Y-113816762D01*
X146080376Y-113906586D01*
X146071176Y-114000000D01*
X111377000Y-114000000D01*
X111377000Y-113809537D01*
X111320903Y-113239975D01*
X111104018Y-112525000D01*
X146171176Y-112525000D01*
X146171176Y-112675000D01*
X146179896Y-112763537D01*
X146205721Y-112848671D01*
X146247659Y-112927131D01*
X146304098Y-112995902D01*
X146372869Y-113052341D01*
X146451329Y-113094279D01*
X146536463Y-113120104D01*
X146625000Y-113128824D01*
X146875000Y-113128824D01*
X146963537Y-113120104D01*
X147000000Y-113109043D01*
X147036463Y-113120104D01*
X147125000Y-113128824D01*
X147375000Y-113128824D01*
X147463537Y-113120104D01*
X147548671Y-113094279D01*
X147627131Y-113052341D01*
X147695902Y-112995902D01*
X147752341Y-112927131D01*
X147794279Y-112848671D01*
X147820104Y-112763537D01*
X147828824Y-112675000D01*
X147828824Y-112625000D01*
X164491176Y-112625000D01*
X164491176Y-113275000D01*
X164498455Y-113348905D01*
X164520012Y-113419970D01*
X164522701Y-113425000D01*
X164520012Y-113430030D01*
X164498455Y-113501095D01*
X164491176Y-113575000D01*
X164491176Y-114225000D01*
X164498455Y-114298905D01*
X164520012Y-114369970D01*
X164522701Y-114375000D01*
X164520012Y-114380030D01*
X164498455Y-114451095D01*
X164491176Y-114525000D01*
X164491176Y-115175000D01*
X164498455Y-115248905D01*
X164520012Y-115319970D01*
X164555019Y-115385463D01*
X164602131Y-115442869D01*
X164659537Y-115489981D01*
X164725030Y-115524988D01*
X164796095Y-115546545D01*
X164870000Y-115553824D01*
X165930000Y-115553824D01*
X166003905Y-115546545D01*
X166074970Y-115524988D01*
X166140463Y-115489981D01*
X166197869Y-115442869D01*
X166244981Y-115385463D01*
X166279988Y-115319970D01*
X166301545Y-115248905D01*
X166308824Y-115175000D01*
X166308824Y-114525000D01*
X166301545Y-114451095D01*
X166279988Y-114380030D01*
X166277299Y-114375000D01*
X166279988Y-114369970D01*
X166301545Y-114298905D01*
X166308824Y-114225000D01*
X166308824Y-113575000D01*
X166301545Y-113501095D01*
X166279988Y-113430030D01*
X166277299Y-113425000D01*
X166279988Y-113419970D01*
X166301545Y-113348905D01*
X166308824Y-113275000D01*
X166308824Y-112625000D01*
X166691176Y-112625000D01*
X166691176Y-113275000D01*
X166698455Y-113348905D01*
X166720012Y-113419970D01*
X166722701Y-113425000D01*
X166720012Y-113430030D01*
X166698455Y-113501095D01*
X166691176Y-113575000D01*
X166691176Y-114225000D01*
X166698455Y-114298905D01*
X166720012Y-114369970D01*
X166722701Y-114375000D01*
X166720012Y-114380030D01*
X166698455Y-114451095D01*
X166691176Y-114525000D01*
X166691176Y-115175000D01*
X166698455Y-115248905D01*
X166720012Y-115319970D01*
X166755019Y-115385463D01*
X166802131Y-115442869D01*
X166859537Y-115489981D01*
X166925030Y-115524988D01*
X166996095Y-115546545D01*
X167070000Y-115553824D01*
X168130000Y-115553824D01*
X168203905Y-115546545D01*
X168274970Y-115524988D01*
X168340463Y-115489981D01*
X168397869Y-115442869D01*
X168444981Y-115385463D01*
X168479988Y-115319970D01*
X168501545Y-115248905D01*
X168508824Y-115175000D01*
X168508824Y-114525000D01*
X168501545Y-114451095D01*
X168479988Y-114380030D01*
X168477299Y-114375000D01*
X168479988Y-114369970D01*
X168501545Y-114298905D01*
X168508824Y-114225000D01*
X168508824Y-113575000D01*
X175701176Y-113575000D01*
X175701176Y-114225000D01*
X175708455Y-114298905D01*
X175730012Y-114369970D01*
X175765019Y-114435463D01*
X175812131Y-114492869D01*
X175869537Y-114539981D01*
X175935030Y-114574988D01*
X176006095Y-114596545D01*
X176080000Y-114603824D01*
X177300000Y-114603824D01*
X177373905Y-114596545D01*
X177444970Y-114574988D01*
X177510463Y-114539981D01*
X177528717Y-114525000D01*
X178321176Y-114525000D01*
X178321176Y-115175000D01*
X178328455Y-115248905D01*
X178350012Y-115319970D01*
X178385019Y-115385463D01*
X178432131Y-115442869D01*
X178489537Y-115489981D01*
X178555030Y-115524988D01*
X178626095Y-115546545D01*
X178700000Y-115553824D01*
X179920000Y-115553824D01*
X179993905Y-115546545D01*
X180064970Y-115524988D01*
X180130463Y-115489981D01*
X180187869Y-115442869D01*
X180234981Y-115385463D01*
X180269988Y-115319970D01*
X180291545Y-115248905D01*
X180298824Y-115175000D01*
X180298824Y-114525000D01*
X180291545Y-114451095D01*
X180269988Y-114380030D01*
X180234981Y-114314537D01*
X180223051Y-114300000D01*
X185971176Y-114300000D01*
X185971176Y-118100000D01*
X185978455Y-118173905D01*
X186000012Y-118244970D01*
X186035019Y-118310463D01*
X186082131Y-118367869D01*
X186139537Y-118414981D01*
X186205030Y-118449988D01*
X186276095Y-118471545D01*
X186350000Y-118478824D01*
X188350000Y-118478824D01*
X188423905Y-118471545D01*
X188494970Y-118449988D01*
X188560463Y-118414981D01*
X188617869Y-118367869D01*
X188664981Y-118310463D01*
X188699988Y-118244970D01*
X188721545Y-118173905D01*
X188728824Y-118100000D01*
X188728824Y-117750000D01*
X192271176Y-117750000D01*
X192271176Y-119250000D01*
X192278455Y-119323905D01*
X192300012Y-119394970D01*
X192335019Y-119460463D01*
X192382131Y-119517869D01*
X192439537Y-119564981D01*
X192505030Y-119599988D01*
X192576095Y-119621545D01*
X192650000Y-119628824D01*
X194650000Y-119628824D01*
X194723905Y-119621545D01*
X194794970Y-119599988D01*
X194860463Y-119564981D01*
X194917869Y-119517869D01*
X194964981Y-119460463D01*
X194999988Y-119394970D01*
X195021545Y-119323905D01*
X195028824Y-119250000D01*
X195028824Y-117750000D01*
X195021545Y-117676095D01*
X194999988Y-117605030D01*
X194964981Y-117539537D01*
X194917869Y-117482131D01*
X194860463Y-117435019D01*
X194794970Y-117400012D01*
X194723905Y-117378455D01*
X194650000Y-117371176D01*
X192650000Y-117371176D01*
X192576095Y-117378455D01*
X192505030Y-117400012D01*
X192439537Y-117435019D01*
X192382131Y-117482131D01*
X192335019Y-117539537D01*
X192300012Y-117605030D01*
X192278455Y-117676095D01*
X192271176Y-117750000D01*
X188728824Y-117750000D01*
X188728824Y-115450000D01*
X192271176Y-115450000D01*
X192271176Y-116950000D01*
X192278455Y-117023905D01*
X192300012Y-117094970D01*
X192335019Y-117160463D01*
X192382131Y-117217869D01*
X192439537Y-117264981D01*
X192505030Y-117299988D01*
X192576095Y-117321545D01*
X192650000Y-117328824D01*
X194650000Y-117328824D01*
X194723905Y-117321545D01*
X194794970Y-117299988D01*
X194860463Y-117264981D01*
X194917869Y-117217869D01*
X194964981Y-117160463D01*
X194999988Y-117094970D01*
X195021545Y-117023905D01*
X195028824Y-116950000D01*
X195028824Y-115450000D01*
X195021545Y-115376095D01*
X194999988Y-115305030D01*
X194964981Y-115239537D01*
X194917869Y-115182131D01*
X194860463Y-115135019D01*
X194794970Y-115100012D01*
X194723905Y-115078455D01*
X194650000Y-115071176D01*
X192650000Y-115071176D01*
X192576095Y-115078455D01*
X192505030Y-115100012D01*
X192439537Y-115135019D01*
X192382131Y-115182131D01*
X192335019Y-115239537D01*
X192300012Y-115305030D01*
X192278455Y-115376095D01*
X192271176Y-115450000D01*
X188728824Y-115450000D01*
X188728824Y-114300000D01*
X188721545Y-114226095D01*
X188699988Y-114155030D01*
X188664981Y-114089537D01*
X188617869Y-114032131D01*
X188560463Y-113985019D01*
X188494970Y-113950012D01*
X188423905Y-113928455D01*
X188350000Y-113921176D01*
X186350000Y-113921176D01*
X186276095Y-113928455D01*
X186205030Y-113950012D01*
X186139537Y-113985019D01*
X186082131Y-114032131D01*
X186035019Y-114089537D01*
X186000012Y-114155030D01*
X185978455Y-114226095D01*
X185971176Y-114300000D01*
X180223051Y-114300000D01*
X180187869Y-114257131D01*
X180130463Y-114210019D01*
X180064970Y-114175012D01*
X179993905Y-114153455D01*
X179920000Y-114146176D01*
X178700000Y-114146176D01*
X178626095Y-114153455D01*
X178555030Y-114175012D01*
X178489537Y-114210019D01*
X178432131Y-114257131D01*
X178385019Y-114314537D01*
X178350012Y-114380030D01*
X178328455Y-114451095D01*
X178321176Y-114525000D01*
X177528717Y-114525000D01*
X177567869Y-114492869D01*
X177614981Y-114435463D01*
X177649988Y-114369970D01*
X177671545Y-114298905D01*
X177678824Y-114225000D01*
X177678824Y-113575000D01*
X177671545Y-113501095D01*
X177649988Y-113430030D01*
X177614981Y-113364537D01*
X177567869Y-113307131D01*
X177510463Y-113260019D01*
X177444970Y-113225012D01*
X177373905Y-113203455D01*
X177300000Y-113196176D01*
X176080000Y-113196176D01*
X176006095Y-113203455D01*
X175935030Y-113225012D01*
X175869537Y-113260019D01*
X175812131Y-113307131D01*
X175765019Y-113364537D01*
X175730012Y-113430030D01*
X175708455Y-113501095D01*
X175701176Y-113575000D01*
X168508824Y-113575000D01*
X168501545Y-113501095D01*
X168479988Y-113430030D01*
X168477299Y-113425000D01*
X168479988Y-113419970D01*
X168501545Y-113348905D01*
X168508824Y-113275000D01*
X168508824Y-112625000D01*
X178321176Y-112625000D01*
X178321176Y-113275000D01*
X178328455Y-113348905D01*
X178350012Y-113419970D01*
X178385019Y-113485463D01*
X178432131Y-113542869D01*
X178489537Y-113589981D01*
X178555030Y-113624988D01*
X178626095Y-113646545D01*
X178700000Y-113653824D01*
X179920000Y-113653824D01*
X179993905Y-113646545D01*
X180064970Y-113624988D01*
X180130463Y-113589981D01*
X180187869Y-113542869D01*
X180234981Y-113485463D01*
X180269988Y-113419970D01*
X180291545Y-113348905D01*
X180298824Y-113275000D01*
X180298824Y-113150000D01*
X192271176Y-113150000D01*
X192271176Y-114650000D01*
X192278455Y-114723905D01*
X192300012Y-114794970D01*
X192335019Y-114860463D01*
X192382131Y-114917869D01*
X192439537Y-114964981D01*
X192505030Y-114999988D01*
X192576095Y-115021545D01*
X192650000Y-115028824D01*
X194650000Y-115028824D01*
X194723905Y-115021545D01*
X194794970Y-114999988D01*
X194860463Y-114964981D01*
X194917869Y-114917869D01*
X194964981Y-114860463D01*
X194999988Y-114794970D01*
X195021545Y-114723905D01*
X195028824Y-114650000D01*
X195028824Y-113475735D01*
X216823000Y-113475735D01*
X216823000Y-113924265D01*
X216910504Y-114364176D01*
X217082149Y-114778564D01*
X217331339Y-115151503D01*
X217648497Y-115468661D01*
X218021436Y-115717851D01*
X218435824Y-115889496D01*
X218875735Y-115977000D01*
X219324265Y-115977000D01*
X219764176Y-115889496D01*
X220178564Y-115717851D01*
X220551503Y-115468661D01*
X220868661Y-115151503D01*
X221117851Y-114778564D01*
X221289496Y-114364176D01*
X221377000Y-113924265D01*
X221377000Y-113475735D01*
X221289496Y-113035824D01*
X221117851Y-112621436D01*
X220868661Y-112248497D01*
X220551503Y-111931339D01*
X220178564Y-111682149D01*
X219764176Y-111510504D01*
X219324265Y-111423000D01*
X218875735Y-111423000D01*
X218435824Y-111510504D01*
X218021436Y-111682149D01*
X217648497Y-111931339D01*
X217331339Y-112248497D01*
X217082149Y-112621436D01*
X216910504Y-113035824D01*
X216823000Y-113475735D01*
X195028824Y-113475735D01*
X195028824Y-113150000D01*
X195021545Y-113076095D01*
X194999988Y-113005030D01*
X194964981Y-112939537D01*
X194917869Y-112882131D01*
X194860463Y-112835019D01*
X194794970Y-112800012D01*
X194723905Y-112778455D01*
X194650000Y-112771176D01*
X192650000Y-112771176D01*
X192576095Y-112778455D01*
X192505030Y-112800012D01*
X192439537Y-112835019D01*
X192382131Y-112882131D01*
X192335019Y-112939537D01*
X192300012Y-113005030D01*
X192278455Y-113076095D01*
X192271176Y-113150000D01*
X180298824Y-113150000D01*
X180298824Y-112625000D01*
X180291545Y-112551095D01*
X180269988Y-112480030D01*
X180234981Y-112414537D01*
X180187869Y-112357131D01*
X180130463Y-112310019D01*
X180064970Y-112275012D01*
X179993905Y-112253455D01*
X179920000Y-112246176D01*
X178700000Y-112246176D01*
X178626095Y-112253455D01*
X178555030Y-112275012D01*
X178489537Y-112310019D01*
X178432131Y-112357131D01*
X178385019Y-112414537D01*
X178350012Y-112480030D01*
X178328455Y-112551095D01*
X178321176Y-112625000D01*
X168508824Y-112625000D01*
X168501545Y-112551095D01*
X168479988Y-112480030D01*
X168444981Y-112414537D01*
X168397869Y-112357131D01*
X168340463Y-112310019D01*
X168274970Y-112275012D01*
X168203905Y-112253455D01*
X168130000Y-112246176D01*
X167070000Y-112246176D01*
X166996095Y-112253455D01*
X166925030Y-112275012D01*
X166859537Y-112310019D01*
X166802131Y-112357131D01*
X166755019Y-112414537D01*
X166720012Y-112480030D01*
X166698455Y-112551095D01*
X166691176Y-112625000D01*
X166308824Y-112625000D01*
X166301545Y-112551095D01*
X166279988Y-112480030D01*
X166244981Y-112414537D01*
X166197869Y-112357131D01*
X166140463Y-112310019D01*
X166074970Y-112275012D01*
X166003905Y-112253455D01*
X165930000Y-112246176D01*
X164870000Y-112246176D01*
X164796095Y-112253455D01*
X164725030Y-112275012D01*
X164659537Y-112310019D01*
X164602131Y-112357131D01*
X164555019Y-112414537D01*
X164520012Y-112480030D01*
X164498455Y-112551095D01*
X164491176Y-112625000D01*
X147828824Y-112625000D01*
X147828824Y-112525000D01*
X147820104Y-112436463D01*
X147794279Y-112351329D01*
X147752341Y-112272869D01*
X147695902Y-112204098D01*
X147627131Y-112147659D01*
X147548671Y-112105721D01*
X147463537Y-112079896D01*
X147375000Y-112071176D01*
X147125000Y-112071176D01*
X147036463Y-112079896D01*
X147000000Y-112090957D01*
X146963537Y-112079896D01*
X146875000Y-112071176D01*
X146625000Y-112071176D01*
X146536463Y-112079896D01*
X146451329Y-112105721D01*
X146372869Y-112147659D01*
X146304098Y-112204098D01*
X146247659Y-112272869D01*
X146205721Y-112351329D01*
X146179896Y-112436463D01*
X146171176Y-112525000D01*
X111104018Y-112525000D01*
X111099212Y-112509158D01*
X110739205Y-111835632D01*
X110254718Y-111245282D01*
X109664368Y-110760795D01*
X108990841Y-110400788D01*
X108260024Y-110179097D01*
X107500000Y-110104241D01*
X106739975Y-110179097D01*
X106009158Y-110400788D01*
X105335632Y-110760795D01*
X104745282Y-111245282D01*
X104260795Y-111835632D01*
X103900788Y-112509159D01*
X103679097Y-113239976D01*
X103623000Y-113809538D01*
X100402000Y-113809538D01*
X100402000Y-101019658D01*
X100415279Y-100884227D01*
X100448905Y-100772852D01*
X100503518Y-100670141D01*
X100577046Y-100579986D01*
X100666682Y-100505832D01*
X100769011Y-100450503D01*
X100880141Y-100416103D01*
X101014318Y-100402000D01*
X258980342Y-100402000D01*
X259115773Y-100415279D01*
G36*
X177529426Y-121100000D02*
G01*
X177528824Y-121101127D01*
X177528824Y-121098873D01*
X177529426Y-121100000D01*
G37*
X177529426Y-121100000D02*
X177528824Y-121101127D01*
X177528824Y-121098873D01*
X177529426Y-121100000D01*
M02*
